<svg viewBox="0 -3.52 205.87 205.87" xmlns="http://www.w3.org/2000/svg" fill="#000000" stroke="#000000"><g id="SVGRepo_bgCarrier" stroke-width="0"></g><g id="SVGRepo_tracerCarrier" stroke-linecap="round" stroke-linejoin="round"></g><g id="SVGRepo_iconCarrier"> <defs> <style>.cls-1{fill:#ffffff;}</style> </defs> <g id="Layer_2" data-name="Layer 2"> <g id="Layer_1-2" data-name="Layer 1"> <path d="M107.34,198.82a58.89,58.89,0,0,1-17.79-2.58c-6.89-2-13.77-3.91-20.7-5.69C59,188,50.05,183.76,42.72,176.47c-6.29-6.26-12.72-12.38-19-18.63a93,93,0,0,1-13.64-17.62C1.66,126.54-1.79,111.86.89,95.85,3.51,80.24,7.49,65,15.55,51.3,25.3,34.69,38.23,21.13,56,12.88c6.23-2.89,12.41-6,18.81-8.38,13.16-5,27-4.87,40.71-4.12,19.16,1,36.18,8.37,51.6,19.32,10.34,7.35,19.23,16.25,24.5,28.17,2.31,5.22,5.07,10.25,7.19,15.54a112.35,112.35,0,0,1,3.64,12.31c.6,2.2.67,4.58,1.47,6.69,2.46,6.39,2.1,13,1.41,19.53a244.33,244.33,0,0,1-8.2,41.22,47.5,47.5,0,0,1-12.68,21.13c-3.27,3.19-6.38,6.56-9.73,9.66a93.88,93.88,0,0,1-8,6.45c-4.8,3.54-10.75,5.24-15.1,9.65-1.49,1.51-4,2.28-6.2,2.8C132.89,195.82,120.26,198.25,107.34,198.82ZM19.34,68c-1.56,4.59-3,8.63-4.3,12.69a78.8,78.8,0,0,0-4.1,27c.52,15.82,7.29,29.16,17.61,40.87A12.49,12.49,0,0,0,35,152.49a120.4,120.4,0,0,1,15.42,5.19,11.57,11.57,0,0,0,11.37-.77c6.68-4,14.06-6.2,21.42-8.55,4-1.27,8.39-1.76,12.25-4.62,1.42-9.53,2.58-19.16,4.36-28.67s4.64-18.85,4.36-28.82a163.41,163.41,0,0,0-19.86-20Q76.5,59.58,68.61,53c-3.45-2.88-7.1-3-11.18-1.12A82.43,82.43,0,0,1,43.9,57.22,94,94,0,0,0,19.34,68Zm96,21.56c-2.71,19.44-9,37.75-8.76,56.8l23,27.35a9.37,9.37,0,0,0,2.25.37c9.59-1.59,19.16-3.37,29-3a8.67,8.67,0,0,0,6.81-3.07c2.95-3.1,5.72-6.41,8.89-9.27a35.6,35.6,0,0,0,10.59-18.3c2.55-10.25,4.54-20.64,6.74-31a6.64,6.64,0,0,0-1.85-6.26c-3.86-4.21-7.37-8.74-11.32-12.86s-8.19-7.86-12.22-11.68C150.59,82.08,132.89,83.59,115.37,89.6ZM71.83,41.67c3.56,3,6.9,5.65,10,8.56,8.73,8.25,17.46,16.52,26,25,2.74,2.74,5.6,3.75,9.24,3,1.68-.35,3.34-.79,5-1.14,6.44-1.37,12.87-2.76,19.32-4.07,8.67-1.76,17.35-3.45,25.91-5.15,1.84-10.34,3.62-20.39,5.38-30.32-23.32-23.82-51.25-32.3-83.78-26.24ZM60.88,176.73a25.2,25.2,0,0,0,9.71,4.79c6.1,1.54,12.25,2.92,18.22,4.86,8.39,2.73,16.84,2.66,25.85,1.77,1.23-3.46,2.45-6.92,3.55-10-3.39-6.72-15.54-20.93-20.21-24-5.88,1.92-11.62,3.6-17.21,5.68-4.54,1.68-8.91,3.83-13.34,5.79C62.75,167.71,60.53,171.29,60.88,176.73ZM28.71,50.55c1.92,0,3.12.3,4.07,0q13.67-5,27.25-10.23A5.37,5.37,0,0,0,62.52,38c2-3.47,3.91-7,5.64-10.6,1.64-3.44,4.12-6.51,5.65-11.19C54.06,22.32,39.67,33.45,28.71,50.55Zm165,39.27c-1.33-14.84-6.41-30-12.33-36.84-2.89,6.55-2.82,13.27-3.34,19.44Z"></path> <path class="cls-1" d="M19.34,68A94,94,0,0,1,43.9,57.22a82.43,82.43,0,0,0,13.53-5.36C61.51,50,65.16,50.1,68.61,53Q76.5,59.6,84.3,66.3a163.41,163.41,0,0,1,19.86,20c.28,10-2.57,19.3-4.36,28.82s-2.94,19.14-4.36,28.67c-3.86,2.86-8.25,3.35-12.25,4.62-7.36,2.35-14.74,4.55-21.42,8.55a11.57,11.57,0,0,1-11.37.77A120.4,120.4,0,0,0,35,152.49a12.49,12.49,0,0,1-6.43-3.91c-10.32-11.71-17.09-25.05-17.61-40.87a78.8,78.8,0,0,1,4.1-27C16.36,76.67,17.78,72.63,19.34,68Z"></path> <path class="cls-1" d="M115.37,89.6c17.52-6,35.22-7.52,53.11-10.86,4,3.82,8.3,7.58,12.22,11.68s7.46,8.65,11.32,12.86a6.64,6.64,0,0,1,1.85,6.26c-2.2,10.34-4.19,20.73-6.74,31a35.6,35.6,0,0,1-10.59,18.3c-3.17,2.86-5.94,6.17-8.89,9.27a8.67,8.67,0,0,1-6.81,3.07c-9.8-.41-19.37,1.37-29,3a9.37,9.37,0,0,1-2.25-.37l-23-27.35C106.4,127.35,112.66,109,115.37,89.6Z"></path> <path class="cls-1" d="M71.83,41.67l17-30.35c32.53-6.06,60.46,2.42,83.78,26.24-1.76,9.93-3.54,20-5.38,30.32C158.7,69.58,150,71.27,141.35,73c-6.45,1.31-12.88,2.7-19.32,4.07-1.68.35-3.34.79-5,1.14-3.64.76-6.5-.25-9.24-3-8.5-8.5-17.23-16.77-26-25C78.73,47.32,75.39,44.71,71.83,41.67Z"></path> <path class="cls-1" d="M60.88,176.73c-.35-5.44,1.87-9,6.57-11.09,4.43-2,8.8-4.11,13.34-5.79,5.59-2.08,11.33-3.76,17.21-5.68,4.67,3,16.82,17.25,20.21,24-1.1,3.09-2.32,6.55-3.55,10-9,.89-17.46,1-25.85-1.77-6-1.94-12.12-3.32-18.22-4.86A25.2,25.2,0,0,1,60.88,176.73Z"></path> <path class="cls-1" d="M28.71,50.55c11-17.1,25.35-28.23,45.1-34.32-1.53,4.68-4,7.75-5.65,11.19C66.43,31,64.51,34.55,62.52,38A5.37,5.37,0,0,1,60,40.27Q46.46,45.51,32.78,50.5C31.83,50.85,30.63,50.55,28.71,50.55Z"></path> <path class="cls-1" d="M193.67,89.82,178,72.42c.52-6.17.45-12.89,3.34-19.44C187.26,59.86,192.34,75,193.67,89.82Z"></path> </g> </g> </g></svg>