<svg version="1.1" id="Layer_1" xmlns="http://www.w3.org/2000/svg" xmlns:xlink="http://www.w3.org/1999/xlink" x="0px" y="0px"
	 width="100%" viewBox="0 0 225 225" enable-background="new 0 0 225 225" xml:space="preserve">
<path fill="#000000" opacity="1.000000" stroke="none" 
	d="
M149.000000,226.000000 
	C99.333336,226.000000 50.166672,226.000000 1.000007,226.000000 
	C1.000004,151.000000 1.000004,76.000015 1.000002,1.000017 
	C75.999992,1.000011 150.999985,1.000011 225.999969,1.000006 
	C225.999985,75.999985 225.999985,150.999969 226.000000,225.999969 
	C200.500000,226.000000 175.000000,226.000000 149.000000,226.000000 
M177.997772,85.001396 
	C177.997772,85.001396 178.053680,84.987801 177.868118,84.494705 
	C177.583633,84.300308 177.299149,84.105911 176.733459,83.377205 
	C175.834595,82.586021 174.935730,81.794846 173.842926,80.528130 
	C173.560654,80.348511 173.278381,80.168884 172.993668,80.006210 
	C172.993668,80.006210 173.010574,80.003670 172.834656,79.525742 
	C172.554916,79.347832 172.275177,79.169922 171.995453,79.004578 
	C171.995453,79.004578 172.007797,79.003349 171.731522,78.371834 
	C169.816284,76.385612 168.235718,76.308151 167.080658,79.556221 
	C167.080658,79.556221 166.996399,79.942291 166.538025,80.141014 
	C166.436020,80.436630 166.334015,80.732246 166.090210,81.466812 
	C166.090210,81.466812 165.977615,81.914146 165.502853,82.107903 
	C165.412781,82.411079 165.322708,82.714264 165.120316,83.459160 
	C165.120316,83.459160 164.993546,83.896965 164.368195,84.228493 
	C163.975021,85.523712 163.581863,86.818932 163.106796,88.736931 
	C163.043243,89.150406 162.979691,89.563873 162.265137,90.502174 
	C162.235275,93.671501 162.205429,96.840828 162.361374,100.731163 
	C163.067978,103.332680 163.774582,105.934196 164.672989,109.241905 
	C161.764511,109.869179 158.965302,110.472900 155.403305,111.020149 
	C154.896805,111.053246 154.390320,111.086342 152.964630,111.022736 
	C113.763031,111.014198 74.561424,110.993889 35.359909,111.047867 
	C34.037342,111.049690 32.715809,111.800354 31.060244,112.951691 
	C31.013990,116.643486 30.967739,120.335274 31.040945,124.758904 
	C31.100924,125.497406 31.160904,126.235909 31.117521,127.498466 
	C31.152527,127.673042 31.187531,127.847618 31.085205,128.852966 
	C31.968855,138.796753 35.796753,147.469437 42.028679,155.244659 
	C48.087242,162.803604 55.124649,168.846008 64.496246,171.928955 
	C82.567535,177.873825 100.931046,175.538879 118.774849,172.163239 
	C138.218002,168.485046 154.487091,158.042191 166.525024,141.862137 
	C170.110153,137.043427 173.422623,132.021851 177.133713,126.471657 
	C177.418015,125.641388 177.702316,124.811127 177.995117,123.995308 
	C177.995117,123.995308 177.979919,123.992592 178.584229,123.625023 
	C179.728073,119.200485 183.250763,118.795898 186.979065,118.484070 
	C190.801529,118.164352 194.923294,118.298782 197.817123,113.990585 
	C202.140930,113.702789 203.544495,110.318192 205.473877,107.193680 
	C208.935913,101.587158 208.593124,99.742943 201.982605,98.093208 
	C196.320923,96.680267 190.431824,96.178467 184.454514,95.244186 
	C183.693115,93.775269 182.726883,91.911156 181.783051,89.548836 
	C181.629852,89.219124 181.373688,89.026222 180.998550,89.003281 
	C180.998550,89.003281 181.029617,88.983215 180.972092,88.334877 
	C180.313431,87.553391 179.654770,86.771912 178.993057,86.004906 
	C178.993057,86.004906 179.007736,86.005981 178.859329,85.507317 
	C178.577087,85.320137 178.294830,85.132957 177.997772,85.001396 
M88.049416,94.934959 
	C88.049416,99.469978 88.049416,104.004990 88.049416,108.826157 
	C94.206779,108.826157 99.599579,108.826157 105.742645,108.571907 
	C106.114220,103.729141 106.584267,98.889473 106.736389,94.039825 
	C106.756050,93.413086 105.148880,92.198692 104.264740,92.169098 
	C99.289459,92.002563 94.303604,92.072258 89.325691,92.213860 
	C88.923859,92.225288 88.554665,93.384323 88.049416,94.934959 
M131.999329,92.998863 
	C131.999329,92.998863 131.931458,92.949738 131.264450,93.489311 
	C131.264450,98.552155 131.264450,103.614998 131.264450,108.971947 
	C136.680725,108.971947 141.504379,109.182632 146.286850,108.831879 
	C147.569885,108.737785 149.589859,107.090424 149.809280,105.889046 
	C152.020370,93.782310 150.377563,91.875252 138.442169,91.985123 
	C137.281281,91.995804 136.121323,92.107025 134.308075,92.057701 
	C133.869461,92.094475 133.430832,92.131248 132.497070,92.164978 
	C132.180618,92.331139 131.993423,92.590569 131.999329,92.998863 
M109.367928,92.591248 
	C109.367928,97.948334 109.367928,103.305412 109.367928,108.982407 
	C114.666374,108.982407 119.446297,108.938446 124.224899,108.999245 
	C126.996475,109.034515 128.487595,107.619865 127.902573,105.051117 
	C126.922592,100.748116 130.795700,95.466820 125.346657,92.107269 
	C124.975830,91.878639 124.372406,91.995018 123.878120,92.003967 
	C119.913559,92.075806 115.949226,92.160416 111.373138,92.147369 
	C110.963242,92.180489 110.553337,92.213600 109.367928,92.591248 
M101.103531,72.149147 
	C98.747726,72.180603 96.391922,72.212067 93.175537,72.084312 
	C91.594879,72.170227 90.014214,72.256149 88.395752,72.344124 
	C88.395752,78.075844 88.395752,83.280479 88.395752,89.001259 
	C90.907776,89.001259 93.025452,89.037193 95.141602,88.995407 
	C108.645241,88.728798 106.797920,91.433220 107.048996,76.691483 
	C107.113274,72.917435 105.668854,71.453506 101.103531,72.149147 
M116.183281,72.147408 
	C115.140297,72.179596 114.097313,72.211784 112.505379,72.144768 
	C112.324020,72.185822 112.142654,72.226868 111.364708,72.180672 
	C110.964867,72.206429 110.565025,72.232185 109.402138,72.568855 
	C109.332390,75.381760 109.262642,78.194664 109.079941,81.746811 
	C109.117432,82.491112 109.154922,83.235413 109.030952,84.829071 
	C108.703087,87.596046 109.406776,89.258675 112.721680,89.050545 
	C116.356232,88.822357 120.068970,89.336250 123.638077,88.798943 
	C125.224274,88.560150 127.602631,86.675102 127.782883,85.296844 
	C128.330429,81.110191 127.981178,76.806244 127.981178,72.251564 
	C125.198067,72.251564 123.088295,72.251564 120.250153,72.152611 
	C119.517693,72.187439 118.785233,72.222267 117.507164,72.149681 
	C117.325066,72.184242 117.142960,72.218803 116.183281,72.147408 
M77.861458,108.967659 
	C80.131973,108.420677 84.218445,108.171341 84.365158,107.276253 
	C85.079308,102.919212 84.801010,98.388008 84.697914,93.922508 
	C84.684433,93.338593 83.635124,92.264908 83.099487,92.285843 
	C77.477531,92.505508 71.862488,92.902023 66.139923,93.800919 
	C66.159271,94.173561 66.178619,94.546196 66.055344,95.853134 
	C66.040604,99.326042 65.891983,102.807137 66.103531,106.266205 
	C66.157669,107.151360 67.350624,107.966858 68.909912,108.920128 
	C71.606857,108.887337 74.303810,108.854546 77.861458,108.967659 
M110.528709,67.781158 
	C115.668755,67.790520 120.808807,67.799873 126.707375,67.570747 
	C126.984528,62.459820 127.265862,57.349056 127.472549,52.235287 
	C127.474396,52.189648 126.475426,52.103554 125.306824,52.090294 
	C124.884300,52.141933 124.461777,52.193573 123.502480,52.132061 
	C123.323112,52.167561 123.143738,52.203060 122.178192,52.138073 
	C121.123795,52.167130 120.069389,52.196186 118.111816,52.068043 
	C115.219620,52.068043 112.327423,52.068043 108.565887,52.068043 
	C109.074814,57.610992 109.512993,62.383457 110.528709,67.781158 
M46.970390,91.548294 
	C46.001774,92.464088 44.256100,93.332031 44.196259,94.303795 
	C43.904922,99.034630 44.064537,103.793221 44.064537,108.985497 
	C49.779930,108.985497 54.749428,109.164856 59.687649,108.851402 
	C60.831657,108.778793 62.725937,107.089088 62.806694,106.031387 
	C63.154324,101.478348 62.955219,96.883568 62.955219,92.127007 
	C57.358322,91.780205 52.537556,91.481499 46.970390,91.548294 
M65.997444,79.547714 
	C65.997444,82.492554 65.997444,85.437401 65.997444,88.960953 
	C71.761009,88.960953 76.910027,89.288261 81.957985,88.719231 
	C83.145287,88.585388 85.034218,85.263565 84.788475,83.691612 
	C84.184433,79.827568 87.765114,74.924759 82.342834,72.127403 
	C82.204720,72.056152 82.015625,72.067680 81.850288,72.067589 
	C76.749016,72.064735 71.647743,72.065254 65.993942,72.065254 
	C65.993942,74.684349 65.993942,76.639496 65.997444,79.547714 
z"/>
<path fill="#076DA4" opacity="1.000000" stroke="none" 
	d="
M156.166077,111.076614 
	C158.965302,110.472900 161.764511,109.869179 164.672989,109.241905 
	C163.774582,105.934196 163.067978,103.332680 162.556671,100.151146 
	C162.806702,96.373199 162.861420,93.175278 162.916138,89.977348 
	C162.979691,89.563873 163.043243,89.150406 163.417313,88.216240 
	C164.149734,86.429359 164.571640,85.163162 164.993546,83.896965 
	C164.993546,83.896965 165.120316,83.459160 165.326401,83.072098 
	C165.726562,82.454460 165.874939,82.197495 165.977615,81.914146 
	C165.977615,81.914146 166.090210,81.466812 166.319672,81.088928 
	C166.750748,80.485359 166.899841,80.229111 166.996399,79.942291 
	C166.996399,79.942291 167.080658,79.556221 167.526794,79.326340 
	C169.317871,79.065422 170.662842,79.034386 172.007797,79.003349 
	C172.007797,79.003349 171.995453,79.004578 172.131775,79.197968 
	C172.477142,79.642075 172.724640,79.846184 173.010574,80.003670 
	C173.010574,80.003670 172.993668,80.006210 173.134979,80.198990 
	C173.490341,80.644829 173.743851,80.848793 174.036865,81.003662 
	C174.935730,81.794846 175.834595,82.586021 177.014557,83.853485 
	C177.548340,84.549103 177.801010,84.768448 178.053680,84.987801 
	C178.053680,84.987801 177.997772,85.001396 178.140182,85.177879 
	C178.488037,85.611931 178.729752,85.829132 179.007736,86.005981 
	C179.007736,86.005981 178.993057,86.004906 179.032532,86.320862 
	C179.724548,87.418953 180.377075,88.201088 181.029617,88.983215 
	C181.029617,88.983215 180.998550,89.003281 181.097229,89.187546 
	C181.348770,89.626465 181.537018,89.851547 181.760635,90.047050 
	C182.726883,91.911156 183.693115,93.775269 184.454514,95.244186 
	C190.431824,96.178467 196.320923,96.680267 201.982605,98.093208 
	C208.593124,99.742943 208.935913,101.587158 205.473877,107.193680 
	C203.544495,110.318192 202.140930,113.702789 197.077271,114.110840 
	C192.484497,115.142334 188.663162,116.602829 184.770691,116.826828 
	C179.821030,117.111664 177.962326,119.440613 177.979919,123.992592 
	C177.979919,123.992592 177.995117,123.995308 177.726929,124.092300 
	C177.259155,125.157280 177.059601,126.125252 176.860046,127.093231 
	C173.422623,132.021851 170.110153,137.043427 166.525024,141.862137 
	C154.487091,158.042191 138.218002,168.485046 118.774849,172.163239 
	C100.931046,175.538879 82.567535,177.873825 64.496246,171.928955 
	C55.124649,168.846008 48.087242,162.803604 42.028679,155.244659 
	C35.796753,147.469437 31.968855,138.796753 31.225616,128.314804 
	C31.446133,127.485786 31.397751,127.218376 31.220882,126.974411 
	C31.160904,126.235909 31.100924,125.497406 31.173351,124.035088 
	C33.354736,113.040138 33.354736,113.042137 44.108437,113.041107 
	C79.014656,113.037750 113.921013,113.071907 148.826782,112.944511 
	C151.275452,112.935577 153.719742,111.727234 156.166077,111.076614 
z"/>
<path fill="#076DA3" opacity="1.000000" stroke="none" 
	d="
M119.014992,52.225243 
	C120.069389,52.196186 121.123795,52.167130 122.697891,52.258873 
	C123.217590,52.379669 123.643677,52.407131 123.643677,52.407131 
	C123.643677,52.407131 124.039253,52.245213 124.039253,52.245216 
	C124.461777,52.193573 124.884300,52.141933 125.629227,52.525040 
	C125.950699,57.909599 125.949776,62.859413 125.948853,67.809227 
	C120.808807,67.799873 115.668755,67.790520 110.245316,66.992638 
	C109.966476,65.544838 109.972366,64.885574 109.975380,64.226288 
	C110.020187,54.428452 110.020103,54.428452 119.014992,52.225243 
z"/>
<path fill="#086CA2" opacity="1.000000" stroke="none" 
	d="
M66.197968,94.918839 
	C66.178619,94.546196 66.159271,94.173561 66.644592,93.483322 
	C70.970284,93.129013 74.791672,93.113007 78.612236,93.048752 
	C81.458656,93.000885 82.763611,94.264061 82.986404,97.198067 
	C83.380867,102.392914 83.150284,107.078644 77.000755,108.821747 
	C74.303810,108.854546 71.606857,108.887337 68.370987,108.476669 
	C67.287369,103.661751 66.742668,99.290291 66.197968,94.918839 
z"/>
<path fill="#076DA4" opacity="1.000000" stroke="none" 
	d="
M110.165176,72.257942 
	C110.565025,72.232185 110.964867,72.206429 111.792938,72.294769 
	C112.221169,72.408859 112.657043,72.423897 112.657043,72.423897 
	C112.657043,72.423897 113.054329,72.243973 113.054329,72.243973 
	C114.097313,72.211784 115.140297,72.179596 116.699966,72.274864 
	C117.216660,72.402321 117.652031,72.429665 117.652031,72.429665 
	C117.652031,72.429665 118.052773,72.257095 118.052773,72.257095 
	C118.785233,72.222267 119.517693,72.187439 120.946991,72.357986 
	C123.068916,73.851944 125.589706,75.056999 125.695595,76.446129 
	C125.930595,79.529068 125.824837,83.268730 124.249565,85.697350 
	C122.331848,88.653915 111.803345,86.994263 109.192413,83.979713 
	C109.154922,83.235413 109.117432,82.491112 109.287773,81.017883 
	C109.718796,77.611946 109.941986,74.934944 110.165176,72.257942 
z"/>
<path fill="#086DA3" opacity="1.000000" stroke="none" 
	d="
M94.036118,72.243530 
	C96.391922,72.212067 98.747726,72.180603 101.819763,72.426071 
	C106.621414,76.164841 104.880196,80.630402 104.388031,84.762909 
	C104.293350,85.557922 102.484627,86.623184 101.384155,86.732338 
	C98.445869,87.023766 95.455086,86.989456 92.501625,86.811508 
	C91.496826,86.750969 90.158401,86.129776 89.627625,85.329964 
	C86.992310,81.358864 89.517639,74.121742 94.036118,72.243530 
z"/>
<path fill="#076DA2" opacity="1.000000" stroke="none" 
	d="
M110.143433,92.246719 
	C110.553337,92.213600 110.963242,92.180489 112.008942,92.350220 
	C115.251892,92.776291 117.895821,93.382294 120.457832,93.136024 
	C124.654198,92.732635 126.303406,94.394432 126.026840,98.441040 
	C125.914406,100.086075 126.380966,101.912804 125.805389,103.343620 
	C125.243095,104.741417 123.851166,106.516899 122.543533,106.790932 
	C112.068565,108.986092 109.889915,107.142906 109.982582,96.701530 
	C109.995766,95.216240 110.087868,93.731636 110.143433,92.246719 
z"/>
<path fill="#076DA5" opacity="1.000000" stroke="none" 
	d="
M132.992218,92.168022 
	C133.430832,92.131248 133.869461,92.094475 134.863525,92.409439 
	C138.143875,93.184761 141.039322,93.181206 143.535416,94.177834 
	C145.281708,94.875084 147.503784,96.814682 147.699677,98.420647 
	C148.038452,101.197876 149.633499,105.121552 145.476288,106.686775 
	C136.933441,109.903244 132.018143,106.442589 131.982208,97.444412 
	C131.976227,95.946144 131.948914,94.447960 131.931458,92.949738 
	C131.931458,92.949738 131.999329,92.998863 132.158615,92.864250 
	C132.557114,92.559776 132.781891,92.372574 132.992218,92.168022 
z"/>
<path fill="#175C87" opacity="1.000000" stroke="none" 
	d="
M155.784698,111.048386 
	C153.719742,111.727234 151.275452,112.935577 148.826782,112.944511 
	C113.921013,113.071907 79.014656,113.037750 44.108437,113.041107 
	C33.354736,113.042137 33.354736,113.040138 31.113623,123.669174 
	C30.967739,120.335274 31.013990,116.643486 31.653599,112.488464 
	C70.921730,112.015663 109.596512,112.018288 148.271210,111.959297 
	C150.142502,111.956444 152.012970,111.411789 153.883820,111.119431 
	C154.390320,111.086342 154.896805,111.053246 155.784698,111.048386 
z"/>
<path fill="#BFE8FE" opacity="1.000000" stroke="none" 
	d="
M153.424225,111.071091 
	C152.012970,111.411789 150.142502,111.956444 148.271210,111.959297 
	C109.596512,112.018288 70.921730,112.015663 31.820374,112.113602 
	C32.715809,111.800354 34.037342,111.049690 35.359909,111.047867 
	C74.561424,110.993889 113.763031,111.014198 153.424225,111.071091 
z"/>
<path fill="#186188" opacity="1.000000" stroke="none" 
	d="
M47.343590,91.365540 
	C52.537556,91.481499 57.358322,91.780205 62.955219,92.127007 
	C62.955219,96.883568 63.154324,101.478348 62.806694,106.031387 
	C62.725937,107.089088 60.831657,108.778793 59.687649,108.851402 
	C54.749428,109.164856 49.779930,108.985497 44.064537,108.985497 
	C44.064537,103.793221 43.904922,99.034630 44.196259,94.303795 
	C44.256100,93.332031 46.001774,92.464088 47.343590,91.365540 
M60.238941,105.681770 
	C60.466194,102.734596 60.884678,99.783119 60.818584,96.842537 
	C60.794956,95.791313 59.639771,93.907364 58.931892,93.874069 
	C55.331787,93.704727 51.454182,93.250145 48.155014,94.345284 
	C43.434479,95.912231 45.497833,100.611107 45.668026,103.947372 
	C45.723801,105.040611 48.587708,106.683418 50.286644,106.848579 
	C53.352341,107.146606 56.507851,106.520721 60.238941,105.681770 
z"/>
<path fill="#13648F" opacity="1.000000" stroke="none" 
	d="
M131.597961,93.219528 
	C131.948914,94.447960 131.976227,95.946144 131.982208,97.444412 
	C132.018143,106.442589 136.933441,109.903244 145.476288,106.686775 
	C149.633499,105.121552 148.038452,101.197876 147.699677,98.420647 
	C147.503784,96.814682 145.281708,94.875084 143.535416,94.177834 
	C141.039322,93.181206 138.143875,93.184761 135.189941,92.466377 
	C136.121323,92.107025 137.281281,91.995804 138.442169,91.985123 
	C150.377563,91.875252 152.020370,93.782310 149.809280,105.889046 
	C149.589859,107.090424 147.569885,108.737785 146.286850,108.831879 
	C141.504379,109.182632 136.680725,108.971947 131.264450,108.971947 
	C131.264450,103.614998 131.264450,98.552155 131.597961,93.219528 
z"/>
<path fill="#1B5D85" opacity="1.000000" stroke="none" 
	d="
M65.995697,79.071175 
	C65.993942,76.639496 65.993942,74.684349 65.993942,72.065254 
	C71.647743,72.065254 76.749016,72.064735 81.850288,72.067589 
	C82.015625,72.067680 82.204720,72.056152 82.342834,72.127403 
	C87.765114,74.924759 84.184433,79.827568 84.788475,83.691612 
	C85.034218,85.263565 83.145287,88.585388 81.957985,88.719231 
	C76.910027,89.288261 71.761009,88.960953 65.997444,88.960953 
	C65.997444,85.437401 65.997444,82.492554 65.995697,79.071175 
M82.756195,83.933708 
	C83.515831,73.013885 82.628304,72.025078 71.789536,73.211365 
	C70.151680,73.390633 67.500542,75.270615 67.411774,76.513466 
	C67.179825,79.760574 67.373497,83.469322 68.813858,86.264000 
	C69.905609,88.382278 80.113991,86.800629 82.756195,83.933708 
z"/>
<path fill="#16628B" opacity="1.000000" stroke="none" 
	d="
M109.755676,92.418983 
	C110.087868,93.731636 109.995766,95.216240 109.982582,96.701530 
	C109.889915,107.142906 112.068565,108.986092 122.543533,106.790932 
	C123.851166,106.516899 125.243095,104.741417 125.805389,103.343620 
	C126.380966,101.912804 125.914406,100.086075 126.026840,98.441040 
	C126.303406,94.394432 124.654198,92.732635 120.457832,93.136024 
	C117.895821,93.382294 115.251892,92.776291 112.314789,92.397095 
	C115.949226,92.160416 119.913559,92.075806 123.878120,92.003967 
	C124.372406,91.995018 124.975830,91.878639 125.346657,92.107269 
	C130.795700,95.466820 126.922592,100.748116 127.902573,105.051117 
	C128.487595,107.619865 126.996475,109.034515 124.224899,108.999245 
	C119.446297,108.938446 114.666374,108.982407 109.367928,108.982407 
	C109.367928,103.305412 109.367928,97.948334 109.755676,92.418983 
z"/>
<path fill="#1A5E88" opacity="1.000000" stroke="none" 
	d="
M93.605827,72.163918 
	C89.517639,74.121742 86.992310,81.358864 89.627625,85.329964 
	C90.158401,86.129776 91.496826,86.750969 92.501625,86.811508 
	C95.455086,86.989456 98.445869,87.023766 101.384155,86.732338 
	C102.484627,86.623184 104.293350,85.557922 104.388031,84.762909 
	C104.880196,80.630402 106.621414,76.164841 102.258713,72.477898 
	C105.668854,71.453506 107.113274,72.917435 107.048996,76.691483 
	C106.797920,91.433220 108.645241,88.728798 95.141602,88.995407 
	C93.025452,89.037193 90.907776,89.001259 88.395752,89.001259 
	C88.395752,83.280479 88.395752,78.075844 88.395752,72.344124 
	C90.014214,72.256149 91.594879,72.170227 93.605827,72.163918 
z"/>
<path fill="#185F88" opacity="1.000000" stroke="none" 
	d="
M109.111679,84.404388 
	C111.803345,86.994263 122.331848,88.653915 124.249565,85.697350 
	C125.824837,83.268730 125.930595,79.529068 125.695595,76.446129 
	C125.589706,75.056999 123.068916,73.851944 121.311172,72.407471 
	C123.088295,72.251564 125.198067,72.251564 127.981178,72.251564 
	C127.981178,76.806244 128.330429,81.110191 127.782883,85.296844 
	C127.602631,86.675102 125.224274,88.560150 123.638077,88.798943 
	C120.068970,89.336250 116.356232,88.822357 112.721680,89.050545 
	C109.406776,89.258675 108.703087,87.596046 109.111679,84.404388 
z"/>
<path fill="#1E5E85" opacity="1.000000" stroke="none" 
	d="
M77.431107,108.894699 
	C83.150284,107.078644 83.380867,102.392914 82.986404,97.198067 
	C82.763611,94.264061 81.458656,93.000885 78.612236,93.048752 
	C74.791672,93.113007 70.970284,93.129013 66.697388,93.207687 
	C71.862488,92.902023 77.477531,92.505508 83.099487,92.285843 
	C83.635124,92.264908 84.684433,93.338593 84.697914,93.922508 
	C84.801010,98.388008 85.079308,102.919212 84.365158,107.276253 
	C84.218445,108.171341 80.131973,108.420677 77.431107,108.894699 
z"/>
<path fill="#1E5E85" opacity="1.000000" stroke="none" 
	d="
M88.170303,94.010078 
	C88.554665,93.384323 88.923859,92.225288 89.325691,92.213860 
	C94.303604,92.072258 99.289459,92.002563 104.264740,92.169098 
	C105.148880,92.198692 106.756050,93.413086 106.736389,94.039825 
	C106.584267,98.889473 106.114220,103.729141 105.355347,108.377380 
	C104.948929,107.754105 104.929825,107.325356 104.927116,106.442345 
	C104.939209,103.037552 105.293259,100.023125 104.783157,97.162788 
	C104.518318,95.677757 102.778831,93.381645 101.613525,93.324409 
	C97.432281,93.119019 93.211807,93.712433 88.797188,94.005119 
	C88.588219,94.006363 88.170303,94.010078 88.170303,94.010078 
z"/>
<path fill="#14608E" opacity="1.000000" stroke="none" 
	d="
M88.109863,94.472519 
	C88.170303,94.010078 88.588219,94.006363 88.801208,94.467987 
	C89.019882,97.085968 89.157562,99.251854 89.002731,101.396614 
	C88.713470,105.403427 90.330154,107.263542 94.464539,107.025795 
	C97.937584,106.826065 101.427994,106.928139 104.910713,106.896606 
	C104.929825,107.325356 104.948929,107.754105 104.980209,108.504501 
	C99.599579,108.826157 94.206779,108.826157 88.049416,108.826157 
	C88.049416,104.004990 88.049416,99.469978 88.109863,94.472519 
z"/>
<path fill="#21658E" opacity="1.000000" stroke="none" 
	d="
M178.282074,123.808807 
	C177.962326,119.440613 179.821030,117.111664 184.770691,116.826828 
	C188.663162,116.602829 192.484497,115.142334 196.709167,114.151337 
	C194.923294,118.298782 190.801529,118.164352 186.979065,118.484070 
	C183.250763,118.795898 179.728073,119.200485 178.282074,123.808807 
z"/>
<path fill="#16628B" opacity="1.000000" stroke="none" 
	d="
M126.328110,67.689987 
	C125.949776,62.859413 125.950699,57.909599 125.947678,52.498070 
	C126.475426,52.103554 127.474396,52.189648 127.472549,52.235287 
	C127.265862,57.349056 126.984528,62.459820 126.328110,67.689987 
z"/>
<path fill="#16628B" opacity="1.000000" stroke="none" 
	d="
M118.563400,52.146645 
	C110.020103,54.428452 110.020187,54.428452 109.975380,64.226288 
	C109.972366,64.885574 109.966476,65.544838 109.956551,66.680023 
	C109.512993,62.383457 109.074814,57.610992 108.565887,52.068043 
	C112.327423,52.068043 115.219620,52.068043 118.563400,52.146645 
z"/>
<path fill="#16628B" opacity="1.000000" stroke="none" 
	d="
M162.590637,90.239761 
	C162.861420,93.175278 162.806702,96.373199 162.463776,99.790642 
	C162.205429,96.840828 162.235275,93.671501 162.590637,90.239761 
z"/>
<path fill="#1E5E85" opacity="1.000000" stroke="none" 
	d="
M66.126656,95.385986 
	C66.742668,99.290291 67.287369,103.661751 67.926224,108.423782 
	C67.350624,107.966858 66.157669,107.151360 66.103531,106.266205 
	C65.891983,102.807137 66.040604,99.326042 66.126656,95.385986 
z"/>
<path fill="#185F88" opacity="1.000000" stroke="none" 
	d="
M109.783661,72.413399 
	C109.941986,74.934944 109.718796,77.611946 109.344246,80.648254 
	C109.262642,78.194664 109.332390,75.381760 109.783661,72.413399 
z"/>
<path fill="#16628B" opacity="1.000000" stroke="none" 
	d="
M171.869659,78.687592 
	C170.662842,79.034386 169.317871,79.065422 167.571838,79.133972 
	C168.235718,76.308151 169.816284,76.385612 171.869659,78.687592 
z"/>
<path fill="#16628B" opacity="1.000000" stroke="none" 
	d="
M164.680878,84.062729 
	C164.571640,85.163162 164.149734,86.429359 163.458267,87.904846 
	C163.581863,86.818932 163.975021,85.523712 164.680878,84.062729 
z"/>
<path fill="#16628B" opacity="1.000000" stroke="none" 
	d="
M181.000854,88.659042 
	C180.377075,88.201088 179.724548,87.418953 179.034058,86.313622 
	C179.654770,86.771912 180.313431,87.553391 181.000854,88.659042 
z"/>
<path fill="#21658E" opacity="1.000000" stroke="none" 
	d="
M176.996887,126.782440 
	C177.059601,126.125252 177.259155,125.157280 177.722672,124.085083 
	C177.702316,124.811127 177.418015,125.641388 176.996887,126.782440 
z"/>
<path fill="#16628B" opacity="1.000000" stroke="none" 
	d="
M172.922607,79.764709 
	C172.724640,79.846184 172.477142,79.642075 172.131775,79.191681 
	C172.275177,79.169922 172.554916,79.347832 172.922607,79.764709 
z"/>
<path fill="#175C87" opacity="1.000000" stroke="none" 
	d="
M31.169201,127.236435 
	C31.397751,127.218376 31.446133,127.485786 31.294281,127.899414 
	C31.187531,127.847618 31.152527,127.673042 31.169201,127.236435 
z"/>
<path fill="#16628B" opacity="1.000000" stroke="none" 
	d="
M123.770866,52.188637 
	C124.039253,52.245213 123.643677,52.407131 123.643677,52.407131 
	C123.643677,52.407131 123.217590,52.379669 123.090973,52.309113 
	C123.143738,52.203060 123.323112,52.167561 123.770866,52.188637 
z"/>
<path fill="#185F88" opacity="1.000000" stroke="none" 
	d="
M112.779854,72.194366 
	C113.054329,72.243973 112.657043,72.423897 112.657043,72.423897 
	C112.657043,72.423897 112.221169,72.408859 112.091232,72.338394 
	C112.142654,72.226868 112.324020,72.185822 112.779854,72.194366 
z"/>
<path fill="#185F88" opacity="1.000000" stroke="none" 
	d="
M117.779968,72.203384 
	C118.052773,72.257095 117.652031,72.429665 117.652031,72.429665 
	C117.652031,72.429665 117.216660,72.402321 117.088753,72.327850 
	C117.142960,72.218803 117.325066,72.184242 117.779968,72.203384 
z"/>
<path fill="#16628B" opacity="1.000000" stroke="none" 
	d="
M166.767212,80.041656 
	C166.899841,80.229111 166.750748,80.485359 166.390564,80.869461 
	C166.334015,80.732246 166.436020,80.436630 166.767212,80.041656 
z"/>
<path fill="#16628B" opacity="1.000000" stroke="none" 
	d="
M173.939896,80.765900 
	C173.743851,80.848793 173.490341,80.644829 173.136200,80.190514 
	C173.278381,80.168884 173.560654,80.348511 173.939896,80.765900 
z"/>
<path fill="#16628B" opacity="1.000000" stroke="none" 
	d="
M165.740234,82.011024 
	C165.874939,82.197495 165.726562,82.454460 165.382568,82.851242 
	C165.322708,82.714264 165.412781,82.411079 165.740234,82.011024 
z"/>
<path fill="#13648F" opacity="1.000000" stroke="none" 
	d="
M132.744644,92.166504 
	C132.781891,92.372574 132.557114,92.559776 132.126709,92.836441 
	C131.993423,92.590569 132.180618,92.331139 132.744644,92.166504 
z"/>
<path fill="#16628B" opacity="1.000000" stroke="none" 
	d="
M177.960907,84.741257 
	C177.801010,84.768448 177.548340,84.549103 177.155151,84.120636 
	C177.299149,84.105911 177.583633,84.300308 177.960907,84.741257 
z"/>
<path fill="#16628B" opacity="1.000000" stroke="none" 
	d="
M178.933533,85.756653 
	C178.729752,85.829132 178.488037,85.611931 178.147583,85.150070 
	C178.294830,85.132957 178.577087,85.320137 178.933533,85.756653 
z"/>
<path fill="#16628B" opacity="1.000000" stroke="none" 
	d="
M181.771851,89.797943 
	C181.537018,89.851547 181.348770,89.626465 181.105225,89.170967 
	C181.373688,89.026222 181.629852,89.219124 181.771851,89.797943 
z"/>
<path fill="#076DA3" opacity="1.000000" stroke="none" 
	d="
M59.932396,105.981239 
	C56.507851,106.520721 53.352341,107.146606 50.286644,106.848579 
	C48.587708,106.683418 45.723801,105.040611 45.668026,103.947372 
	C45.497833,100.611107 43.434479,95.912231 48.155014,94.345284 
	C51.454182,93.250145 55.331787,93.704727 58.931892,93.874069 
	C59.639771,93.907364 60.794956,95.791313 60.818584,96.842537 
	C60.884678,99.783119 60.466194,102.734596 59.932396,105.981239 
z"/>
<path fill="#086DA3" opacity="1.000000" stroke="none" 
	d="
M82.631195,84.344826 
	C80.113991,86.800629 69.905609,88.382278 68.813858,86.264000 
	C67.373497,83.469322 67.179825,79.760574 67.411774,76.513466 
	C67.500542,75.270615 70.151680,73.390633 71.789536,73.211365 
	C82.628304,72.025078 83.515831,73.013885 82.631195,84.344826 
z"/>
<path fill="#076DA3" opacity="1.000000" stroke="none" 
	d="
M104.927116,106.442337 
	C101.427994,106.928139 97.937584,106.826065 94.464539,107.025795 
	C90.330154,107.263542 88.713470,105.403427 89.002731,101.396614 
	C89.157562,99.251854 89.019882,97.085968 89.010178,94.466751 
	C93.211807,93.712433 97.432281,93.119019 101.613525,93.324409 
	C102.778831,93.381645 104.518318,95.677757 104.783157,97.162788 
	C105.293259,100.023125 104.939209,103.037552 104.927116,106.442337 
z"/>
</svg>