<svg version="1.1" id="Layer_1" xmlns="http://www.w3.org/2000/svg" xmlns:xlink="http://www.w3.org/1999/xlink" x="0px" y="0px"
	 width="100%" viewBox="0 0 225 225" enable-background="new 0 0 225 225" xml:space="preserve">
<path fill="#000000" opacity="1.000000" stroke="none" 
	d="
M130.000000,226.000000 
	C86.666672,226.000000 43.833340,226.000000 1.000006,226.000000 
	C1.000004,151.000000 1.000004,76.000015 1.000002,1.000016 
	C75.999992,1.000010 150.999985,1.000010 225.999969,1.000005 
	C225.999985,75.999985 225.999985,150.999969 226.000000,225.999969 
	C194.166672,226.000000 162.333328,226.000000 130.000000,226.000000 
M164.814117,68.838898 
	C164.814117,68.838898 164.675262,68.784576 165.288986,68.738106 
	C165.851334,68.493011 166.413666,68.247910 167.020889,68.718872 
	C167.422897,69.072563 168.100250,69.788895 168.184891,69.724625 
	C169.182220,68.967300 170.090836,68.093109 171.792587,67.582130 
	C172.780411,66.424805 173.768219,65.267487 174.756042,64.110168 
	C173.641861,63.752098 172.527679,63.394024 171.174774,62.756817 
	C171.174774,62.756817 171.167740,62.389587 171.487869,61.663799 
	C170.736374,61.215446 169.984863,60.767090 168.834747,60.695370 
	C168.567886,61.351788 168.301041,62.008209 167.039200,62.991123 
	C166.709366,60.661980 166.379547,58.332840 166.523010,55.957977 
	C166.761414,55.793919 166.999802,55.629856 167.238205,55.465794 
	C166.824783,55.310856 166.411362,55.155918 165.795227,54.386597 
	C165.755600,53.958443 165.715988,53.530289 166.254501,52.781582 
	C166.505066,52.189316 166.755615,51.597046 167.271225,50.898300 
	C167.179199,50.930126 167.087173,50.961956 166.477997,50.532810 
	C166.474014,49.254559 166.689041,47.928135 166.420715,46.708019 
	C165.851562,44.120098 166.124573,40.663750 161.908966,41.081596 
	C161.908966,41.081596 161.840759,41.206894 161.783630,40.720058 
	C161.656677,40.402985 161.443100,40.163006 160.773071,39.465218 
	C160.169876,38.340778 159.566666,37.216339 158.857666,35.642086 
	C158.717667,35.351357 158.500198,35.140503 157.752731,34.484985 
	C156.755905,32.529556 155.759094,30.574123 154.135544,27.389254 
	C152.782959,28.879087 151.402847,30.399237 149.350616,32.117222 
	C148.192123,34.069115 147.033630,36.021008 145.410706,38.091026 
	C145.117538,38.278954 144.962784,38.546841 144.341080,39.109825 
	C143.014023,40.120583 141.686966,41.131340 139.730743,42.117638 
	C139.521820,42.757782 139.312897,43.397926 138.815506,44.693787 
	C137.849609,46.283215 136.883728,47.872643 135.964294,49.407375 
	C135.964294,49.407375 135.949997,49.337051 135.385666,49.791229 
	C133.587875,51.975300 131.888412,54.253036 129.942307,56.295818 
	C129.197937,57.077179 127.889435,57.321125 126.085144,57.359268 
	C127.912697,54.724667 129.740250,52.090061 131.685120,49.286331 
	C130.924515,49.149178 130.474808,49.039204 130.018555,48.989967 
	C109.360977,46.760700 89.045006,48.630489 68.590530,53.557709 
	C67.777832,54.170433 66.965134,54.783157 65.677086,55.883038 
	C62.551983,57.869614 59.426880,59.856190 56.025372,61.186520 
	C54.453651,61.480515 52.881935,61.774513 50.383999,62.241764 
	C52.935394,64.426773 54.447960,65.722137 56.009323,67.021355 
	C56.009323,67.021355 55.973495,67.054733 55.966965,67.816353 
	C56.891727,69.597580 57.414852,71.857086 58.834381,73.049118 
	C61.021572,74.885780 61.508186,76.508766 59.498489,78.930176 
	C59.328918,78.892189 59.159348,78.854210 58.675343,78.224113 
	C58.206890,77.234261 57.738438,76.244408 57.247616,75.207291 
	C53.223686,78.197495 53.213802,79.693069 57.342461,83.028610 
	C57.342461,83.028610 57.710052,83.024750 57.946590,83.740685 
	C57.934067,84.491081 57.921547,85.241478 57.218761,86.014130 
	C53.491623,88.287140 55.821827,89.634338 58.374996,91.022964 
	C58.374996,91.022964 58.768322,91.020500 58.954227,91.830978 
	C58.988285,93.213745 59.022346,94.596512 58.549099,96.466812 
	C59.270039,99.652412 59.990978,102.838013 60.928146,106.830872 
	C60.958729,108.218010 60.989311,109.605141 60.537823,111.374969 
	C60.942516,112.256447 61.347210,113.137924 61.953705,114.797951 
	C61.968754,115.866302 61.983803,116.934662 61.518139,118.388916 
	C61.938080,119.590126 62.358025,120.791328 62.941490,122.781624 
	C62.967747,123.851944 62.994003,124.922264 62.470707,126.535690 
	C63.229034,130.018311 63.987358,133.500916 64.951668,137.769028 
	C64.961502,138.848129 64.971329,139.927216 64.488556,141.448074 
	C64.915817,142.638733 65.343086,143.829376 65.942307,145.749100 
	C65.923531,146.497192 65.904762,147.245285 65.249001,148.124908 
	C62.645409,150.614029 64.726738,151.305328 66.946419,152.800751 
	C66.953629,153.870834 66.960846,154.940903 66.456909,156.499588 
	C66.306488,157.667007 66.156067,158.834412 65.279945,160.100967 
	C64.617065,161.552032 63.326218,163.035324 63.398727,164.448685 
	C63.733524,170.974655 64.447746,177.481171 65.044601,184.587860 
	C65.352654,185.063232 65.660713,185.538605 66.006027,186.747437 
	C66.342468,187.470688 66.508507,188.367432 67.041351,188.890717 
	C73.357178,195.093369 81.747795,197.021790 89.852905,198.762665 
	C95.154472,199.901382 100.888664,199.616455 106.536499,199.187149 
	C114.991104,198.544479 123.540222,199.195374 132.048981,199.182266 
	C134.360626,199.178696 136.698532,198.423843 138.978104,198.602966 
	C147.224106,199.250931 152.359955,192.634750 159.225311,190.083237 
	C160.258240,189.699341 160.990677,187.693710 161.295670,186.313110 
	C162.305908,181.740311 163.106918,177.118759 163.891647,172.499512 
	C164.507462,168.874603 163.423950,166.555267 159.022141,166.281845 
	C158.949417,166.050522 158.876694,165.819199 158.723495,164.888672 
	C158.803574,163.955444 158.883667,163.022232 158.986252,161.500366 
	C158.978516,161.304153 158.970795,161.107956 159.003601,160.460175 
	C159.003601,160.460175 158.990982,160.006927 159.588013,159.523926 
	C159.983871,156.495300 160.379730,153.466690 160.664368,149.661285 
	C160.854156,148.101303 161.043961,146.541321 161.815582,144.576660 
	C163.694794,141.213867 165.229462,137.813110 162.856613,133.201279 
	C162.966736,132.137466 163.076859,131.073669 163.885422,129.890823 
	C169.629364,126.768066 165.739563,122.726372 164.813324,118.145912 
	C164.958267,116.757462 165.103226,115.369019 165.733276,113.671310 
	C165.809265,112.776161 165.885269,111.881012 165.823502,110.241943 
	C165.938766,109.497963 166.054031,108.753975 166.842621,107.832489 
	C166.888031,106.219521 166.933441,104.606552 166.860382,102.167267 
	C167.114349,99.450378 167.368332,96.733490 167.910660,93.525581 
	C167.990433,93.353348 168.070206,93.181122 168.869263,92.798401 
	C169.461777,91.165680 170.054276,89.532959 170.784561,87.520576 
	C177.121826,87.585129 174.516510,81.821442 175.828430,78.454788 
	C176.044434,77.900482 174.553238,76.680908 173.434509,75.227783 
	C172.834000,78.472000 172.434753,80.628998 171.940689,83.298111 
	C170.200714,81.661926 169.305023,80.819679 168.108154,79.556755 
	C168.061935,79.390602 168.015701,79.224449 168.445984,78.505661 
	C169.185211,76.980377 169.924438,75.455086 170.663666,73.929794 
	C169.090790,74.137589 167.350204,73.991310 165.985138,74.637856 
	C164.037277,75.560432 162.319336,77.513184 161.498901,73.621658 
	C162.385315,72.414009 163.271729,71.206352 164.527740,69.665619 
	C164.749680,69.382820 164.815353,69.067451 164.814117,68.838898 
M175.720734,71.528564 
	C175.988266,71.274071 176.255798,71.019569 176.523331,70.765068 
	C176.417908,70.654312 176.312485,70.543564 176.207062,70.432808 
	C175.939545,70.687576 175.672028,70.942345 175.720734,71.528564 
M56.525223,115.605415 
	C56.467819,115.830086 56.410412,116.054749 56.353008,116.279419 
	C56.495628,116.134415 56.638248,115.989418 56.525223,115.605415 
M76.197342,46.240520 
	C76.029198,46.366032 75.861046,46.491543 75.692894,46.617046 
	C75.927094,46.589970 76.161301,46.562893 76.197342,46.240520 
M53.764072,92.817833 
	C53.591007,92.874954 53.417942,92.932068 53.244873,92.989174 
	C53.418938,93.044495 53.593002,93.099815 53.764072,92.817833 
M81.188774,45.254009 
	C81.028481,45.372532 80.868187,45.491051 80.707893,45.609570 
	C80.930389,45.584858 81.152878,45.560146 81.188774,45.254009 
M50.235447,70.178658 
	C50.409206,70.121414 50.582962,70.064171 50.756721,70.006927 
	C50.582111,69.951332 50.407501,69.895737 50.235447,70.178658 
M162.482635,37.585808 
	C162.482635,37.585808 162.418716,37.477798 162.482635,37.585808 
z"/>
<path fill="#62DFEB" opacity="1.000000" stroke="none" 
	d="
M165.248169,113.980568 
	C165.103226,115.369019 164.958267,116.757462 164.651886,118.885178 
	C164.055969,123.086243 163.621475,126.548050 163.186966,130.009857 
	C163.076859,131.073669 162.966736,132.137466 162.718338,133.935577 
	C162.131302,138.107025 161.682526,141.544174 161.233765,144.981339 
	C161.043961,146.541321 160.854156,148.101303 160.466797,150.359283 
	C159.843140,154.040497 159.417053,157.023712 158.990982,160.006927 
	C158.990982,160.006927 159.003601,160.460175 158.724426,160.769821 
	C158.618088,161.415985 158.790924,161.752487 158.963745,162.089005 
	C158.883667,163.022232 158.803574,163.955444 158.523773,165.542862 
	C157.991547,168.141846 157.659058,170.086639 157.335312,172.366180 
	C157.375977,173.145752 157.407898,173.590576 157.294113,174.258224 
	C157.103287,174.652740 157.058167,174.824402 157.007019,174.996185 
	C157.000977,174.996323 156.999817,175.006165 156.735992,175.047867 
	C156.637894,175.415909 156.803619,175.742233 156.984070,176.436401 
	C157.003769,177.537247 157.008728,178.270264 156.854980,179.334778 
	C155.452957,182.435074 154.209656,185.203842 152.980835,187.987579 
	C152.995331,188.002533 152.976776,187.967621 152.617737,188.024902 
	C148.413406,189.680222 144.568100,191.278275 140.376709,192.860107 
	C139.352768,192.970337 138.674896,193.096756 137.673004,193.189362 
	C136.569397,193.447037 135.789810,193.738510 134.676575,194.028748 
	C133.902588,194.078934 133.462219,194.130386 132.655853,194.115265 
	C130.862442,194.373703 129.435028,194.698730 127.591614,194.965637 
	C125.781624,195.006897 124.387650,195.106247 122.664215,195.134033 
	C121.901962,195.159821 121.469170,195.257172 120.570602,195.315155 
	C115.723297,195.326141 111.341774,195.376526 106.651497,195.300903 
	C105.901657,195.197449 105.460571,195.220016 104.597580,195.149017 
	C102.449554,195.040787 100.723450,195.026123 98.667130,194.858215 
	C96.887222,194.523895 95.437531,194.342834 93.660370,194.076660 
	C92.884232,194.004059 92.435562,194.016586 91.719261,193.862076 
	C90.637482,193.536255 89.823334,193.377457 88.678864,193.113770 
	C87.658730,192.963974 86.968910,192.919052 86.132904,192.667114 
	C85.663086,192.406204 85.339455,192.352310 84.670280,192.157257 
	C82.890511,191.674698 81.456284,191.333313 79.913269,190.807831 
	C79.588150,190.396423 79.326248,190.314102 78.774750,190.211823 
	C78.145821,189.978821 77.760933,189.910797 77.183395,189.554306 
	C75.378471,188.382095 73.766205,187.498352 72.093384,186.409256 
	C72.032829,186.203918 71.671188,185.974701 71.661133,185.760117 
	C71.507584,185.277191 71.289642,185.100784 70.998215,184.672028 
	C70.920708,183.878677 70.842247,183.429611 70.799530,182.638809 
	C70.542976,181.203369 70.250687,180.109695 70.011841,178.679794 
	C69.987885,177.899063 69.910500,177.454559 69.901428,176.641937 
	C69.686256,175.085220 69.402763,173.896606 69.158424,172.313751 
	C69.059982,170.608505 68.922394,169.297501 68.833954,167.640106 
	C68.581841,166.209854 68.280571,165.125977 67.980721,163.701569 
	C67.929497,162.911530 67.876839,162.462021 67.902496,161.629028 
	C67.643219,159.500702 67.305634,157.755844 66.968063,156.010986 
	C66.960846,154.940903 66.953629,153.870834 66.876602,152.063721 
	C66.499847,150.215591 66.192917,149.104477 65.885986,147.993378 
	C65.904762,147.245285 65.923531,146.497192 65.912445,145.039780 
	C65.582108,143.222412 65.281631,142.114365 64.981155,141.006317 
	C64.971329,139.927216 64.961502,138.848129 64.881546,136.968719 
	C64.214378,132.776474 63.617317,129.384521 63.020256,125.992584 
	C62.994003,124.922264 62.967747,123.851944 62.917389,122.044418 
	C62.595139,120.205811 62.296997,119.104416 61.998852,118.003014 
	C61.983803,116.934662 61.968754,115.866302 61.905552,114.091805 
	C61.578228,112.587868 61.299057,111.790070 61.019890,110.992279 
	C60.989311,109.605141 60.958729,108.218010 60.853233,106.020767 
	C60.451515,102.258614 60.124714,99.306580 59.876244,96.074265 
	C60.259525,95.540512 60.743118,95.008331 60.844112,95.073074 
	C74.568008,103.869507 90.268959,104.841805 105.770111,105.825752 
	C115.165703,106.422150 124.759476,106.024132 134.100662,104.812233 
	C145.821655,103.291588 157.728958,101.560226 167.622299,94.016602 
	C167.368332,96.733490 167.114349,99.450378 166.739777,102.900162 
	C166.469208,105.092026 166.319244,106.551010 166.169281,108.009987 
	C166.054031,108.753975 165.938766,109.497963 165.718719,110.878174 
	C165.492020,112.336464 165.370087,113.158516 165.248169,113.980568 
M127.688354,129.302689 
	C127.488403,129.618378 127.288452,129.934082 126.844597,130.892822 
	C126.229019,131.872360 125.499947,132.799255 125.016891,133.840302 
	C122.491104,139.283737 123.817223,145.978806 128.112595,149.794067 
	C132.532181,153.719650 139.326477,154.267212 144.300232,151.098679 
	C149.219696,147.964722 151.662918,141.580765 149.974716,135.836899 
	C148.361069,130.346603 144.211105,127.593628 138.737991,125.530663 
	C137.497055,125.716782 136.256119,125.902908 134.584030,126.315224 
	C134.584030,126.315224 134.097153,126.316544 133.783005,125.635223 
	C131.818848,124.853844 129.854691,124.072472 128.163544,123.399704 
	C128.163544,125.701279 128.163544,127.460747 128.118317,129.117340 
	C128.118317,129.117340 128.230408,129.109283 127.688354,129.302689 
M128.317642,161.185715 
	C128.637802,161.096313 129.005814,161.075333 129.262817,160.895599 
	C129.464020,160.754944 129.527679,160.417572 130.019241,159.432724 
	C127.862816,160.075409 126.267395,160.712189 124.611565,160.994263 
	C123.241982,161.227570 121.801041,161.041962 119.447533,161.041962 
	C125.175720,156.148727 125.594406,155.276154 123.765869,153.233368 
	C120.966751,150.106293 115.925034,150.762680 111.740341,155.065765 
	C113.239143,156.709305 114.754005,158.370468 116.268867,160.031616 
	C116.083817,160.417725 115.898766,160.803848 115.713722,161.189972 
	C113.065353,160.558792 110.416992,159.927628 108.264893,159.414734 
	C110.081154,161.834686 112.495308,164.147095 113.724762,166.974609 
	C114.714035,169.249725 114.470276,171.920593 117.915283,172.101013 
	C121.306938,172.278687 122.256279,170.126740 123.391861,167.454941 
	C124.309006,165.297043 126.320305,163.604202 128.317642,161.185715 
M91.877678,156.751205 
	C97.958710,157.091949 102.585793,154.741928 105.288612,149.197113 
	C107.681465,144.288193 107.249847,139.486359 103.924515,135.130402 
	C100.257545,130.326889 94.425323,128.719940 88.759941,130.744797 
	C83.121735,132.759933 79.768593,137.719070 79.941956,143.786148 
	C80.123863,150.152145 83.929398,154.522980 91.877678,156.751205 
M104.798828,157.242035 
	C105.140800,157.145172 105.508934,157.092911 105.805656,156.918884 
	C105.876480,156.877335 105.708977,156.429459 105.651093,156.168488 
	C105.187431,156.329498 104.723778,156.490509 104.798828,157.242035 
z"/>
<path fill="#55CEE1" opacity="1.000000" stroke="none" 
	d="
M167.766479,93.771088 
	C157.728958,101.560226 145.821655,103.291588 134.100662,104.812233 
	C124.759476,106.024132 115.165703,106.422150 105.770111,105.825752 
	C90.268959,104.841805 74.568008,103.869507 60.844112,95.073074 
	C60.743118,95.008331 60.259525,95.540512 59.689602,95.982994 
	C59.424625,96.172005 59.056404,95.979279 59.056404,95.979279 
	C59.022346,94.596512 58.988285,93.213745 58.903412,91.113792 
	C58.650139,90.044334 58.447685,89.692055 58.334595,89.007385 
	C58.252319,87.780609 58.080673,86.886246 57.909027,85.991875 
	C57.921547,85.241478 57.934067,84.491081 57.855473,83.110847 
	C57.563004,82.189339 57.361656,81.897667 57.270081,81.335228 
	C57.916496,80.315048 58.453140,79.565636 58.989784,78.816223 
	C59.159348,78.854210 59.328918,78.892189 60.162918,78.961929 
	C62.138470,79.087990 63.477039,79.044106 64.756424,79.298218 
	C76.040985,81.539482 87.320236,83.808723 98.582588,86.158218 
	C99.517075,86.353172 100.316208,87.196945 101.138474,88.103333 
	C105.694756,91.470177 109.983421,95.180397 114.947105,97.336960 
	C127.515556,102.797546 143.174698,99.847290 151.425400,91.171440 
	C155.139938,87.383797 158.513657,83.678230 162.134674,79.726334 
	C164.244476,79.339447 166.106979,79.198875 167.969482,79.058304 
	C168.015701,79.224449 168.061935,79.390602 168.516205,80.087440 
	C168.666168,84.748383 168.408066,88.878632 168.149979,93.008888 
	C168.070206,93.181122 167.990433,93.353348 167.766479,93.771088 
z"/>
<path fill="#DDF6F9" opacity="1.000000" stroke="none" 
	d="
M69.028694,54.083862 
	C89.045006,48.630489 109.360977,46.760700 130.018555,48.989967 
	C130.474808,49.039204 130.924515,49.149178 131.685120,49.286331 
	C129.740250,52.090061 127.912697,54.724667 126.464203,57.630226 
	C126.843269,57.901180 126.929535,57.934990 126.706894,57.555927 
	C123.322723,60.784550 120.161194,64.392235 116.720520,68.154236 
	C115.837364,68.884201 115.233360,69.459839 114.192093,69.958496 
	C101.844391,70.989601 89.925598,72.020386 78.033958,73.302841 
	C76.533813,73.464622 75.176323,74.949127 73.388672,75.815575 
	C67.340904,72.891815 61.657196,69.973274 55.973495,67.054733 
	C55.973495,67.054733 56.009323,67.021355 55.982143,66.712334 
	C56.070568,64.883133 56.186172,63.362946 56.301777,61.842766 
	C59.426880,59.856190 62.551983,57.869614 66.232742,55.560291 
	C67.535156,54.852985 68.281929,54.468426 69.028694,54.083862 
z"/>
<path fill="#060909" opacity="1.000000" stroke="none" 
	d="
M114.629349,70.035477 
	C115.233360,69.459839 115.837364,68.884201 116.773232,68.476067 
	C117.493172,69.131821 117.881241,69.620071 118.160156,70.411293 
	C117.605721,71.440132 117.160439,72.166000 116.430588,73.055573 
	C114.143936,75.644020 112.141861,78.068771 109.701103,81.024834 
	C111.733612,80.924774 112.871132,80.868782 114.463333,80.896667 
	C118.619026,80.844559 122.320061,80.708572 126.381622,80.640808 
	C128.177643,80.457718 129.613129,80.206398 131.478149,80.002853 
	C136.038635,79.371010 140.169586,78.691399 144.692123,78.026306 
	C149.373016,76.915741 153.662308,75.790649 158.267548,74.654236 
	C159.390213,74.447166 160.196899,74.251419 161.003601,74.055672 
	C162.319336,77.513184 164.037277,75.560432 165.985138,74.637856 
	C167.350204,73.991310 169.090790,74.137589 170.663666,73.929794 
	C169.924438,75.455086 169.185211,76.980377 168.207733,78.781982 
	C166.106979,79.198875 164.244476,79.339447 161.760742,79.736771 
	C159.971573,80.396500 158.803635,80.799469 157.361481,81.205017 
	C156.707397,81.457573 156.327515,81.707535 155.972397,81.978340 
	C155.997162,81.999184 155.971634,81.939713 155.603271,81.880188 
	C153.147766,82.300476 151.060623,82.780296 148.532318,83.312973 
	C141.441971,84.279381 134.789215,85.167786 128.145004,86.116234 
	C124.368256,86.655357 120.605537,87.292709 116.479874,87.895370 
	C115.417213,87.978348 114.711166,88.051781 113.560303,88.037804 
	C110.395859,87.984222 107.676239,88.018044 104.582382,87.988083 
	C103.198166,87.862617 102.188194,87.800941 101.178223,87.739265 
	C100.316208,87.196945 99.517075,86.353172 98.582588,86.158218 
	C87.320236,83.808723 76.040985,81.539482 64.756424,79.298218 
	C63.477039,79.044106 62.138470,79.087990 60.418530,78.910889 
	C61.508186,76.508766 61.021572,74.885780 58.834381,73.049118 
	C57.414852,71.857086 56.891727,69.597580 55.970230,67.435547 
	C61.657196,69.973274 67.340904,72.891815 73.650208,76.131165 
	C83.530701,77.927742 92.770012,79.518883 102.054855,80.772781 
	C103.723068,80.998070 106.104713,80.354080 107.243874,79.205688 
	C109.993164,76.434113 112.202362,73.126778 114.629349,70.035477 
z"/>
<path fill="#020202" opacity="1.000000" stroke="none" 
	d="
M133.021851,194.181824 
	C133.462219,194.130386 133.902588,194.078934 134.845123,194.244598 
	C136.230545,194.048859 137.113785,193.636017 137.997040,193.223175 
	C138.674896,193.096756 139.352768,192.970337 140.811005,192.912292 
	C145.762756,192.164139 150.831879,193.386581 152.976776,187.967621 
	C152.976776,187.967621 152.995331,188.002533 153.364899,188.002014 
	C158.366058,186.291641 158.560638,182.964783 157.013702,179.003265 
	C157.008728,178.270264 157.003769,177.537247 157.001968,176.171051 
	C157.003357,175.360641 157.001587,175.183411 156.999817,175.006165 
	C156.999817,175.006165 157.000977,174.996323 157.183441,174.959717 
	C157.453186,174.841812 157.619995,174.752670 157.612869,174.680695 
	C157.591293,174.462021 157.502441,174.250000 157.439804,174.035385 
	C157.407898,173.590576 157.375977,173.145752 157.671707,172.251801 
	C158.398163,170.197845 158.796967,168.593063 159.195770,166.988266 
	C163.423950,166.555267 164.507462,168.874603 163.891647,172.499512 
	C163.106918,177.118759 162.305908,181.740311 161.295670,186.313110 
	C160.990677,187.693710 160.258240,189.699341 159.225311,190.083237 
	C152.359955,192.634750 147.224106,199.250931 138.978104,198.602966 
	C136.698532,198.423843 134.360626,199.178696 132.048981,199.182266 
	C123.540222,199.195374 114.991104,198.544479 106.536499,199.187149 
	C100.888664,199.616455 95.154472,199.901382 89.852905,198.762665 
	C81.747795,197.021790 73.357178,195.093369 67.041351,188.890717 
	C66.508507,188.367432 66.342468,187.470688 65.977409,186.084061 
	C65.641182,184.945343 65.333580,184.470001 65.025978,183.994659 
	C64.447746,177.481171 63.733524,170.974655 63.398727,164.448685 
	C63.326218,163.035324 64.617065,161.552032 65.683029,160.353699 
	C66.665474,161.075119 67.244835,161.543823 67.824188,162.012512 
	C67.876839,162.462021 67.929497,162.911530 67.858841,163.954880 
	C68.085289,165.694656 68.435043,166.840576 68.784805,167.986511 
	C68.922394,169.297501 69.059982,170.608505 69.084106,172.655304 
	C69.258118,174.597427 69.545609,175.803741 69.833107,177.010040 
	C69.910500,177.454559 69.987885,177.899063 69.792130,178.862152 
	C69.933907,180.580673 70.348846,181.780609 70.763786,182.980560 
	C70.842247,183.429611 70.920708,183.878677 71.039017,184.875305 
	C71.195747,185.693283 71.393188,185.877228 71.671188,185.974701 
	C71.671188,185.974701 72.032829,186.203918 72.064163,186.835175 
	C72.450996,191.379959 75.380928,189.572723 77.376045,189.842773 
	C77.760933,189.910797 78.145821,189.978821 78.883224,190.394135 
	C79.457504,190.951538 79.719604,191.035049 80.022057,190.991943 
	C81.456284,191.333313 82.890511,191.674698 84.828926,192.347504 
	C85.333122,192.678940 85.783730,192.884949 85.783730,192.884949 
	C85.783730,192.884949 86.279099,192.874115 86.279099,192.874115 
	C86.968910,192.919052 87.658730,192.963974 88.821922,193.360687 
	C90.192497,193.818008 91.089699,193.923538 91.986893,194.029083 
	C92.435562,194.016586 92.884232,194.004059 93.747711,194.411896 
	C95.774132,194.891998 97.385735,194.951736 98.997345,195.011459 
	C100.723450,195.026123 102.449554,195.040787 104.738815,195.337936 
	C105.854736,195.555908 106.407501,195.491409 106.960258,195.426910 
	C111.341774,195.376526 115.723297,195.326141 120.738098,195.484940 
	C121.912155,195.531265 122.452919,195.368439 122.993683,195.205597 
	C124.387650,195.106247 125.781624,195.006897 127.835739,195.216599 
	C130.004547,195.077713 131.513199,194.629761 133.021851,194.181824 
z"/>
<path fill="#F9E9AA" opacity="1.000000" stroke="none" 
	d="
M157.951599,74.665558 
	C153.662308,75.790649 149.373016,76.915741 144.576355,77.689468 
	C140.511856,73.552345 136.954727,69.766571 133.397583,65.980804 
	C132.817749,66.138870 132.237915,66.296936 131.658096,66.455002 
	C131.454941,70.955032 131.251770,75.455055 131.048615,79.955078 
	C129.613129,80.206398 128.177643,80.457718 126.372391,80.213898 
	C126.002632,75.605331 126.002632,71.491905 126.002632,67.202698 
	C123.873230,68.662651 121.988991,69.954514 120.198822,70.897308 
	C120.778015,69.276688 121.263138,68.005127 121.798492,66.798935 
	C121.848724,66.864304 121.701370,66.790344 121.967293,66.704918 
	C122.357094,66.287514 122.480972,65.955536 122.801895,65.802650 
	C122.869873,65.859650 122.740799,65.737549 122.866661,65.582596 
	C123.182213,65.246529 123.242844,64.943314 123.309769,64.617950 
	C123.316063,64.595802 123.337730,64.555267 123.735641,64.642899 
	C127.179810,64.145554 130.226074,63.560570 133.872284,62.860374 
	C133.769409,61.946228 134.060074,60.273918 133.377594,59.250656 
	C131.197952,55.982643 133.114288,54.897385 136.033432,54.234257 
	C142.256287,53.471672 148.205017,52.541313 154.085983,51.292004 
	C154.872955,51.124825 155.859222,49.329079 155.829697,48.314362 
	C155.673523,42.947552 151.185974,38.437260 145.875153,37.972900 
	C147.033630,36.021008 148.192123,34.069115 149.971756,32.197357 
	C158.716461,41.821476 163.773560,52.363220 160.926132,65.296173 
	C160.224472,68.483109 158.958282,71.545761 157.951599,74.665558 
M152.385712,74.673630 
	C156.932190,70.775719 158.338135,65.624199 157.906830,59.931114 
	C157.828110,58.892174 156.192810,57.027550 155.501404,57.126045 
	C149.271912,58.013428 143.092712,59.253895 136.898758,60.390739 
	C136.816956,60.943058 136.735138,61.495380 136.653336,62.047699 
	C141.664902,66.259567 146.676483,70.471436 152.385712,74.673630 
z"/>
<path fill="#DDB76C" opacity="1.000000" stroke="none" 
	d="
M158.267563,74.654236 
	C158.958282,71.545761 160.224472,68.483109 160.926132,65.296173 
	C163.773560,52.363220 158.716461,41.821476 150.307816,32.098442 
	C151.402847,30.399237 152.782959,28.879087 154.135544,27.389254 
	C155.759094,30.574123 156.755905,32.529556 157.988342,34.990406 
	C158.381607,35.804722 158.628113,36.003414 158.963455,36.091904 
	C159.566666,37.216339 160.169876,38.340778 160.941833,39.994553 
	C161.353973,40.751560 161.597366,40.979225 161.840759,41.206894 
	C161.840759,41.206894 161.908966,41.081596 161.906586,41.489445 
	C163.161591,45.632240 164.418991,49.367188 165.676376,53.102135 
	C165.715988,53.530289 165.755600,53.958443 165.815979,54.949295 
	C165.907730,55.675892 165.978729,55.839794 166.049713,56.003696 
	C166.379547,58.332840 166.709366,60.661980 167.523010,62.784206 
	C168.006821,62.577290 168.063232,62.503216 167.737640,62.179207 
	C166.881378,62.700554 166.350723,63.545910 165.595123,64.594696 
	C165.323792,65.191612 165.277374,65.585098 165.119781,66.320084 
	C164.897476,67.369247 164.786362,68.076912 164.675262,68.784576 
	C164.675262,68.784576 164.814117,68.838898 164.546967,68.916168 
	C164.239258,69.328529 164.198700,69.663612 164.158142,69.998703 
	C163.271729,71.206352 162.385315,72.414009 161.251251,73.838669 
	C160.196899,74.251419 159.390213,74.447166 158.267563,74.654236 
z"/>
<path fill="#FBDF59" opacity="1.000000" stroke="none" 
	d="
M145.642929,38.031967 
	C151.185974,38.437260 155.673523,42.947552 155.829697,48.314362 
	C155.859222,49.329079 154.872955,51.124825 154.085983,51.292004 
	C148.205017,52.541313 142.256287,53.471672 136.218506,53.964554 
	C136.426331,52.639278 136.744446,51.851406 137.392059,50.988129 
	C140.307495,47.013496 145.230957,44.519539 144.946472,38.894695 
	C144.962784,38.546841 145.117538,38.278954 145.642929,38.031967 
z"/>
<path fill="#EAE1B7" opacity="1.000000" stroke="none" 
	d="
M137.062561,51.063534 
	C136.744446,51.851406 136.426331,52.639278 135.923126,53.696846 
	C133.114288,54.897385 131.197952,55.982643 133.377594,59.250656 
	C134.060074,60.273918 133.769409,61.946228 133.872284,62.860374 
	C130.226074,63.560570 127.179810,64.145554 123.927429,64.338310 
	C124.790718,61.942387 125.860123,59.938686 126.929535,57.934990 
	C126.929535,57.934990 126.843269,57.901180 126.840637,57.855576 
	C127.889435,57.321125 129.197937,57.077179 129.942307,56.295818 
	C131.888412,54.253036 133.587875,51.975300 135.854126,49.717743 
	C136.322571,49.644260 136.804886,49.691750 136.865997,50.035316 
	C136.972275,50.607098 137.017410,50.835316 137.062561,51.063534 
z"/>
<path fill="#060909" opacity="1.000000" stroke="none" 
	d="
M168.509613,92.903641 
	C168.408066,88.878632 168.666168,84.748383 168.666809,80.297775 
	C169.305023,80.819679 170.200714,81.661926 171.940689,83.298111 
	C172.434753,80.628998 172.834000,78.472000 173.434509,75.227783 
	C174.553238,76.680908 176.044434,77.900482 175.828430,78.454788 
	C174.516510,81.821442 177.121826,87.585129 170.784561,87.520576 
	C170.054276,89.532959 169.461777,91.165680 168.509613,92.903641 
z"/>
<path fill="#EEE0A0" opacity="1.000000" stroke="none" 
	d="
M137.392059,50.988129 
	C137.017410,50.835316 136.972275,50.607098 136.748978,49.893028 
	C136.334442,49.202614 136.116776,49.220909 135.917847,49.462067 
	C136.883728,47.872643 137.849609,46.283215 139.241974,44.254051 
	C139.898926,43.256908 140.129425,42.699505 140.359909,42.142097 
	C141.686966,41.131340 143.014023,40.120583 144.643768,39.002258 
	C145.230957,44.519539 140.307495,47.013496 137.392059,50.988129 
z"/>
<path fill="#C2D1D0" opacity="1.000000" stroke="none" 
	d="
M168.063232,62.503216 
	C168.063232,62.503216 168.006821,62.577290 168.020508,62.620956 
	C168.301041,62.008209 168.567886,61.351788 169.224350,60.720718 
	C170.131882,61.293907 170.649811,61.841747 171.167740,62.389587 
	C171.167740,62.389587 171.174774,62.756817 171.349945,63.203690 
	C171.357666,64.850273 171.190247,66.049980 171.022812,67.249695 
	C170.090836,68.093109 169.182220,68.967300 168.184891,69.724625 
	C168.100250,69.788895 167.422897,69.072563 167.252106,68.037689 
	C167.676620,65.738747 167.869919,64.120979 168.063232,62.503216 
z"/>
<path fill="#060909" opacity="1.000000" stroke="none" 
	d="
M163.536194,129.950348 
	C163.621475,126.548050 164.055969,123.086243 164.708405,119.301292 
	C165.739563,122.726372 169.629364,126.768066 163.536194,129.950348 
z"/>
<path fill="#140A07" opacity="1.000000" stroke="none" 
	d="
M165.965439,52.941856 
	C164.418991,49.367188 163.161591,45.632240 161.847626,41.529572 
	C166.124573,40.663750 165.851562,44.120098 166.420715,46.708019 
	C166.689041,47.928135 166.474014,49.254559 166.738998,50.766403 
	C167.000000,51.000000 167.006180,51.004780 167.006180,51.004780 
	C166.755615,51.597046 166.505066,52.189316 165.965439,52.941856 
z"/>
<path fill="#060909" opacity="1.000000" stroke="none" 
	d="
M58.832565,78.520172 
	C58.453140,79.565636 57.916496,80.315048 57.210106,81.683594 
	C57.018799,82.536461 56.997238,82.770203 56.975681,83.003952 
	C53.213802,79.693069 53.223686,78.197495 57.247616,75.207291 
	C57.738438,76.244408 58.206890,77.234261 58.832565,78.520172 
z"/>
<path fill="#060909" opacity="1.000000" stroke="none" 
	d="
M56.163574,61.514641 
	C56.186172,63.362946 56.070568,64.883133 55.957748,66.710403 
	C54.447960,65.722137 52.935394,64.426773 50.383999,62.241764 
	C52.881935,61.774513 54.453651,61.480515 56.163574,61.514641 
z"/>
<path fill="#050F11" opacity="1.000000" stroke="none" 
	d="
M62.745483,126.264137 
	C63.617317,129.384521 64.214378,132.776474 64.778557,136.575974 
	C63.987358,133.500916 63.229034,130.018311 62.745483,126.264137 
z"/>
<path fill="#060909" opacity="1.000000" stroke="none" 
	d="
M161.524673,144.778992 
	C161.682526,141.544174 162.131302,138.107025 162.780701,134.332733 
	C165.229462,137.813110 163.694794,141.213867 161.524673,144.778992 
z"/>
<path fill="#050F11" opacity="1.000000" stroke="none" 
	d="
M58.802750,96.223045 
	C59.056404,95.979279 59.424625,96.172005 59.611267,96.263275 
	C60.124714,99.306580 60.451515,102.258614 60.745117,105.617134 
	C59.990978,102.838013 59.270039,99.652412 58.802750,96.223045 
z"/>
<path fill="#060909" opacity="1.000000" stroke="none" 
	d="
M171.407700,67.415909 
	C171.190247,66.049980 171.357666,64.850273 171.469299,63.343254 
	C172.527679,63.394024 173.641861,63.752098 174.756042,64.110168 
	C173.768219,65.267487 172.780411,66.424805 171.407700,67.415909 
z"/>
<path fill="#071519" opacity="1.000000" stroke="none" 
	d="
M159.289490,159.765427 
	C159.417053,157.023712 159.843140,154.040497 160.522400,150.747681 
	C160.379730,153.466690 159.983871,156.495300 159.289490,159.765427 
z"/>
<path fill="#050F11" opacity="1.000000" stroke="none" 
	d="
M67.902496,161.629028 
	C67.244835,161.543823 66.665474,161.075119 66.045883,160.304138 
	C66.156067,158.834412 66.306488,157.667007 66.712479,156.255280 
	C67.305634,157.755844 67.643219,159.500702 67.902496,161.629028 
z"/>
<path fill="#060909" opacity="1.000000" stroke="none" 
	d="
M57.563896,86.003006 
	C58.080673,86.886246 58.252319,87.780609 58.254875,89.423157 
	C58.051178,90.450058 58.016571,90.728790 57.981964,91.007523 
	C55.821827,89.634338 53.491623,88.287140 57.563896,86.003006 
z"/>
<path fill="#060909" opacity="1.000000" stroke="none" 
	d="
M167.737625,62.179207 
	C167.869919,64.120979 167.676620,65.738747 167.229660,67.679657 
	C166.413666,68.247910 165.851334,68.493011 164.982117,68.761337 
	C164.786362,68.076912 164.897476,67.369247 165.313522,66.099564 
	C165.685654,65.155449 165.752853,64.773361 165.820053,64.391266 
	C166.350723,63.545910 166.881378,62.700554 167.737625,62.179207 
z"/>
<path fill="#060909" opacity="1.000000" stroke="none" 
	d="
M166.505951,107.921234 
	C166.319244,106.551010 166.469208,105.092026 166.799011,103.313316 
	C166.933441,104.606552 166.888031,106.219521 166.505951,107.921234 
z"/>
<path fill="#050F11" opacity="1.000000" stroke="none" 
	d="
M65.567490,148.059143 
	C66.192917,149.104477 66.499847,150.215591 66.775475,151.673920 
	C64.726738,151.305328 62.645409,150.614029 65.567490,148.059143 
z"/>
<path fill="#071519" opacity="1.000000" stroke="none" 
	d="
M159.108948,166.635056 
	C158.796967,168.593063 158.398163,170.197845 157.662964,171.917038 
	C157.659058,170.086639 157.991547,168.141846 158.564026,165.892456 
	C158.876694,165.819199 158.949417,166.050522 159.108948,166.635056 
z"/>
<path fill="#050F11" opacity="1.000000" stroke="none" 
	d="
M64.734856,141.227203 
	C65.281631,142.114365 65.582108,143.222412 65.826462,144.675247 
	C65.343086,143.829376 64.915817,142.638733 64.734856,141.227203 
z"/>
<path fill="#050F11" opacity="1.000000" stroke="none" 
	d="
M61.758495,118.195969 
	C62.296997,119.104416 62.595139,120.205811 62.835625,121.649872 
	C62.358025,120.791328 61.938080,119.590126 61.758495,118.195969 
z"/>
<path fill="#060909" opacity="1.000000" stroke="none" 
	d="
M68.809616,53.820786 
	C68.281929,54.468426 67.535156,54.852985 66.470413,55.316711 
	C66.965134,54.783157 67.777832,54.170433 68.809616,53.820786 
z"/>
<path fill="#050F11" opacity="1.000000" stroke="none" 
	d="
M60.778854,111.183624 
	C61.299057,111.790070 61.578228,112.587868 61.804649,113.702530 
	C61.347210,113.137924 60.942516,112.256447 60.778854,111.183624 
z"/>
<path fill="#060909" opacity="1.000000" stroke="none" 
	d="
M165.490723,113.825943 
	C165.370087,113.158516 165.492020,112.336464 165.787598,111.250137 
	C165.885269,111.881012 165.809265,112.776161 165.490723,113.825943 
z"/>
<path fill="#060909" opacity="1.000000" stroke="none" 
	d="
M175.562622,71.362839 
	C175.672028,70.942345 175.939545,70.687576 176.207062,70.432808 
	C176.312485,70.543564 176.417908,70.654312 176.523331,70.765068 
	C176.255798,71.019569 175.988266,71.274071 175.562622,71.362839 
z"/>
<path fill="#060909" opacity="1.000000" stroke="none" 
	d="
M140.045319,42.129868 
	C140.129425,42.699505 139.898926,43.256908 139.386215,43.926193 
	C139.312897,43.397926 139.521820,42.757782 140.045319,42.129868 
z"/>
<path fill="#060909" opacity="1.000000" stroke="none" 
	d="
M171.327805,62.026695 
	C170.649811,61.841747 170.131882,61.293907 169.423660,60.532402 
	C169.984863,60.767090 170.736374,61.215446 171.327805,62.026695 
z"/>
<path fill="#050504" opacity="1.000000" stroke="none" 
	d="
M65.035294,184.291260 
	C65.333580,184.470001 65.641182,184.945343 65.958786,185.717331 
	C65.660713,185.538605 65.352654,185.063232 65.035294,184.291260 
z"/>
<path fill="#050F11" opacity="1.000000" stroke="none" 
	d="
M56.653046,115.724915 
	C56.638248,115.989418 56.495628,116.134415 56.353008,116.279419 
	C56.410412,116.054749 56.467819,115.830086 56.653046,115.724915 
z"/>
<path fill="#140A07" opacity="1.000000" stroke="none" 
	d="
M166.286362,55.980835 
	C165.978729,55.839794 165.907730,55.675892 165.917328,55.256485 
	C166.411362,55.155918 166.824783,55.310856 167.238205,55.465794 
	C166.999802,55.629856 166.761414,55.793919 166.286362,55.980835 
z"/>
<path fill="#060909" opacity="1.000000" stroke="none" 
	d="
M76.296417,46.388168 
	C76.161301,46.562893 75.927094,46.589970 75.692894,46.617050 
	C75.861046,46.491543 76.029198,46.366032 76.296417,46.388168 
z"/>
<path fill="#060909" opacity="1.000000" stroke="none" 
	d="
M53.765568,92.986481 
	C53.593002,93.099815 53.418938,93.044495 53.244873,92.989182 
	C53.417942,92.932068 53.591007,92.874954 53.765568,92.986481 
z"/>
<path fill="#060909" opacity="1.000000" stroke="none" 
	d="
M81.282074,45.394722 
	C81.152878,45.560146 80.930389,45.584858 80.707893,45.609570 
	C80.868187,45.491051 81.028481,45.372532 81.282074,45.394722 
z"/>
<path fill="#060909" opacity="1.000000" stroke="none" 
	d="
M50.234169,70.009399 
	C50.407501,69.895737 50.582111,69.951332 50.756721,70.006927 
	C50.582962,70.064171 50.409206,70.121414 50.234169,70.009399 
z"/>
<path fill="#140A07" opacity="1.000000" stroke="none" 
	d="
M158.910553,35.866997 
	C158.628113,36.003414 158.381607,35.804722 158.214615,35.252678 
	C158.500198,35.140503 158.717667,35.351357 158.910553,35.866997 
z"/>
<path fill="#140A07" opacity="1.000000" stroke="none" 
	d="
M166.997574,50.996891 
	C167.087173,50.961956 167.179199,50.930126 167.138702,50.951538 
	C167.006180,51.004780 167.000000,51.000000 166.997574,50.996891 
z"/>
<path fill="#140A07" opacity="1.000000" stroke="none" 
	d="
M164.342941,69.832153 
	C164.198700,69.663612 164.239258,69.328529 164.502304,68.856476 
	C164.815353,69.067451 164.749680,69.382820 164.342941,69.832153 
z"/>
<path fill="#050F11" opacity="1.000000" stroke="none" 
	d="
M57.159073,83.016281 
	C56.997238,82.770203 57.018799,82.536461 57.100334,81.954361 
	C57.361656,81.897667 57.563004,82.189339 57.737206,82.752884 
	C57.710052,83.024750 57.342461,83.028610 57.159073,83.016281 
z"/>
<path fill="#050F11" opacity="1.000000" stroke="none" 
	d="
M58.178482,91.015244 
	C58.016571,90.728790 58.051178,90.450058 58.165508,89.755554 
	C58.447685,89.692055 58.650139,90.044334 58.810455,90.708557 
	C58.768322,91.020500 58.374996,91.022964 58.178482,91.015244 
z"/>
<path fill="#140A07" opacity="1.000000" stroke="none" 
	d="
M162.450684,37.531803 
	C162.418716,37.477798 162.482635,37.585808 162.450684,37.531803 
z"/>
<path fill="#140A07" opacity="1.000000" stroke="none" 
	d="
M161.812195,40.963478 
	C161.597366,40.979225 161.353973,40.751560 161.126740,40.262009 
	C161.443100,40.163006 161.656677,40.402985 161.812195,40.963478 
z"/>
<path fill="#060909" opacity="1.000000" stroke="none" 
	d="
M135.941071,49.434719 
	C136.116776,49.220909 136.334442,49.202614 136.687866,49.549461 
	C136.804886,49.691750 136.322571,49.644260 136.136292,49.490654 
	C135.949997,49.337051 135.964294,49.407375 135.941071,49.434719 
z"/>
<path fill="#060909" opacity="1.000000" stroke="none" 
	d="
M158.975006,161.794678 
	C158.790924,161.752487 158.618088,161.415985 158.704163,160.995605 
	C158.970795,161.107956 158.978516,161.304153 158.975006,161.794678 
z"/>
<path fill="#05141A" opacity="1.000000" stroke="none" 
	d="
M128.081924,161.445389 
	C126.320305,163.604202 124.309006,165.297043 123.391861,167.454941 
	C122.256279,170.126740 121.306938,172.278687 117.915283,172.101013 
	C114.470276,171.920593 114.714035,169.249725 113.724762,166.974609 
	C112.495308,164.147095 110.081154,161.834686 108.264893,159.414734 
	C110.416992,159.927628 113.065353,160.558792 115.713722,161.189972 
	C115.898766,160.803848 116.083817,160.417725 116.268867,160.031616 
	C114.754005,158.370468 113.239143,156.709305 111.740341,155.065765 
	C115.925034,150.762680 120.966751,150.106293 123.765869,153.233368 
	C125.594406,155.276154 125.175720,156.148727 119.447533,161.041962 
	C121.801041,161.041962 123.241982,161.227570 124.611565,160.994263 
	C126.267395,160.712189 127.862816,160.075409 130.019241,159.432724 
	C129.527679,160.417572 129.464020,160.754944 129.262817,160.895599 
	C129.005814,161.075333 128.637802,161.096313 128.081924,161.445389 
M115.971443,167.195297 
	C116.788277,168.130219 117.605103,169.065140 118.421928,170.000046 
	C119.813919,168.351151 121.205910,166.702255 122.597900,165.053375 
	C122.268913,164.708801 121.939926,164.364227 121.610947,164.019638 
	C119.878380,165.282608 116.502983,161.629257 115.971443,167.195297 
z"/>
<path fill="#0F2126" opacity="1.000000" stroke="none" 
	d="
M134.097153,126.316544 
	C134.097153,126.316544 134.584030,126.315224 135.193024,126.266266 
	C136.862686,126.186111 137.923370,126.154907 138.984055,126.123718 
	C144.211105,127.593628 148.361069,130.346603 149.974716,135.836899 
	C151.662918,141.580765 149.219696,147.964722 144.300232,151.098679 
	C139.326477,154.267212 132.532181,153.719650 128.112595,149.794067 
	C123.817223,145.978806 122.491104,139.283737 125.016891,133.840302 
	C125.499947,132.799255 126.229019,131.872360 127.230194,130.463394 
	C127.820656,129.725739 128.025528,129.417511 128.230408,129.109283 
	C128.230408,129.109283 128.118317,129.117340 128.461273,129.063782 
	C130.568527,128.112335 132.332840,127.214432 134.097153,126.316544 
M128.512131,132.125031 
	C124.689171,137.893707 124.798790,143.267471 128.825699,147.496933 
	C132.345779,151.194061 138.132156,152.133270 142.497192,149.716019 
	C148.403397,146.445282 150.350342,138.955231 146.723236,133.458176 
	C142.663712,127.305779 135.777908,126.567963 128.512131,132.125031 
z"/>
<path fill="#0C1F27" opacity="1.000000" stroke="none" 
	d="
M91.484482,156.671448 
	C83.929398,154.522980 80.123863,150.152145 79.941956,143.786148 
	C79.768593,137.719070 83.121735,132.759933 88.759941,130.744797 
	C94.425323,128.719940 100.257545,130.326889 103.924515,135.130402 
	C107.249847,139.486359 107.681465,144.288193 105.288612,149.197113 
	C102.585793,154.741928 97.958710,157.091949 91.484482,156.671448 
M86.072899,134.431641 
	C81.389252,139.567520 80.570084,144.456909 83.587982,149.263474 
	C86.309837,153.598511 91.369560,155.709061 96.009666,154.421265 
	C100.800583,153.091629 103.742836,149.848984 104.641914,145.096497 
	C105.481064,140.660797 103.731354,136.832092 100.153053,134.186111 
	C95.834526,130.992783 91.226433,131.131287 86.072899,134.431641 
z"/>
<path fill="#071519" opacity="1.000000" stroke="none" 
	d="
M152.617737,188.024902 
	C150.831879,193.386581 145.762756,192.164139 141.157089,192.928482 
	C144.568100,191.278275 148.413406,189.680222 152.617737,188.024902 
z"/>
<path fill="#74D8E5" opacity="1.000000" stroke="none" 
	d="
M133.940079,125.975883 
	C132.332840,127.214432 130.568527,128.112335 128.483887,129.115219 
	C128.163544,127.460747 128.163544,125.701279 128.163544,123.399704 
	C129.854691,124.072472 131.818848,124.853844 133.940079,125.975883 
z"/>
<path fill="#071519" opacity="1.000000" stroke="none" 
	d="
M156.854980,179.334778 
	C158.560638,182.964783 158.366058,186.291641 153.350403,187.987061 
	C154.209656,185.203842 155.452957,182.435074 156.854980,179.334778 
z"/>
<path fill="#050F11" opacity="1.000000" stroke="none" 
	d="
M77.183395,189.554291 
	C75.380928,189.572723 72.450996,191.379959 72.124725,187.040512 
	C73.766205,187.498352 75.378471,188.382095 77.183395,189.554291 
z"/>
<path fill="#071519" opacity="1.000000" stroke="none" 
	d="
M132.655853,194.115250 
	C131.513199,194.629761 130.004547,195.077713 128.251770,195.274704 
	C129.435028,194.698730 130.862442,194.373703 132.655853,194.115250 
z"/>
<path fill="#071519" opacity="1.000000" stroke="none" 
	d="
M98.667130,194.858215 
	C97.385735,194.951736 95.774132,194.891998 94.075180,194.497009 
	C95.437531,194.342834 96.887222,194.523895 98.667130,194.858215 
z"/>
<path fill="#050F11" opacity="1.000000" stroke="none" 
	d="
M70.799530,182.638809 
	C70.348846,181.780609 69.933907,180.580673 69.738686,179.198364 
	C70.250687,180.109695 70.542976,181.203369 70.799530,182.638809 
z"/>
<path fill="#74D8E5" opacity="1.000000" stroke="none" 
	d="
M138.861023,125.827187 
	C137.923370,126.154907 136.862686,126.186111 135.408600,126.153168 
	C136.256119,125.902908 137.497055,125.716782 138.861023,125.827187 
z"/>
<path fill="#050F11" opacity="1.000000" stroke="none" 
	d="
M69.901428,176.641937 
	C69.545609,175.803741 69.258118,174.597427 69.044952,173.049561 
	C69.402763,173.896606 69.686256,175.085220 69.901428,176.641937 
z"/>
<path fill="#071519" opacity="1.000000" stroke="none" 
	d="
M91.719261,193.862061 
	C91.089699,193.923538 90.192497,193.818008 89.152237,193.465546 
	C89.823334,193.377457 90.637482,193.536255 91.719261,193.862061 
z"/>
<path fill="#071519" opacity="1.000000" stroke="none" 
	d="
M137.673004,193.189362 
	C137.113785,193.636017 136.230545,194.048859 135.178741,194.245850 
	C135.789810,193.738510 136.569397,193.447037 137.673004,193.189362 
z"/>
<path fill="#050F11" opacity="1.000000" stroke="none" 
	d="
M68.833954,167.640106 
	C68.435043,166.840576 68.085289,165.694656 67.857407,164.295410 
	C68.280571,165.125977 68.581841,166.209854 68.833954,167.640106 
z"/>
<path fill="#071519" opacity="1.000000" stroke="none" 
	d="
M106.651497,195.300903 
	C106.407501,195.491409 105.854736,195.555908 105.160736,195.431503 
	C105.460571,195.220016 105.901657,195.197449 106.651497,195.300903 
z"/>
<path fill="#071519" opacity="1.000000" stroke="none" 
	d="
M122.664215,195.134033 
	C122.452919,195.368439 121.912155,195.531265 121.203888,195.524323 
	C121.469170,195.257172 121.901962,195.159821 122.664215,195.134033 
z"/>
<path fill="#05141A" opacity="1.000000" stroke="none" 
	d="
M104.529480,156.946777 
	C104.723778,156.490509 105.187431,156.329498 105.651093,156.168488 
	C105.708977,156.429459 105.876480,156.877335 105.805656,156.918884 
	C105.508934,157.092911 105.140800,157.145172 104.529480,156.946777 
z"/>
<path fill="#071519" opacity="1.000000" stroke="none" 
	d="
M86.132904,192.667114 
	C86.279099,192.874115 85.783730,192.884949 85.783730,192.884949 
	C85.783730,192.884949 85.333122,192.678940 85.174477,192.488678 
	C85.339455,192.352310 85.663086,192.406204 86.132904,192.667114 
z"/>
<path fill="#071519" opacity="1.000000" stroke="none" 
	d="
M79.913269,190.807831 
	C79.719604,191.035049 79.457504,190.951538 79.127274,190.559097 
	C79.326248,190.314102 79.588150,190.396423 79.913269,190.807831 
z"/>
<path fill="#050F11" opacity="1.000000" stroke="none" 
	d="
M71.661133,185.760117 
	C71.393188,185.877228 71.195747,185.693283 71.038063,185.219604 
	C71.289642,185.100784 71.507584,185.277191 71.661133,185.760117 
z"/>
<path fill="#071519" opacity="1.000000" stroke="none" 
	d="
M156.735992,175.047867 
	C157.001587,175.183411 157.003357,175.360641 156.987244,175.803223 
	C156.803619,175.742233 156.637894,175.415909 156.735992,175.047867 
z"/>
<path fill="#071519" opacity="1.000000" stroke="none" 
	d="
M157.294113,174.258224 
	C157.502441,174.250000 157.591293,174.462021 157.612869,174.680695 
	C157.619995,174.752670 157.453186,174.841812 157.189484,174.959595 
	C157.058167,174.824402 157.103287,174.652740 157.294113,174.258224 
z"/>
<path fill="#74D8E5" opacity="1.000000" stroke="none" 
	d="
M127.959373,129.205994 
	C128.025528,129.417511 127.820656,129.725739 127.352142,130.141876 
	C127.288452,129.934082 127.488403,129.618378 127.959373,129.205994 
z"/>
<path fill="#3E9BA8" opacity="1.000000" stroke="none" 
	d="
M101.138474,88.103333 
	C102.188194,87.800941 103.198166,87.862617 104.666573,88.322876 
	C111.753967,94.004669 119.274498,96.973618 127.778526,96.961922 
	C134.024384,96.953331 140.326172,96.755211 145.453049,91.797249 
	C146.664627,91.496574 147.591797,91.223297 148.947372,91.000992 
	C149.945374,91.119141 150.514984,91.186325 151.084579,91.253510 
	C143.174698,99.847290 127.515556,102.797546 114.947105,97.336960 
	C109.983421,95.180397 105.694756,91.470177 101.138474,88.103333 
z"/>
<path fill="#0C2E2A" opacity="1.000000" stroke="none" 
	d="
M151.425400,91.171440 
	C150.514984,91.186325 149.945374,91.119141 149.103363,90.679855 
	C151.211166,87.518402 153.591400,84.729057 155.971634,81.939713 
	C155.971634,81.939713 155.997162,81.999184 156.168060,82.217758 
	C156.771210,82.025024 157.203445,81.613724 157.635696,81.202431 
	C158.803635,80.799469 159.971573,80.396500 161.513443,79.983093 
	C158.513657,83.678230 155.139938,87.383797 151.425400,91.171440 
z"/>
<path fill="#56C5D5" opacity="1.000000" stroke="none" 
	d="
M114.192093,69.958496 
	C112.202362,73.126778 109.993164,76.434113 107.243874,79.205688 
	C106.104713,80.354080 103.723068,80.998070 102.054855,80.772781 
	C92.770012,79.518883 83.530701,77.927742 74.014282,76.136383 
	C75.176323,74.949127 76.533813,73.464622 78.033958,73.302841 
	C89.925598,72.020386 101.844391,70.989601 114.192093,69.958496 
z"/>
<path fill="#000000" opacity="1.000000" stroke="none" 
	d="
M126.706894,57.555923 
	C125.860123,59.938686 124.790718,61.942387 123.529526,64.250679 
	C123.337730,64.555267 123.316063,64.595802 123.132095,64.730545 
	C122.730103,65.067863 122.617966,65.317917 122.611732,65.615448 
	C122.740799,65.737549 122.869873,65.859650 122.564835,65.917358 
	C121.987610,66.165421 121.844490,66.477882 121.701370,66.790344 
	C121.701370,66.790344 121.848724,66.864304 121.526161,66.944946 
	C120.225502,68.053162 119.247406,69.080734 118.269318,70.108307 
	C117.881241,69.620071 117.493172,69.131821 117.052383,68.321747 
	C120.161194,64.392235 123.322723,60.784550 126.706894,57.555923 
z"/>
<path fill="#7BCAC2" opacity="1.000000" stroke="none" 
	d="
M145.168640,91.824646 
	C140.326172,96.755211 134.024384,96.953331 127.778526,96.961922 
	C119.274498,96.973618 111.753967,94.004669 105.040817,88.386658 
	C107.676239,88.018044 110.395859,87.984222 113.638496,88.377716 
	C117.245369,90.166557 120.254944,92.418663 123.430260,92.683479 
	C128.346588,93.093483 133.836227,94.621513 138.441467,90.181984 
	C140.880539,90.393654 142.936295,90.589378 145.043350,91.043777 
	C145.119308,91.476509 145.143967,91.650581 145.168640,91.824646 
z"/>
<path fill="#D3DFAB" opacity="1.000000" stroke="none" 
	d="
M144.992065,90.785103 
	C142.936295,90.589378 140.880539,90.393654 137.990341,90.116760 
	C130.382767,89.319000 123.609634,88.602417 116.836494,87.885834 
	C120.605537,87.292709 124.368256,86.655357 128.145004,86.116234 
	C134.789215,85.167786 141.441971,84.279381 148.458466,83.682358 
	C148.862442,87.003578 143.082199,86.722191 144.992065,90.785103 
z"/>
<path fill="#F7DB5C" opacity="1.000000" stroke="none" 
	d="
M131.478149,80.002853 
	C131.251770,75.455055 131.454941,70.955032 131.658096,66.455002 
	C132.237915,66.296936 132.817749,66.138870 133.397583,65.980804 
	C136.954727,69.766571 140.511856,73.552345 144.184753,77.674950 
	C140.169586,78.691399 136.038635,79.371010 131.478149,80.002853 
z"/>
<path fill="#F5D95F" opacity="1.000000" stroke="none" 
	d="
M120.104752,71.246384 
	C121.988991,69.954514 123.873230,68.662651 126.002632,67.202698 
	C126.002632,71.491905 126.002632,75.605331 126.011856,80.145660 
	C122.320061,80.708572 118.619026,80.844559 114.498703,80.561539 
	C115.738731,77.760315 117.398056,75.378113 119.278625,72.844467 
	C119.701492,72.210815 119.903122,71.728600 120.104752,71.246384 
z"/>
<path fill="#8BD8CD" opacity="1.000000" stroke="none" 
	d="
M116.479874,87.895370 
	C123.609634,88.602417 130.382767,89.319000 137.607056,90.100815 
	C133.836227,94.621513 128.346588,93.093483 123.430260,92.683479 
	C120.254944,92.418663 117.245369,90.166557 114.083321,88.465134 
	C114.711166,88.051781 115.417213,87.978348 116.479874,87.895370 
z"/>
<path fill="#BFBC89" opacity="1.000000" stroke="none" 
	d="
M145.043350,91.043777 
	C143.082199,86.722191 148.862442,87.003578 148.899628,83.629494 
	C151.060623,82.780296 153.147766,82.300476 155.603271,81.880188 
	C153.591400,84.729057 151.211166,87.518402 148.674957,90.628891 
	C147.591797,91.223297 146.664627,91.496574 145.453049,91.797249 
	C145.143967,91.650581 145.119308,91.476509 145.043350,91.043777 
z"/>
<path fill="#F9E9AA" opacity="1.000000" stroke="none" 
	d="
M119.057388,72.995911 
	C117.398056,75.378113 115.738731,77.760315 114.044037,80.477654 
	C112.871132,80.868782 111.733612,80.924774 109.701103,81.024834 
	C112.141861,78.068771 114.143936,75.644020 116.820328,73.081238 
	C118.015556,72.960777 118.536476,72.978340 119.057388,72.995911 
z"/>
<path fill="#EAE1B7" opacity="1.000000" stroke="none" 
	d="
M119.278625,72.844467 
	C118.536476,72.978340 118.015556,72.960777 117.104904,72.917542 
	C117.160439,72.166000 117.605721,71.440132 118.160156,70.411285 
	C119.247406,69.080734 120.225502,68.053162 121.475929,66.879578 
	C121.263138,68.005127 120.778015,69.276688 120.198830,70.897308 
	C119.903122,71.728600 119.701492,72.210815 119.278625,72.844467 
z"/>
<path fill="#BFBC89" opacity="1.000000" stroke="none" 
	d="
M157.361481,81.205017 
	C157.203445,81.613724 156.771210,82.025024 156.143295,82.196915 
	C156.327515,81.707535 156.707397,81.457573 157.361481,81.205017 
z"/>
<path fill="#FCDF57" opacity="1.000000" stroke="none" 
	d="
M152.036880,74.678467 
	C146.676483,70.471436 141.664902,66.259567 136.653336,62.047699 
	C136.735138,61.495380 136.816956,60.943058 136.898758,60.390739 
	C143.092712,59.253895 149.271912,58.013428 155.501404,57.126045 
	C156.192810,57.027550 157.828110,58.892174 157.906830,59.931114 
	C158.338135,65.624199 156.932190,70.775719 152.036880,74.678467 
z"/>
<path fill="#EAE1B7" opacity="1.000000" stroke="none" 
	d="
M122.866661,65.582596 
	C122.617966,65.317917 122.730103,65.067863 123.125801,64.752686 
	C123.242844,64.943314 123.182213,65.246529 122.866661,65.582596 
z"/>
<path fill="#EAE1B7" opacity="1.000000" stroke="none" 
	d="
M121.967293,66.704918 
	C121.844490,66.477882 121.987610,66.165421 122.367790,65.738251 
	C122.480972,65.955536 122.357094,66.287514 121.967293,66.704918 
z"/>
<path fill="#140A07" opacity="1.000000" stroke="none" 
	d="
M165.595123,64.594696 
	C165.752853,64.773361 165.685654,65.155449 165.424713,65.758064 
	C165.277374,65.585098 165.323792,65.191612 165.595123,64.594696 
z"/>
<path fill="#E0E0DD" opacity="1.000000" stroke="none" 
	d="
M115.942581,166.754471 
	C116.502983,161.629257 119.878380,165.282608 121.610947,164.019638 
	C121.939926,164.364227 122.268913,164.708801 122.597900,165.053375 
	C121.205910,166.702255 119.813919,168.351151 118.421928,170.000046 
	C117.605103,169.065140 116.788277,168.130219 115.942581,166.754471 
z"/>
<path fill="#F7F7F7" opacity="1.000000" stroke="none" 
	d="
M128.777222,131.844330 
	C135.777908,126.567963 142.663712,127.305779 146.723236,133.458176 
	C150.350342,138.955231 148.403397,146.445282 142.497192,149.716019 
	C138.132156,152.133270 132.345779,151.194061 128.825699,147.496933 
	C124.798790,143.267471 124.689171,137.893707 128.777222,131.844330 
M136.974945,146.266098 
	C139.635132,145.101151 141.073563,143.058929 139.372025,140.502899 
	C138.503555,139.198288 136.034409,137.919937 134.694107,138.254349 
	C133.289597,138.604767 131.130280,141.634918 131.470657,142.210251 
	C132.515305,143.976074 134.599426,145.126953 136.974945,146.266098 
z"/>
<path fill="#F4F5F4" opacity="1.000000" stroke="none" 
	d="
M86.383400,134.204926 
	C91.226433,131.131287 95.834526,130.992783 100.153053,134.186111 
	C103.731354,136.832092 105.481064,140.660797 104.641914,145.096497 
	C103.742836,149.848984 100.800583,153.091629 96.009666,154.421265 
	C91.369560,155.709061 86.309837,153.598511 83.587982,149.263474 
	C80.570084,144.456909 81.389252,139.567520 86.383400,134.204926 
M91.058487,149.334122 
	C92.806160,148.584061 94.932472,148.198975 96.148987,146.936935 
	C96.801437,146.260056 96.326614,143.092209 95.595917,142.767166 
	C93.860611,141.995255 91.052811,141.371857 89.787659,142.263092 
	C86.898819,144.298141 87.533386,146.991745 91.058487,149.334122 
z"/>
<path fill="#1A1A1A" opacity="1.000000" stroke="none" 
	d="
M136.627197,146.391510 
	C134.599426,145.126953 132.515305,143.976074 131.470657,142.210251 
	C131.130280,141.634918 133.289597,138.604767 134.694107,138.254349 
	C136.034409,137.919937 138.503555,139.198288 139.372025,140.502899 
	C141.073563,143.058929 139.635132,145.101151 136.627197,146.391510 
z"/>
<path fill="#141314" opacity="1.000000" stroke="none" 
	d="
M90.708862,149.195023 
	C87.533386,146.991745 86.898819,144.298141 89.787659,142.263092 
	C91.052811,141.371857 93.860611,141.995255 95.595917,142.767166 
	C96.326614,143.092209 96.801437,146.260056 96.148987,146.936935 
	C94.932472,148.198975 92.806160,148.584061 90.708862,149.195023 
z"/>
</svg>