<svg version="1.1" id="Layer_1" xmlns="http://www.w3.org/2000/svg" xmlns:xlink="http://www.w3.org/1999/xlink" x="0px" y="0px"
	 width="100%" viewBox="0 0 225 225" enable-background="new 0 0 225 225" xml:space="preserve">
<path fill="#ffffff" opacity="1.000000" stroke="none" 
	d="
M226.000000,84.000000 
	C226.000000,131.666672 226.000000,178.833328 226.000000,226.000000 
	C151.000000,226.000000 76.000000,226.000000 1.000000,226.000000 
	C1.000000,151.000000 1.000000,76.000000 1.000000,1.000000 
	C76.000000,1.000000 151.000000,1.000000 226.000000,1.000000 
	C226.000000,28.500000 226.000000,56.000000 226.000000,84.000000 
M169.637634,175.925186 
	C169.457962,175.539062 169.278290,175.152939 169.114777,174.499664 
	C169.114777,174.499664 169.081589,174.234116 169.669403,173.926498 
	C169.823318,173.297363 169.977219,172.668228 170.053513,172.055450 
	C170.053513,172.055450 170.091629,172.125015 170.649109,171.726273 
	C171.590988,168.535828 173.289597,165.357361 173.340393,162.152786 
	C173.534012,149.941284 173.160278,137.721558 173.095184,125.504379 
	C173.085358,123.660484 173.588501,121.813843 174.078857,120.636841 
	C176.797913,122.000130 179.516983,123.363411 183.287308,125.253792 
	C182.878525,122.370041 182.713928,121.208923 182.570862,120.199615 
	C183.464752,119.928871 184.336990,119.664688 185.292435,119.375305 
	C182.877716,113.727463 178.144211,112.806915 173.038742,111.412811 
	C172.709106,107.838509 172.231842,104.270584 172.077271,100.688728 
	C171.593216,89.472649 171.230881,78.251312 170.918152,66.300468 
	C170.816010,65.823334 170.713882,65.346199 171.144211,64.510170 
	C170.124252,60.968422 169.104294,57.426674 168.044708,53.955517 
	C168.044708,53.955517 168.125641,53.957577 168.121262,53.211189 
	C167.759918,52.105133 167.398560,50.999073 167.058899,49.477100 
	C167.058899,49.477100 167.164734,49.074291 167.752060,49.018238 
	C169.357132,48.456898 171.295944,48.291885 172.511658,47.268166 
	C179.082016,41.735428 179.155258,37.707664 174.770248,29.521933 
	C172.541779,25.361933 163.039490,23.695917 158.154785,25.751122 
	C156.423584,26.479506 154.117142,25.840704 151.716187,25.245985 
	C134.514114,14.977467 115.972458,14.598317 96.333076,17.923241 
	C95.215111,18.275614 94.097137,18.627987 92.488480,18.971462 
	C92.488480,18.971462 92.012375,19.090553 91.387260,18.915081 
	C90.067459,19.223787 88.756927,19.745777 87.426231,19.803576 
	C82.195343,20.030769 78.377975,23.096022 73.964981,26.477615 
	C72.620140,27.594219 71.275299,28.710825 69.215065,29.907166 
	C65.533798,27.010191 61.021866,26.209129 56.704685,26.397623 
	C52.852070,26.565834 46.457172,35.460857 45.986969,39.869251 
	C45.421375,45.172062 51.212875,51.681728 56.110050,51.671520 
	C55.740505,53.720165 55.454411,55.788204 54.983665,57.813328 
	C54.063484,61.771927 52.896561,65.679367 52.141567,69.666641 
	C51.894867,70.969528 52.609200,72.454376 52.258411,74.338730 
	C52.216007,75.918434 52.173603,77.498131 52.005459,79.910461 
	C52.961189,84.860107 54.241875,89.774132 54.789272,94.768532 
	C55.453056,100.824806 55.497498,106.948959 55.052319,113.035065 
	C49.282654,112.415428 44.656277,114.347939 41.312359,119.153755 
	C43.983746,123.698341 47.156822,126.166168 52.252136,122.251122 
	C52.912842,121.743462 54.160721,121.999992 55.014492,122.769012 
	C54.989838,126.815285 55.372902,130.913605 54.864250,134.898102 
	C53.325314,146.953278 52.947323,159.077530 55.028599,170.973633 
	C56.633915,180.149231 60.551922,188.719498 67.787308,195.652649 
	C65.712303,196.967850 63.397724,198.023849 61.623203,199.664124 
	C59.428055,201.693176 56.513710,204.040695 59.170727,207.508621 
	C61.500706,210.549683 64.145714,212.520203 68.067146,209.011108 
	C70.814774,206.552383 74.307281,204.937653 77.350945,202.781952 
	C77.691208,202.540939 77.272255,201.227966 77.920647,200.883026 
	C84.617599,202.868896 91.314552,204.854752 98.853172,207.001846 
	C104.011887,207.556137 109.161430,208.414719 114.332153,208.570572 
	C118.642418,208.700470 123.019699,208.267960 127.286148,207.580765 
	C129.934845,207.154175 132.432175,205.787994 135.701584,204.963486 
	C135.939468,204.973770 136.177353,204.984039 136.480789,205.267792 
	C136.626297,205.299911 136.771805,205.332047 136.917313,205.364166 
	C136.713593,205.271790 136.509888,205.179413 136.910477,204.539383 
	C141.302612,203.048172 145.694748,201.556946 150.343201,200.694977 
	C152.104446,202.108948 154.454468,203.184082 155.503876,205.007675 
	C157.662231,208.758331 160.651749,210.030304 164.372757,208.649719 
	C166.990311,207.678528 166.517227,201.465485 163.909470,198.231232 
	C162.500870,196.484207 161.155106,194.686493 160.099548,192.277206 
	C162.749634,187.549881 165.399719,182.822556 168.440475,177.912949 
	C168.675949,177.293884 168.911438,176.674805 169.069107,176.031448 
	C169.069107,176.031448 169.081223,176.112061 169.637634,175.925186 
z"/>
<path fill="#6AD6E3" opacity="1.000000" stroke="none" 
	d="
M52.884014,73.856010 
	C52.609200,72.454376 51.894867,70.969528 52.141567,69.666641 
	C52.896561,65.679367 54.063484,61.771927 54.983665,57.813328 
	C55.454411,55.788204 55.740505,53.720165 56.180275,51.068756 
	C56.508324,49.612679 56.766155,48.759373 57.304718,47.779236 
	C57.991638,46.787601 58.397820,45.922798 59.098698,44.858353 
	C62.905750,39.714954 66.418106,34.771194 69.930458,29.827431 
	C71.275299,28.710825 72.620140,27.594219 74.573593,26.255051 
	C80.792259,23.718508 86.402321,21.404530 92.012375,19.090553 
	C92.012375,19.090553 92.488480,18.971462 93.103989,19.015354 
	C94.793724,18.648342 95.867943,18.237436 96.942169,17.826530 
	C115.972458,14.598317 134.514114,14.977467 151.927948,25.882160 
	C155.407486,30.030876 158.675247,33.543419 161.971603,37.392536 
	C162.617477,38.537708 163.234772,39.346298 163.903992,40.529182 
	C165.025528,43.627083 166.095123,46.350689 167.164734,49.074295 
	C167.164734,49.074291 167.058899,49.477100 167.029755,50.061497 
	C167.375641,51.749786 167.750641,52.853680 168.125641,53.957577 
	C168.125641,53.957577 168.044708,53.955517 168.032623,54.343903 
	C168.884262,58.111217 169.748001,61.490143 170.611755,64.869064 
	C170.713882,65.346199 170.816010,65.823334 170.631760,66.996063 
	C170.307419,71.501297 170.160461,75.313736 170.257843,79.119919 
	C170.393326,84.415817 170.746597,89.705734 170.943741,95.000565 
	C171.225082,102.556526 171.429443,110.115334 171.703171,117.671608 
	C172.045227,127.113441 172.905014,136.567108 172.646866,145.991165 
	C172.407822,154.719238 170.990234,163.415009 170.091629,172.125015 
	C170.091629,172.125015 170.053513,172.055450 169.819733,172.226959 
	C169.417816,173.010345 169.249695,173.622223 169.081589,174.234116 
	C169.081589,174.234116 169.114777,174.499664 169.081665,174.969330 
	C169.059448,175.663345 169.070343,175.887695 169.081223,176.112061 
	C169.081223,176.112061 169.069107,176.031448 168.838257,176.201233 
	C168.421539,176.945770 168.235672,177.520493 168.049805,178.095230 
	C165.399719,182.822556 162.749634,187.549881 159.673309,192.796692 
	C156.193680,195.566040 153.140289,197.815887 150.086884,200.065720 
	C145.694748,201.556946 141.302612,203.048172 136.644669,204.797821 
	C136.378860,205.056274 136.415222,204.994293 136.415222,204.994293 
	C136.177353,204.984039 135.939468,204.973770 135.054199,204.675095 
	C126.530228,204.934219 118.654213,205.490143 110.776825,206.025909 
	C106.522926,206.315231 102.266685,206.570160 98.011505,206.840607 
	C91.314552,204.854752 84.617599,202.868896 77.315872,200.515350 
	C73.831108,198.433350 70.951126,196.719009 68.071144,195.004669 
	C60.551922,188.719498 56.633915,180.149231 55.028599,170.973633 
	C52.947323,159.077530 53.325314,146.953278 54.864250,134.898102 
	C55.372902,130.913605 54.989838,126.815285 55.322914,122.033051 
	C55.690868,118.545967 55.750393,115.794861 55.809917,113.043747 
	C55.497498,106.948959 55.453056,100.824806 54.789272,94.768532 
	C54.241875,89.774132 52.961189,84.860107 52.344574,79.220360 
	C52.750465,76.972176 52.817238,75.414093 52.884014,73.856010 
M125.758835,64.570679 
	C125.557289,64.311249 125.304466,64.119377 125.000305,63.999695 
	C125.000305,63.999695 125.005592,63.998760 124.920868,63.348820 
	C124.440887,62.444778 123.960899,61.540733 123.540245,60.748436 
	C125.962784,60.448521 128.069412,60.187714 131.052017,60.024803 
	C142.802292,60.231438 146.914536,57.577438 151.428680,46.635708 
	C152.066772,45.089031 152.826981,43.092480 152.372391,41.675842 
	C149.241653,31.919577 143.381195,25.425386 131.605164,25.509489 
	C128.499115,24.860214 125.507317,24.519609 123.850578,28.663729 
	C123.641579,28.846951 123.399857,28.960489 122.367371,28.998243 
	C120.244827,30.862743 117.516327,32.359501 116.118057,34.663551 
	C112.517273,40.596828 113.740913,47.026985 115.672478,53.191002 
	C113.918549,53.939548 112.462296,54.561054 110.845741,55.359688 
	C110.845741,55.359688 110.621948,55.276093 109.818581,55.123806 
	C109.026489,55.596676 108.234398,56.069546 107.368530,56.498890 
	C107.368530,56.498890 107.358383,56.583950 106.852722,56.431747 
	C106.580605,56.632408 106.308487,56.833065 105.462051,57.418560 
	C104.547592,59.149384 103.633141,60.880211 102.050041,62.910542 
	C96.970322,67.532684 97.722260,72.214478 103.999146,75.993622 
	C104.091629,77.028282 104.184113,78.062943 104.158249,79.647400 
	C104.424637,80.112747 104.691017,80.578102 105.148911,81.701912 
	C106.911476,84.814682 108.731010,86.812386 111.427299,82.014992 
	C111.603424,82.023605 111.779556,82.032227 112.277740,82.607544 
	C114.150894,83.269142 116.942154,85.006310 117.699051,84.360222 
	C119.114746,83.151787 119.469772,80.593422 120.028282,78.532242 
	C120.319008,77.459328 120.102745,76.249023 120.840942,75.033241 
	C122.907959,74.079384 124.974976,73.125534 127.426048,71.840302 
	C127.608231,71.559753 127.790413,71.279198 128.113327,70.482880 
	C128.165466,70.312477 128.217621,70.142067 128.497604,69.775253 
	C128.645264,69.463814 128.562012,69.217705 128.101822,68.547668 
	C128.062775,68.382004 128.023743,68.216339 127.803093,67.546326 
	C127.560623,67.284767 127.318146,67.023209 126.939934,66.535767 
	C126.939934,66.535767 126.885193,66.277992 126.834854,65.715286 
	C126.561707,65.478264 126.288567,65.241249 125.997902,65.004555 
	C125.997902,65.004555 125.997971,64.987251 125.758835,64.570679 
M72.021240,54.997463 
	C72.021240,54.997463 72.044853,54.926136 72.020302,55.681087 
	C73.905334,61.016563 80.242485,64.451950 85.689514,62.744053 
	C86.057732,62.745319 86.425941,62.746590 87.229057,63.269260 
	C88.152779,62.866932 89.076508,62.464603 90.771965,62.018612 
	C92.363235,61.602856 94.082726,61.444344 95.523346,60.726322 
	C101.404747,57.794937 105.773987,53.649448 105.990158,46.501507 
	C106.165527,40.702465 104.850929,35.244362 100.083160,31.689400 
	C91.833870,25.538538 79.923981,27.171232 72.117172,35.013031 
	C71.098251,37.147255 70.079338,39.281479 69.168327,41.597729 
	C69.168327,41.597729 69.165604,41.809319 68.582909,42.422806 
	C67.175827,49.394165 68.176682,52.975990 72.021240,54.997463 
z"/>
<path fill="#6CCCD7" opacity="1.000000" stroke="none" 
	d="
M161.943024,37.055958 
	C158.675247,33.543419 155.407486,30.030876 152.106506,26.172192 
	C154.117142,25.840704 156.423584,26.479506 158.154785,25.751122 
	C163.039490,23.695917 172.541779,25.361933 174.770248,29.521933 
	C179.155258,37.707664 179.082016,41.735428 172.511658,47.268166 
	C171.295944,48.291885 169.357132,48.456898 167.458389,49.046265 
	C166.095123,46.350689 165.025528,43.627083 163.951508,40.479034 
	C163.947098,40.054596 164.042023,39.954189 164.388870,39.951523 
	C165.571884,38.485588 167.406281,36.062527 167.076874,35.719933 
	C165.361725,33.936115 163.095810,32.681862 161.021606,31.243269 
	C160.686691,31.672253 160.351776,32.101234 160.016861,32.530220 
	C160.812698,33.902054 161.608536,35.273891 162.288818,36.748016 
	C162.173233,36.850304 161.943024,37.055958 161.943024,37.055958 
z"/>
<path fill="#6ECBD5" opacity="1.000000" stroke="none" 
	d="
M69.572762,29.867298 
	C66.418106,34.771194 62.905750,39.714954 58.809761,44.698311 
	C58.820011,43.584923 59.745853,42.481827 59.928398,41.267033 
	C60.189041,39.532524 59.905315,37.716209 59.854084,35.934830 
	C58.339718,36.020054 55.903687,35.582287 55.498264,36.296772 
	C54.587002,37.902702 54.204247,40.156158 54.497280,42.004818 
	C54.822086,44.053917 56.139050,45.945751 57.023983,47.906063 
	C56.766155,48.759373 56.508324,49.612679 56.104401,50.771530 
	C51.212875,51.681728 45.421375,45.172062 45.986969,39.869251 
	C46.457172,35.460857 52.852070,26.565834 56.704685,26.397623 
	C61.021866,26.209129 65.533798,27.010191 69.572762,29.867298 
z"/>
<path fill="#E8CBA4" opacity="1.000000" stroke="none" 
	d="
M67.929230,195.328659 
	C70.951126,196.719009 73.831108,198.433350 76.958244,200.279907 
	C77.272255,201.227966 77.691208,202.540939 77.350945,202.781952 
	C74.307281,204.937653 70.814774,206.552383 68.067146,209.011108 
	C64.145714,212.520203 61.500706,210.549683 59.170727,207.508621 
	C56.513710,204.040695 59.428055,201.693176 61.623203,199.664124 
	C63.397724,198.023849 65.712303,196.967850 67.929230,195.328659 
z"/>
<path fill="#7DC8D1" opacity="1.000000" stroke="none" 
	d="
M170.370361,171.925644 
	C170.990234,163.415009 172.407822,154.719238 172.646866,145.991165 
	C172.905014,136.567108 172.045227,127.113441 171.703171,117.671608 
	C171.429443,110.115334 171.225082,102.556526 170.943741,95.000565 
	C170.746597,89.705734 170.393326,84.415817 170.257843,79.119919 
	C170.160461,75.313736 170.307419,71.501297 170.583374,67.361832 
	C171.230881,78.251312 171.593216,89.472649 172.077271,100.688728 
	C172.231842,104.270584 172.709106,107.838509 173.001221,112.125168 
	C173.260574,115.214500 173.557465,117.591492 173.854340,119.968475 
	C173.588501,121.813843 173.085358,123.660484 173.095184,125.504379 
	C173.160278,137.721558 173.534012,149.941284 173.340393,162.152786 
	C173.289597,165.357361 171.590988,168.535828 170.370361,171.925644 
z"/>
<path fill="#EACDA6" opacity="1.000000" stroke="none" 
	d="
M150.215042,200.380341 
	C153.140289,197.815887 156.193680,195.566040 159.514038,193.113922 
	C161.155106,194.686493 162.500870,196.484207 163.909470,198.231232 
	C166.517227,201.465485 166.990311,207.678528 164.372757,208.649719 
	C160.651749,210.030304 157.662231,208.758331 155.503876,205.007675 
	C154.454468,203.184082 152.104446,202.108948 150.215042,200.380341 
z"/>
<path fill="#DCC29B" opacity="1.000000" stroke="none" 
	d="
M55.431118,113.039406 
	C55.750393,115.794861 55.690868,118.545967 55.383980,121.599808 
	C54.160721,121.999992 52.912842,121.743462 52.252136,122.251122 
	C47.156822,126.166168 43.983746,123.698341 41.312359,119.153755 
	C44.656277,114.347939 49.282654,112.415428 55.431118,113.039406 
z"/>
<path fill="#E3C9A4" opacity="1.000000" stroke="none" 
	d="
M173.966599,120.302658 
	C173.557465,117.591492 173.260574,115.214500 173.070282,112.568069 
	C178.144211,112.806915 182.877716,113.727463 185.292435,119.375305 
	C184.336990,119.664688 183.464752,119.928871 182.570862,120.199615 
	C182.713928,121.208923 182.878525,122.370041 183.287308,125.253792 
	C179.516983,123.363411 176.797913,122.000130 173.966599,120.302658 
z"/>
<path fill="#71C2CC" opacity="1.000000" stroke="none" 
	d="
M98.432343,206.921234 
	C102.266685,206.570160 106.522926,206.315231 110.776825,206.025909 
	C118.654213,205.490143 126.530228,204.934219 134.702133,204.615112 
	C132.432175,205.787994 129.934845,207.154175 127.286148,207.580765 
	C123.019699,208.267960 118.642418,208.700470 114.332153,208.570572 
	C109.161430,208.414719 104.011887,207.556137 98.432343,206.921234 
z"/>
<path fill="#72BAC1" opacity="1.000000" stroke="none" 
	d="
M91.699814,19.002815 
	C86.402321,21.404530 80.792259,23.718508 74.823448,26.020741 
	C78.377975,23.096022 82.195343,20.030769 87.426231,19.803576 
	C88.756927,19.745777 90.067459,19.223787 91.699814,19.002815 
z"/>
<path fill="#7DC8D1" opacity="1.000000" stroke="none" 
	d="
M170.877991,64.689621 
	C169.748001,61.490143 168.884262,58.111217 168.052429,54.308609 
	C169.104294,57.426674 170.124252,60.968422 170.877991,64.689621 
z"/>
<path fill="#72BAC1" opacity="1.000000" stroke="none" 
	d="
M96.637619,17.874886 
	C95.867943,18.237436 94.793724,18.648342 93.349335,19.019806 
	C94.097137,18.627987 95.215111,18.275614 96.637619,17.874886 
z"/>
<path fill="#6B7D81" opacity="1.000000" stroke="none" 
	d="
M52.571213,74.097366 
	C52.817238,75.414093 52.750465,76.972176 52.407448,78.804047 
	C52.173603,77.498131 52.216007,75.918434 52.571213,74.097366 
z"/>
<path fill="#7DC8D1" opacity="1.000000" stroke="none" 
	d="
M168.123444,53.584381 
	C167.750641,52.853680 167.375641,51.749786 167.018921,50.269455 
	C167.398560,50.999073 167.759918,52.105133 168.123444,53.584381 
z"/>
<path fill="#7DC8D1" opacity="1.000000" stroke="none" 
	d="
M168.245148,178.004089 
	C168.235672,177.520493 168.421539,176.945770 168.877167,176.213379 
	C168.911438,176.674805 168.675949,177.293884 168.245148,178.004089 
z"/>
<path fill="#7DC8D1" opacity="1.000000" stroke="none" 
	d="
M169.375488,174.080307 
	C169.249695,173.622223 169.417816,173.010345 169.858536,172.218781 
	C169.977219,172.668228 169.823318,173.297363 169.375488,174.080307 
z"/>
<path fill="#71C2CC" opacity="1.000000" stroke="none" 
	d="
M136.447998,205.131042 
	C136.415222,204.994293 136.378860,205.056274 136.342514,205.071655 
	C136.509888,205.179413 136.713593,205.271790 136.917313,205.364166 
	C136.771805,205.332047 136.626297,205.299911 136.447998,205.131042 
z"/>
<path fill="#7DC8D1" opacity="1.000000" stroke="none" 
	d="
M169.359436,176.018616 
	C169.070343,175.887695 169.059448,175.663345 169.073608,175.102905 
	C169.278290,175.152939 169.457962,175.539062 169.359436,176.018616 
z"/>
<path fill="#F6F8F8" opacity="1.000000" stroke="none" 
	d="
M123.125397,29.004341 
	C123.399857,28.960489 123.641579,28.846951 124.341599,28.382870 
	C127.266846,27.422382 129.701080,26.742758 132.135300,26.063131 
	C143.381195,25.425386 149.241653,31.919577 152.372391,41.675842 
	C152.826981,43.092480 152.066772,45.089031 151.428680,46.635708 
	C146.914536,57.577438 142.802292,60.231438 130.408905,59.674850 
	C126.594688,58.478569 123.423584,57.632244 120.182648,56.803421 
	C120.112816,56.820919 120.224106,56.729565 120.302338,56.367851 
	C117.391098,50.924828 113.692268,45.880577 116.733650,39.606548 
	C118.526237,35.908634 120.972893,32.527782 123.125397,29.004341 
M119.966805,41.483063 
	C119.893250,43.241222 119.347321,45.147316 119.842186,46.727463 
	C120.951500,50.269600 125.664505,51.529266 127.776505,48.951015 
	C129.949341,46.298500 131.156326,43.241692 128.190994,40.331776 
	C125.540726,37.731030 122.854683,38.240246 119.966805,41.483063 
z"/>
<path fill="#F7F9F9" opacity="1.000000" stroke="none" 
	d="
M86.794159,62.747856 
	C86.425941,62.746590 86.057732,62.745319 85.213989,62.517029 
	C80.507271,59.835381 76.276062,57.380756 72.044853,54.926132 
	C72.044853,54.926136 72.021240,54.997463 72.038010,54.586967 
	C71.091713,50.054089 70.128662,45.931705 69.165604,41.809319 
	C69.165604,41.809319 69.168327,41.597729 69.490486,41.430573 
	C70.827034,39.153221 71.841431,37.043030 72.855820,34.932838 
	C79.923981,27.171232 91.833870,25.538538 100.083160,31.689400 
	C104.850929,35.244362 106.165527,40.702465 105.990158,46.501507 
	C105.773987,53.649448 101.404747,57.794937 95.523346,60.726322 
	C94.082726,61.444344 92.363235,61.602856 90.218842,61.801720 
	C88.708527,61.972500 87.751343,62.360176 86.794159,62.747856 
M77.109657,40.381844 
	C76.316971,40.949406 75.302979,41.360081 74.770081,42.111813 
	C72.518265,45.288300 72.769478,48.423874 75.881615,50.793056 
	C78.898911,53.090042 81.525322,51.839046 83.334396,48.918472 
	C85.215469,45.881664 84.012718,42.211460 80.690323,40.588497 
	C79.859268,40.182541 78.792236,40.259663 77.109657,40.381844 
z"/>
<path fill="#E6CAA3" opacity="1.000000" stroke="none" 
	d="
M104.027275,75.221436 
	C97.722260,72.214478 96.970322,67.532684 102.784050,62.924637 
	C109.553078,66.016518 115.428490,65.796654 121.388901,62.276390 
	C122.763756,62.977352 123.884674,63.488056 125.005592,63.998760 
	C125.005592,63.998760 125.000305,63.999695 125.090271,64.229294 
	C125.379570,64.748383 125.652145,64.924500 125.997971,64.987251 
	C125.997971,64.987251 125.997902,65.004555 126.059692,65.270233 
	C126.376053,65.783264 126.630623,66.030624 126.885193,66.277992 
	C126.885193,66.277992 126.939934,66.535767 127.006561,66.946533 
	C127.377014,67.588425 127.680855,67.819557 127.984688,68.050682 
	C128.023743,68.216339 128.062775,68.382004 128.132294,69.027054 
	C128.162781,69.506439 128.269775,69.971657 128.269775,69.971657 
	C128.217621,70.142067 128.165466,70.312477 127.783707,70.840675 
	C127.316727,71.522873 127.179359,71.847282 127.042000,72.171684 
	C124.974976,73.125534 122.907959,74.079384 120.265831,74.782715 
	C117.180092,73.994789 114.669456,73.457390 112.033882,72.755562 
	C111.613831,72.729362 111.318726,72.867599 110.675690,73.036926 
	C108.227600,73.785820 106.127441,74.503632 104.027275,75.221436 
z"/>
<path fill="#F5F6F6" opacity="1.000000" stroke="none" 
	d="
M104.013214,75.607529 
	C106.127441,74.503632 108.227600,73.785820 110.959824,73.020615 
	C111.780869,72.955467 111.969849,72.937737 112.158829,72.919998 
	C114.669456,73.457390 117.180092,73.994789 119.903107,74.816483 
	C120.102745,76.249023 120.319008,77.459328 120.028282,78.532242 
	C119.469772,80.593422 119.114746,83.151787 117.699051,84.360222 
	C116.942154,85.006310 114.150894,83.269142 112.130264,81.920319 
	C111.702667,79.858658 111.422546,78.484222 111.142433,77.109795 
	C110.431511,77.323853 109.720589,77.537918 109.009666,77.751976 
	C109.639320,79.166527 110.268982,80.581070 110.898636,81.995621 
	C108.731010,86.812386 106.911476,84.814682 105.050919,81.102242 
	C104.727478,80.034248 104.502037,79.565926 104.276596,79.097603 
	C104.184113,78.062943 104.091629,77.028282 104.013214,75.607529 
z"/>
<path fill="#080B0C" opacity="1.000000" stroke="none" 
	d="
M121.134972,62.086124 
	C115.428490,65.796654 109.553078,66.016518 103.118378,62.774887 
	C103.633141,60.880211 104.547592,59.149384 105.998047,57.287888 
	C106.808815,56.966125 107.083603,56.775036 107.358383,56.583950 
	C107.358383,56.583950 107.368530,56.498890 107.732292,56.403671 
	C108.938019,55.964333 109.779984,55.620216 110.621948,55.276093 
	C110.621948,55.276093 110.845741,55.359688 111.321159,55.305702 
	C114.605751,55.744331 117.414932,56.236950 120.224106,56.729565 
	C120.224106,56.729565 120.112816,56.820919 120.084473,57.186481 
	C120.415741,59.063404 120.775352,60.574764 121.134972,62.086124 
z"/>
<path fill="#72BFC8" opacity="1.000000" stroke="none" 
	d="
M120.302338,56.367851 
	C117.414932,56.236950 114.605751,55.744331 111.401306,55.217140 
	C112.462296,54.561054 113.918549,53.939548 115.672478,53.191002 
	C113.740913,47.026985 112.517273,40.596828 116.118057,34.663551 
	C117.516327,32.359501 120.244827,30.862743 122.746384,29.001291 
	C120.972893,32.527782 118.526237,35.908634 116.733650,39.606548 
	C113.692268,45.880577 117.391098,50.924828 120.302338,56.367851 
z"/>
<path fill="#041318" opacity="1.000000" stroke="none" 
	d="
M57.304718,47.779236 
	C56.139050,45.945751 54.822086,44.053917 54.497280,42.004818 
	C54.204247,40.156158 54.587002,37.902702 55.498264,36.296772 
	C55.903687,35.582287 58.339718,36.020054 59.854084,35.934830 
	C59.905315,37.716209 60.189041,39.532524 59.928398,41.267033 
	C59.745853,42.481827 58.820011,43.584923 58.515068,44.897949 
	C58.397820,45.922798 57.991638,46.787601 57.304718,47.779236 
z"/>
<path fill="#72C3CA" opacity="1.000000" stroke="none" 
	d="
M72.032578,55.303612 
	C76.276062,57.380756 80.507271,59.835381 84.938782,62.541412 
	C80.242485,64.451950 73.905334,61.016563 72.032578,55.303612 
z"/>
<path fill="#72BFC8" opacity="1.000000" stroke="none" 
	d="
M121.388901,62.276390 
	C120.775352,60.574764 120.415741,59.063404 120.154305,57.168983 
	C123.423584,57.632244 126.594688,58.478569 129.970917,59.625900 
	C128.069412,60.187714 125.962784,60.448521 123.540245,60.748436 
	C123.960899,61.540733 124.440887,62.444778 124.963226,63.673790 
	C123.884674,63.488056 122.763756,62.977352 121.388901,62.276390 
z"/>
<path fill="#72C3CA" opacity="1.000000" stroke="none" 
	d="
M68.874252,42.116062 
	C70.128662,45.931705 71.091713,50.054089 72.070335,54.567837 
	C68.176682,52.975990 67.175827,49.394165 68.874252,42.116062 
z"/>
<path fill="#72BFC8" opacity="1.000000" stroke="none" 
	d="
M131.870239,25.786310 
	C129.701080,26.742758 127.266846,27.422382 124.438171,28.205036 
	C125.507317,24.519609 128.499115,24.860214 131.870239,25.786310 
z"/>
<path fill="#72C3CA" opacity="1.000000" stroke="none" 
	d="
M72.486496,34.972935 
	C71.841431,37.043030 70.827034,39.153221 69.436539,41.339561 
	C70.079338,39.281479 71.098251,37.147255 72.486496,34.972935 
z"/>
<path fill="#F4F5F4" opacity="1.000000" stroke="none" 
	d="
M111.162971,82.005310 
	C110.268982,80.581070 109.639320,79.166527 109.009666,77.751976 
	C109.720589,77.537918 110.431511,77.323853 111.142433,77.109795 
	C111.422546,78.484222 111.702667,79.858658 111.969238,81.636963 
	C111.779556,82.032227 111.603424,82.023605 111.162971,82.005310 
z"/>
<path fill="#72C3CA" opacity="1.000000" stroke="none" 
	d="
M87.011612,63.008556 
	C87.751343,62.360176 88.708527,61.972500 89.832977,61.823551 
	C89.076508,62.464603 88.152779,62.866932 87.011612,63.008556 
z"/>
<path fill="#6CCCD7" opacity="1.000000" stroke="none" 
	d="
M163.899567,40.104744 
	C163.234772,39.346298 162.617477,38.537708 161.971603,37.392536 
	C161.943024,37.055958 162.173233,36.850304 162.521820,36.963463 
	C163.260941,38.035812 163.651489,38.994999 164.042023,39.954185 
	C164.042023,39.954189 163.947098,40.054596 163.899567,40.104744 
z"/>
<path fill="#72BFC8" opacity="1.000000" stroke="none" 
	d="
M110.220261,55.199951 
	C109.779984,55.620216 108.938019,55.964333 107.769180,56.425430 
	C108.234398,56.069546 109.026489,55.596676 110.220261,55.199951 
z"/>
<path fill="#F4F5F4" opacity="1.000000" stroke="none" 
	d="
M104.217422,79.372498 
	C104.502037,79.565926 104.727478,80.034248 104.955154,80.773010 
	C104.691017,80.578102 104.424637,80.112747 104.217422,79.372498 
z"/>
<path fill="#72BFC8" opacity="1.000000" stroke="none" 
	d="
M127.234024,72.005997 
	C127.179359,71.847282 127.316727,71.522873 127.713348,71.098557 
	C127.790413,71.279198 127.608231,71.559753 127.234024,72.005997 
z"/>
<path fill="#72BFC8" opacity="1.000000" stroke="none" 
	d="
M128.383698,69.873459 
	C128.269775,69.971657 128.162781,69.506439 128.205322,69.271683 
	C128.562012,69.217705 128.645264,69.463814 128.383698,69.873459 
z"/>
<path fill="#72BFC8" opacity="1.000000" stroke="none" 
	d="
M127.893890,67.798508 
	C127.680855,67.819557 127.377014,67.588425 127.074425,67.059479 
	C127.318146,67.023209 127.560623,67.284767 127.893890,67.798508 
z"/>
<path fill="#72BFC8" opacity="1.000000" stroke="none" 
	d="
M126.860023,65.996643 
	C126.630623,66.030624 126.376053,65.783264 126.068451,65.270065 
	C126.288567,65.241249 126.561707,65.478264 126.860023,65.996643 
z"/>
<path fill="#72BFC8" opacity="1.000000" stroke="none" 
	d="
M125.878403,64.778961 
	C125.652145,64.924500 125.379570,64.748383 125.090317,64.226974 
	C125.304466,64.119377 125.557289,64.311249 125.878403,64.778961 
z"/>
<path fill="#72BFC8" opacity="1.000000" stroke="none" 
	d="
M107.105553,56.507851 
	C107.083603,56.775036 106.808815,56.966125 106.285202,57.095467 
	C106.308487,56.833065 106.580605,56.632408 107.105553,56.507851 
z"/>
<path fill="#03181B" opacity="1.000000" stroke="none" 
	d="
M164.388870,39.951523 
	C163.651489,38.994999 163.260941,38.035812 162.637390,36.861176 
	C161.608536,35.273891 160.812698,33.902054 160.016861,32.530220 
	C160.351776,32.101234 160.686691,31.672253 161.021606,31.243269 
	C163.095810,32.681862 165.361725,33.936115 167.076874,35.719933 
	C167.406281,36.062527 165.571884,38.485588 164.388870,39.951523 
z"/>
<path fill="#111010" opacity="1.000000" stroke="none" 
	d="
M120.193794,41.159889 
	C122.854683,38.240246 125.540726,37.731030 128.190994,40.331776 
	C131.156326,43.241692 129.949341,46.298500 127.776505,48.951015 
	C125.664505,51.529266 120.951500,50.269600 119.842186,46.727463 
	C119.347321,45.147316 119.893250,43.241222 120.193794,41.159889 
z"/>
<path fill="#101010" opacity="1.000000" stroke="none" 
	d="
M77.471657,40.248306 
	C78.792236,40.259663 79.859268,40.182541 80.690323,40.588497 
	C84.012718,42.211460 85.215469,45.881664 83.334396,48.918472 
	C81.525322,51.839046 78.898911,53.090042 75.881615,50.793056 
	C72.769478,48.423874 72.518265,45.288300 74.770081,42.111813 
	C75.302979,41.360081 76.316971,40.949406 77.471657,40.248306 
z"/>
<path fill="#F4F5F4" opacity="1.000000" stroke="none" 
	d="
M112.033882,72.755562 
	C111.969849,72.937737 111.780869,72.955467 111.307755,72.989525 
	C111.318726,72.867599 111.613831,72.729362 112.033882,72.755562 
z"/>
</svg>