<svg version="1.1" id="Layer_1" xmlns="http://www.w3.org/2000/svg" xmlns:xlink="http://www.w3.org/1999/xlink" x="0px" y="0px"
	 width="100%" viewBox="0 0 225 225" enable-background="new 0 0 225 225" xml:space="preserve">
<path fill="#000000" opacity="1.000000" stroke="none" 
	d="
M128.000000,226.000000 
	C85.333336,226.000000 43.166672,226.000000 1.000006,226.000000 
	C1.000004,151.000000 1.000004,76.000015 1.000002,1.000016 
	C75.999992,1.000010 150.999985,1.000010 225.999969,1.000005 
	C225.999985,75.999985 225.999985,150.999969 226.000000,225.999969 
	C193.500000,226.000000 161.000000,226.000000 128.000000,226.000000 
M30.009544,88.021065 
	C30.020927,105.302216 30.032310,122.583366 29.279997,140.026871 
	C21.858850,141.270020 17.877464,147.384659 16.439686,153.082947 
	C14.629160,160.258514 14.772431,168.652939 22.247818,174.020462 
	C32.054325,181.061798 41.323963,179.251129 49.905254,171.884949 
	C52.377476,173.686493 54.457928,175.464218 56.774429,176.846283 
	C68.092644,183.598877 79.383186,190.409012 90.899796,196.809647 
	C93.602272,198.311600 94.311081,199.773117 93.954445,202.522156 
	C92.667740,212.440445 99.460609,220.290680 108.373543,222.686218 
	C118.596321,225.433807 129.808838,219.537888 132.325806,209.902100 
	C133.116562,206.874863 133.319275,203.449661 132.782166,200.383331 
	C132.145615,196.749329 134.255096,195.999985 136.655121,195.003845 
	C137.799500,194.528900 138.943832,194.027084 140.018539,193.415131 
	C151.399490,186.934692 162.712845,180.331680 174.201752,174.049377 
	C175.717728,173.220444 179.086517,173.167831 179.930145,174.165436 
	C183.969254,178.941772 189.205307,177.976013 194.261047,177.952408 
	C202.825485,177.912445 208.682755,171.487762 210.159698,165.853790 
	C213.210693,154.215500 209.832535,144.597672 196.986862,138.966782 
	C196.968918,121.691399 196.950989,104.416023 197.700058,86.973122 
	C202.695831,86.588097 204.677109,82.549416 207.539917,79.306931 
	C211.292145,75.057045 212.875259,70.425713 211.421112,65.104034 
	C207.306229,50.044922 192.591156,44.443516 179.042572,52.499321 
	C177.869247,53.196972 175.819473,53.786316 174.840714,53.238914 
	C161.872299,45.986038 148.951416,38.639046 136.225861,30.971645 
	C134.454697,29.904476 132.631592,26.881447 132.823547,24.963055 
	C133.532608,17.876719 131.140884,12.443313 125.687233,8.245784 
	C119.317200,3.342949 112.107697,2.464510 104.953491,5.745878 
	C99.558388,8.220407 94.632607,12.641768 94.317909,18.683626 
	C93.947906,25.787237 92.907143,30.635735 85.334328,33.695503 
	C78.297890,36.538555 72.270988,41.808815 65.621040,45.705681 
	C61.414169,48.170898 56.681610,49.763184 52.570160,52.357628 
	C50.263271,53.813347 49.190697,53.995987 46.660358,52.483658 
	C34.174721,45.021252 20.051725,49.005028 16.466812,63.170414 
	C13.533786,74.759956 19.442816,84.988556 30.009544,88.021065 
z"/>
<path fill="#E138A9" opacity="1.000000" stroke="none" 
	d="
M196.932510,139.878372 
	C209.832535,144.597672 213.210693,154.215500 210.159698,165.853790 
	C208.682755,171.487762 202.825485,177.912445 194.261047,177.952408 
	C189.205307,177.976013 183.969254,178.941772 179.930145,174.165436 
	C179.086517,173.167831 175.717728,173.220444 174.201752,174.049377 
	C162.712845,180.331680 151.399490,186.934692 140.018539,193.415131 
	C138.943832,194.027084 137.799500,194.528900 136.655121,195.003845 
	C134.255096,195.999985 132.145615,196.749329 132.782166,200.383331 
	C133.319275,203.449661 133.116562,206.874863 132.325806,209.902100 
	C129.808838,219.537888 118.596321,225.433807 108.373543,222.686218 
	C99.460609,220.290680 92.667740,212.440445 93.954445,202.522156 
	C94.311081,199.773117 93.602272,198.311600 90.899796,196.809647 
	C79.383186,190.409012 68.092644,183.598877 56.774429,176.846283 
	C54.457928,175.464218 52.377476,173.686493 49.905254,171.884949 
	C41.323963,179.251129 32.054325,181.061798 22.247818,174.020462 
	C14.772431,168.652939 14.629160,160.258514 16.439686,153.082947 
	C17.877464,147.384659 21.858850,141.270020 29.889999,139.861664 
	C30.746214,139.476959 30.946709,139.221588 31.355667,138.612488 
	C31.727421,122.054749 31.864071,105.814896 31.908575,89.574783 
	C31.910900,88.725586 31.129568,87.874245 30.555300,87.080902 
	C30.397526,87.137894 30.063530,87.106094 30.063530,87.106094 
	C19.442816,84.988556 13.533786,74.759956 16.466812,63.170414 
	C20.051725,49.005028 34.174721,45.021252 46.660358,52.483658 
	C49.190697,53.995987 50.263271,53.813347 52.570160,52.357628 
	C56.681610,49.763184 61.414169,48.170898 65.621040,45.705681 
	C72.270988,41.808815 78.297890,36.538555 85.334328,33.695503 
	C92.907143,30.635735 93.947906,25.787237 94.317909,18.683626 
	C94.632607,12.641768 99.558388,8.220407 104.953491,5.745878 
	C112.107697,2.464510 119.317200,3.342949 125.687233,8.245784 
	C131.140884,12.443313 133.532608,17.876719 132.823547,24.963055 
	C132.631592,26.881447 134.454697,29.904476 136.225861,30.971645 
	C148.951416,38.639046 161.872299,45.986038 174.840714,53.238914 
	C175.819473,53.786316 177.869247,53.196972 179.042572,52.499321 
	C192.591156,44.443516 207.306229,50.044922 211.421112,65.104034 
	C212.875259,70.425713 211.292145,75.057045 207.539917,79.306931 
	C204.677109,82.549416 202.695831,86.588097 197.135406,87.062286 
	C196.570740,87.151443 196.220413,87.056229 195.903320,87.331932 
	C195.390518,88.401993 195.025970,89.195961 195.024124,89.990768 
	C194.988129,105.460876 194.966202,120.931236 195.047867,136.400986 
	C195.054123,137.586136 195.853241,138.767120 196.441437,139.890747 
	C196.599030,139.831451 196.932510,139.878372 196.932510,139.878372 
M54.097000,163.709518 
	C54.399475,164.108765 54.701950,164.507996 55.654392,165.205994 
	C57.085022,165.944336 58.547855,166.626816 59.941235,167.429810 
	C72.406837,174.613556 84.839676,181.854752 97.355278,188.950058 
	C98.380768,189.531433 100.361191,189.742661 101.195595,189.145157 
	C110.348259,182.590805 119.746567,183.305054 127.658981,190.719543 
	C135.503555,186.115616 143.311447,181.602341 151.049057,176.971603 
	C158.069595,172.770035 165.013565,168.440491 172.307892,163.868256 
	C172.178268,163.545898 172.048645,163.223557 171.281479,162.400009 
	C170.468567,162.269089 169.655701,162.024033 168.842712,162.023636 
	C131.949051,162.005753 95.055336,161.996841 58.161766,162.059097 
	C56.787331,162.061417 55.414112,162.781570 54.097000,163.709518 
M40.373360,87.230858 
	C39.910854,88.860428 39.059448,90.487015 39.046883,92.120049 
	C38.938801,106.166618 38.954426,120.214485 39.018814,134.261566 
	C39.026089,135.849121 39.563107,137.434219 40.202431,139.583649 
	C42.465977,135.867355 44.814342,132.199600 46.975124,128.424484 
	C51.265720,120.928383 55.373680,113.327095 59.709946,105.858002 
	C62.753189,100.616096 66.177826,95.594994 69.201828,90.342682 
	C73.487030,82.899803 77.441338,75.265747 81.757507,67.841560 
	C86.028145,60.495701 90.641457,53.349678 94.961250,46.031475 
	C96.575630,43.296551 97.785629,40.322922 99.180008,37.458134 
	C98.779480,37.179726 98.378944,36.901318 97.978416,36.622913 
	C96.263657,38.118515 94.691673,39.829983 92.810608,41.074142 
	C81.839973,48.330261 69.288498,52.748325 58.491066,60.475815 
	C55.146503,62.869450 53.503529,64.660370 53.986511,68.492645 
	C55.144409,77.680046 48.975250,83.934135 40.373360,87.230858 
M187.501419,138.368439 
	C187.650604,137.898758 187.929001,137.429398 187.930237,136.959320 
	C187.969955,121.692398 188.004913,106.425346 187.952087,91.158615 
	C187.948456,90.108673 187.259369,89.061111 186.248642,87.734039 
	C177.694885,82.737175 170.717407,76.808418 172.982925,65.382736 
	C173.078018,64.903206 173.169769,64.278648 172.949310,63.908527 
	C172.338516,62.883038 171.746277,61.688965 170.813095,61.044811 
	C168.673935,59.568207 166.369751,58.316788 164.072891,57.085247 
	C158.131790,53.899719 152.133575,50.820328 146.204926,47.612148 
	C140.308914,44.421635 134.469879,41.125877 127.372017,37.192524 
	C128.272797,39.289780 128.498550,40.016171 128.872269,40.656162 
	C138.238342,56.695343 147.687195,72.686607 156.978592,88.768852 
	C165.051483,102.741997 172.891937,116.849480 180.971802,130.818527 
	C182.644165,133.709839 184.919113,136.252625 187.501419,138.368439 
M146.545761,90.013245 
	C146.177612,89.676247 145.692245,89.405632 145.458359,88.992599 
	C138.403244,76.533249 131.105881,64.200241 124.446571,51.531979 
	C120.887238,44.760914 116.889435,39.977795 108.440628,42.026756 
	C108.120453,42.104408 107.799675,42.179592 107.651283,42.214935 
	C106.269867,45.103374 105.118279,47.988125 103.579399,50.648869 
	C95.668571,64.326675 87.603386,77.915230 79.696823,91.595467 
	C70.217354,107.997200 61.047001,124.582275 51.290070,140.815857 
	C48.639610,145.225693 51.435341,147.782654 52.563164,151.175003 
	C53.654987,154.459076 56.108425,154.051682 58.582279,154.050812 
	C84.725731,154.041565 110.869179,154.044342 137.012634,154.043945 
	C148.824341,154.043777 160.636032,154.043915 171.907059,154.043915 
	C173.192169,152.189392 174.605698,150.893219 175.062210,149.319427 
	C175.776978,146.855316 176.905121,143.714584 175.986923,141.723343 
	C173.282639,135.858765 169.536179,130.485092 166.430557,124.792213 
	C163.584839,119.575821 161.259766,114.069557 158.310257,108.917145 
	C154.750198,102.698166 150.773911,96.717468 146.545761,90.013245 
z"/>
<path fill="#F7AEDE" opacity="1.000000" stroke="none" 
	d="
M30.036537,87.563583 
	C30.063530,87.106094 30.397526,87.137894 30.652519,87.541206 
	C30.972168,104.939781 31.036825,121.935051 31.101482,138.930313 
	C30.946709,139.221588 30.746214,139.476959 30.271847,139.780487 
	C30.032310,122.583366 30.020927,105.302216 30.036537,87.563583 
z"/>
<path fill="#FFA5E8" opacity="1.000000" stroke="none" 
	d="
M196.959686,139.422577 
	C196.932510,139.878372 196.599030,139.831451 196.343964,139.433685 
	C196.132751,121.709366 196.176575,104.382797 196.220413,87.056229 
	C196.220413,87.056229 196.570740,87.151443 196.751892,87.146042 
	C196.950989,104.416023 196.968918,121.691399 196.959686,139.422577 
z"/>
<path fill="#000000" opacity="1.000000" stroke="none" 
	d="
M146.761765,90.323441 
	C150.773911,96.717468 154.750198,102.698166 158.310257,108.917145 
	C161.259766,114.069557 163.584839,119.575821 166.430557,124.792213 
	C169.536179,130.485092 173.282639,135.858765 175.986923,141.723343 
	C176.905121,143.714584 175.776978,146.855316 175.062210,149.319427 
	C174.605698,150.893219 173.192169,152.189392 171.907059,154.043915 
	C160.636032,154.043915 148.824341,154.043777 137.012634,154.043945 
	C110.869179,154.044342 84.725731,154.041565 58.582279,154.050812 
	C56.108425,154.051682 53.654987,154.459076 52.563164,151.175003 
	C51.435341,147.782654 48.639610,145.225693 51.290070,140.815857 
	C61.047001,124.582275 70.217354,107.997200 79.696823,91.595467 
	C87.603386,77.915230 95.668571,64.326675 103.579399,50.648869 
	C105.118279,47.988125 106.269867,45.103374 107.651283,42.214935 
	C107.799675,42.179592 108.120453,42.104408 108.440628,42.026756 
	C116.889435,39.977795 120.887238,44.760914 124.446571,51.531979 
	C131.105881,64.200241 138.403244,76.533249 145.458359,88.992599 
	C145.692245,89.405632 146.177612,89.676247 146.761765,90.323441 
z"/>
<path fill="#000000" opacity="1.000000" stroke="none" 
	d="
M186.916336,138.956039 
	C184.919113,136.252625 182.644165,133.709839 180.971802,130.818527 
	C172.891937,116.849480 165.051483,102.741997 156.978592,88.768852 
	C147.687195,72.686607 138.238342,56.695343 128.872269,40.656162 
	C128.498550,40.016171 128.272797,39.289780 127.372017,37.192524 
	C134.469879,41.125877 140.308914,44.421635 146.204926,47.612148 
	C152.133575,50.820328 158.131790,53.899719 164.072891,57.085247 
	C166.369751,58.316788 168.673935,59.568207 170.813095,61.044811 
	C171.746277,61.688965 172.338516,62.883038 172.949310,63.908527 
	C173.169769,64.278648 173.078018,64.903206 172.982925,65.382736 
	C170.717407,76.808418 177.694885,82.737175 186.619415,88.339386 
	C186.965561,105.615166 186.940948,122.285599 186.916336,138.956039 
z"/>
<path fill="#000000" opacity="1.000000" stroke="none" 
	d="
M41.167320,87.027832 
	C48.975250,83.934135 55.144409,77.680046 53.986511,68.492645 
	C53.503529,64.660370 55.146503,62.869450 58.491066,60.475815 
	C69.288498,52.748325 81.839973,48.330261 92.810608,41.074142 
	C94.691673,39.829983 96.263657,38.118515 97.978416,36.622913 
	C98.378944,36.901318 98.779480,37.179726 99.180008,37.458134 
	C97.785629,40.322922 96.575630,43.296551 94.961250,46.031475 
	C90.641457,53.349678 86.028145,60.495701 81.757507,67.841560 
	C77.441338,75.265747 73.487030,82.899803 69.201828,90.342682 
	C66.177826,95.594994 62.753189,100.616096 59.709946,105.858002 
	C55.373680,113.327095 51.265720,120.928383 46.975124,128.424484 
	C44.814342,132.199600 42.465977,135.867355 40.089203,138.833862 
	C39.983761,122.944984 39.951080,107.805634 40.050797,92.667145 
	C40.063198,90.785004 40.777996,88.907494 41.167320,87.027832 
z"/>
<path fill="#000000" opacity="1.000000" stroke="none" 
	d="
M171.991302,164.167358 
	C165.013565,168.440491 158.069595,172.770035 151.049057,176.971603 
	C143.311447,181.602341 135.503555,186.115616 127.658981,190.719543 
	C119.746567,183.305054 110.348259,182.590805 101.195595,189.145157 
	C100.361191,189.742661 98.380768,189.531433 97.355278,188.950058 
	C84.839676,181.854752 72.406837,174.613556 59.941235,167.429810 
	C58.547855,166.626816 57.085022,165.944336 55.535515,164.676910 
	C94.274849,164.154327 133.133072,164.160843 171.991302,164.167358 
z"/>
<path fill="#F9B1DF" opacity="1.000000" stroke="none" 
	d="
M172.149597,164.017807 
	C133.133072,164.160843 94.274849,164.154327 55.210533,164.527527 
	C54.701950,164.507996 54.399475,164.108765 54.530563,163.377991 
	C93.949089,162.998047 132.934052,162.949631 171.919022,162.901215 
	C172.048645,163.223557 172.178268,163.545898 172.149597,164.017807 
z"/>
<path fill="#C73699" opacity="1.000000" stroke="none" 
	d="
M171.600250,162.650604 
	C132.934052,162.949631 93.949089,162.998047 54.502228,163.106827 
	C55.414112,162.781570 56.787331,162.061417 58.161766,162.059097 
	C95.055336,161.996841 131.949051,162.005753 168.842712,162.023636 
	C169.655701,162.024033 170.468567,162.269089 171.600250,162.650604 
z"/>
<path fill="#C75EA2" opacity="1.000000" stroke="none" 
	d="
M40.770340,87.129349 
	C40.777996,88.907494 40.063198,90.785004 40.050797,92.667145 
	C39.951080,107.805634 39.983761,122.944984 39.915222,138.552277 
	C39.563107,137.434219 39.026089,135.849121 39.018814,134.261566 
	C38.954426,120.214485 38.938801,106.166618 39.046883,92.120049 
	C39.059448,90.487015 39.910854,88.860428 40.770340,87.129349 
z"/>
<path fill="#C43694" opacity="1.000000" stroke="none" 
	d="
M195.903320,87.331932 
	C196.176575,104.382797 196.132751,121.709366 196.186371,139.492981 
	C195.853241,138.767120 195.054123,137.586136 195.047867,136.400986 
	C194.966202,120.931236 194.988129,105.460876 195.024124,89.990768 
	C195.025970,89.195961 195.390518,88.401993 195.903320,87.331932 
z"/>
<path fill="#C73798" opacity="1.000000" stroke="none" 
	d="
M31.355667,138.612488 
	C31.036825,121.935051 30.972168,104.939781 30.810291,87.484207 
	C31.129568,87.874245 31.910900,88.725586 31.908575,89.574783 
	C31.864071,105.814896 31.727421,122.054749 31.355667,138.612488 
z"/>
<path fill="#D456AA" opacity="1.000000" stroke="none" 
	d="
M187.208878,138.662231 
	C186.940948,122.285599 186.965561,105.615166 186.939606,88.478584 
	C187.259369,89.061111 187.948456,90.108673 187.952087,91.158615 
	C188.004913,106.425346 187.969955,121.692398 187.930237,136.959320 
	C187.929001,137.429398 187.650604,137.898758 187.208878,138.662231 
z"/>
</svg>