<svg version="1.1" id="Layer_1" xmlns="http://www.w3.org/2000/svg" xmlns:xlink="http://www.w3.org/1999/xlink" x="0px" y="0px"
	 width="100%" viewBox="0 0 220 229" enable-background="new 0 0 220 229" xml:space="preserve">
<path fill="#21B4D2" opacity="1.000000" stroke="none" 
	d="
M129.000000,230.000000 
	C128.250000,230.000000 127.500000,230.000000 126.238335,229.703125 
	C124.817780,229.604172 123.908890,229.802094 123.000000,230.000000 
	C113.312439,230.000000 103.624878,230.000000 93.705116,229.628510 
	C89.133354,228.215820 84.564026,227.723877 80.500107,226.023804 
	C70.827080,221.977219 60.953449,218.104019 51.965351,212.797989 
	C38.468784,204.830490 27.393885,194.032883 20.052914,179.461304 
	C19.748554,177.636978 19.708853,176.091187 19.125124,174.789352 
	C16.035416,167.898743 11.734485,161.346497 9.880108,154.154404 
	C7.056414,143.202911 4.971148,131.874603 4.341330,120.607437 
	C3.899688,112.706650 6.501485,104.653801 7.564445,96.645012 
	C8.387938,90.440460 8.675542,84.248817 4.099971,78.614288 
	C3.674221,76.330849 3.495180,74.404320 2.931496,72.597794 
	C2.628152,71.625626 1.665287,70.859238 1.000000,70.000000 
	C1.000000,61.312435 1.000000,52.624874 1.280155,43.202965 
	C1.715467,40.372871 1.870624,38.277115 2.361379,35.965282 
	C2.131319,34.499470 1.565659,33.249733 1.000000,32.000000 
	C1.000000,31.555555 1.000000,31.111111 1.341014,30.601948 
	C3.124820,26.887377 4.632256,23.261429 5.993238,19.581318 
	C7.525173,15.438951 8.878617,11.230683 10.402055,7.085018 
	C11.161774,5.017630 12.127474,3.025934 13.000000,1.000000 
	C15.041667,1.000000 17.083334,1.000000 19.578739,1.374384 
	C25.658689,10.618685 30.961552,19.718315 37.036461,28.269470 
	C40.494656,33.137287 46.085407,32.918640 51.877819,29.812651 
	C59.754349,25.589119 67.654869,21.215591 75.985733,18.075399 
	C92.371696,11.898960 109.468056,11.743478 126.640266,14.045273 
	C142.246841,16.137209 156.626434,21.539845 169.741058,30.265659 
	C173.899139,33.032230 180.547104,32.765976 183.554153,28.822458 
	C188.058136,22.915846 192.000031,16.569284 195.998840,10.293767 
	C197.884201,7.334953 199.346161,4.106346 201.000000,0.999997 
	C203.041672,1.000000 205.083328,1.000000 207.244354,1.274499 
	C211.467438,7.798187 215.696838,13.993571 216.039825,22.290102 
	C216.022934,23.560785 215.875092,24.418554 216.040924,25.210655 
	C219.069183,39.676098 220.121719,54.217686 218.081482,68.929993 
	C217.900909,70.232048 218.731720,71.674347 219.036423,73.437103 
	C217.920166,77.888458 216.860275,81.954208 215.430893,86.139145 
	C214.853561,90.437439 213.893265,94.744553 214.578369,98.771751 
	C216.670837,111.071571 218.167023,123.306274 216.163269,135.768036 
	C215.895020,137.436386 216.600861,139.261368 216.759979,141.409149 
	C214.451218,149.562210 212.612442,157.451523 209.941864,165.048416 
	C205.334824,178.153809 197.163635,189.349228 187.347778,198.717789 
	C179.090714,206.598587 169.197556,213.016373 159.301636,218.848145 
	C151.605347,223.383667 143.283051,227.447556 133.718536,227.244141 
	C132.165939,227.211121 130.573837,229.034622 129.000000,230.000000 
M123.523186,37.496780 
	C117.822029,36.999329 112.126846,36.257782 106.416939,36.118248 
	C103.951485,36.057995 101.455620,37.242195 98.189285,37.973076 
	C95.437469,38.800629 92.688980,39.639458 89.933311,40.453979 
	C64.455429,47.984749 45.936878,63.581760 35.019535,87.932495 
	C28.257378,103.015236 24.494770,118.831757 28.281645,135.134903 
	C32.836773,154.745483 40.998852,172.515381 57.272602,185.901703 
	C75.921104,201.241425 96.743965,208.196594 120.673058,204.922409 
	C143.899994,201.744308 162.205139,190.392105 176.798935,171.881271 
	C192.806229,151.577545 194.145752,128.322327 192.950989,104.205811 
	C192.928467,103.751228 192.599197,103.307556 192.395538,102.866882 
	C188.129852,93.636612 184.285400,84.179085 179.469666,75.245155 
	C175.033844,67.016022 168.316666,60.497440 160.743439,54.971409 
	C149.645523,46.873478 137.528412,40.974098 123.523186,37.496780 
z"/>
<path fill="#000000" opacity="1.000000" stroke="none" 
	d="
M200.531342,0.999997 
	C199.346161,4.106346 197.884201,7.334953 195.998840,10.293767 
	C192.000031,16.569284 188.058136,22.915846 183.554153,28.822458 
	C180.547104,32.765976 173.899139,33.032230 169.741058,30.265659 
	C156.626434,21.539845 142.246841,16.137209 126.640266,14.045273 
	C109.468056,11.743478 92.371696,11.898960 75.985733,18.075399 
	C67.654869,21.215591 59.754349,25.589119 51.877819,29.812651 
	C46.085407,32.918640 40.494656,33.137287 37.036461,28.269470 
	C30.961552,19.718315 25.658689,10.618685 20.016239,1.374384 
	C80.020897,1.000000 140.041794,1.000000 200.531342,0.999997 
z"/>
<path fill="#000000" opacity="1.000000" stroke="none" 
	d="
M129.468658,230.000000 
	C130.573837,229.034622 132.165939,227.211121 133.718536,227.244141 
	C143.283051,227.447556 151.605347,223.383667 159.301636,218.848145 
	C169.197556,213.016373 179.090714,206.598587 187.347778,198.717789 
	C197.163635,189.349228 205.334824,178.153809 209.941864,165.048416 
	C212.612442,157.451523 214.451218,149.562210 216.953339,141.047607 
	C217.818924,136.795273 219.045837,133.264618 218.858963,129.810471 
	C218.068588,115.201241 216.857605,100.614754 215.800385,86.019958 
	C216.860275,81.954208 217.920166,77.888458 219.397217,73.300247 
	C220.209610,72.851868 220.604797,72.925934 221.000000,73.000000 
	C221.000000,125.241234 221.000000,177.482468 221.000000,230.000000 
	C190.646332,230.000000 160.291824,230.000000 129.468658,230.000000 
z"/>
<path fill="#000000" opacity="1.000000" stroke="none" 
	d="
M20.066540,179.852402 
	C27.393885,194.032883 38.468784,204.830490 51.965351,212.797989 
	C60.953449,218.104019 70.827080,221.977219 80.500107,226.023804 
	C84.564026,227.723877 89.133354,228.215820 93.236458,229.628510 
	C62.401928,230.000000 31.803856,230.000000 1.000000,230.000000 
	C1.000000,195.646042 1.000000,161.291687 1.415708,126.299698 
	C2.228008,126.674095 2.970263,127.686752 2.968332,128.697998 
	C2.946237,140.272507 5.732860,151.302475 10.151068,161.823212 
	C12.792007,168.111877 16.718113,173.860840 20.066540,179.852402 
z"/>
<path fill="#3BAEC6" opacity="1.000000" stroke="none" 
	d="
M20.052910,179.461304 
	C16.718113,173.860840 12.792007,168.111877 10.151068,161.823212 
	C5.732860,151.302475 2.946237,140.272507 2.968332,128.697998 
	C2.970263,127.686752 2.228008,126.674095 1.415708,125.831039 
	C1.000000,123.629440 1.000000,121.258888 1.410093,118.621216 
	C2.866478,111.410416 4.367936,104.496330 4.822085,97.514130 
	C5.220454,91.389503 4.444049,85.188454 4.186542,79.021164 
	C8.675542,84.248817 8.387938,90.440460 7.564445,96.645012 
	C6.501485,104.653801 3.899688,112.706650 4.341330,120.607437 
	C4.971148,131.874603 7.056414,143.202911 9.880108,154.154404 
	C11.734485,161.346497 16.035416,167.898743 19.125124,174.789352 
	C19.708853,176.091187 19.748554,177.636978 20.052910,179.461304 
z"/>
<path fill="#000000" opacity="1.000000" stroke="none" 
	d="
M216.054901,21.846622 
	C215.696838,13.993571 211.467438,7.798187 207.681854,1.274499 
	C212.289764,1.000000 216.579544,1.000000 221.000000,1.000000 
	C221.000000,11.020595 221.000000,21.041639 220.624207,31.719124 
	C219.824295,31.401884 219.369476,30.440239 218.982025,29.452179 
	C217.990326,26.923264 217.028610,24.382591 216.054901,21.846622 
z"/>
<path fill="#000000" opacity="1.000000" stroke="none" 
	d="
M12.520824,1.000000 
	C12.127474,3.025934 11.161774,5.017630 10.402055,7.085018 
	C8.878617,11.230683 7.525173,15.438951 5.993238,19.581318 
	C4.632256,23.261429 3.124820,26.887377 1.341014,30.268616 
	C1.000000,20.442734 1.000000,10.885466 1.000000,1.000000 
	C4.674047,1.000000 8.357848,1.000000 12.520824,1.000000 
z"/>
<path fill="#000000" opacity="1.000000" stroke="none" 
	d="
M4.099971,78.614288 
	C4.444049,85.188454 5.220454,91.389503 4.822085,97.514130 
	C4.367936,104.496330 2.866478,111.410416 1.410093,118.177048 
	C1.000000,102.312439 1.000000,86.624878 1.000000,70.468658 
	C1.665287,70.859238 2.628152,71.625626 2.931496,72.597794 
	C3.495180,74.404320 3.674221,76.330849 4.099971,78.614288 
z"/>
<path fill="#30A7C0" opacity="1.000000" stroke="none" 
	d="
M216.039825,22.290104 
	C217.028610,24.382591 217.990326,26.923264 218.982025,29.452179 
	C219.369476,30.440239 219.824295,31.401884 220.624207,32.187782 
	C221.000000,37.354931 221.000000,42.709858 220.692413,48.810703 
	C220.589905,53.704411 220.794952,57.852207 221.000000,62.000000 
	C221.000000,65.361290 221.000000,68.722572 221.000000,72.541931 
	C220.604797,72.925934 220.209610,72.851868 219.453613,72.914658 
	C218.731720,71.674347 217.900909,70.232048 218.081482,68.929993 
	C220.121719,54.217686 219.069183,39.676098 216.040924,25.210655 
	C215.875092,24.418554 216.022934,23.560785 216.039825,22.290104 
z"/>
<path fill="#5BDEF9" opacity="1.000000" stroke="none" 
	d="
M221.000000,61.536816 
	C220.794952,57.852207 220.589905,53.704411 220.692413,49.278309 
	C221.000000,53.024544 221.000000,57.049088 221.000000,61.536816 
z"/>
<path fill="#000000" opacity="1.000000" stroke="none" 
	d="
M1.000000,32.399994 
	C1.565659,33.249733 2.131319,34.499470 2.111103,35.883316 
	C1.350152,36.011623 1.175076,36.005810 1.000000,36.000000 
	C1.000000,34.933331 1.000000,33.866661 1.000000,32.399994 
z"/>
<path fill="#BCFFFF" opacity="1.000000" stroke="none" 
	d="
M1.000000,36.437500 
	C1.175076,36.005810 1.350152,36.011623 1.775504,36.099396 
	C1.870624,38.277115 1.715467,40.372871 1.280155,42.734314 
	C1.000000,40.958332 1.000000,38.916668 1.000000,36.437500 
z"/>
<path fill="#C4FDFF" opacity="1.000000" stroke="none" 
	d="
M123.375000,230.000000 
	C123.908890,229.802094 124.817780,229.604172 125.863335,229.703125 
	C125.250000,230.000000 124.500000,230.000000 123.375000,230.000000 
z"/>
<path fill="#000000" opacity="1.000000" stroke="none" 
	d="
M124.032028,38.081078 
	C137.528412,40.974098 149.645523,46.873478 160.743439,54.971409 
	C168.316666,60.497440 175.033844,67.016022 179.469666,75.245155 
	C184.285400,84.179085 188.129852,93.636612 192.395538,102.866882 
	C192.599197,103.307556 192.928467,103.751228 192.950989,104.205811 
	C194.145752,128.322327 192.806229,151.577545 176.798935,171.881271 
	C162.205139,190.392105 143.899994,201.744308 120.673058,204.922409 
	C96.743965,208.196594 75.921104,201.241425 57.272602,185.901703 
	C40.998852,172.515381 32.836773,154.745483 28.281645,135.134903 
	C24.494770,118.831757 28.257378,103.015236 35.019535,87.932495 
	C45.936878,63.581760 64.455429,47.984749 89.933311,40.453979 
	C92.688980,39.639458 95.437469,38.800629 98.924347,38.088200 
	C106.590660,38.486851 113.520554,38.822449 120.454468,39.003693 
	C121.638138,39.034637 122.839073,38.405354 124.032028,38.081078 
M143.944763,148.430191 
	C143.643021,148.264099 143.341263,148.097992 143.017868,148.004044 
	C143.017868,148.004044 143.066711,147.946533 143.021454,147.213104 
	C141.369446,144.453506 139.717438,141.693924 138.005692,138.992554 
	C138.005692,138.992554 138.084167,138.964294 138.037567,138.334534 
	C137.716919,137.867676 137.396286,137.400833 136.997971,136.978226 
	C136.997971,136.978226 137.084885,136.958847 137.043686,136.329254 
	C136.722198,135.866211 136.400726,135.403183 136.033508,134.973984 
	C136.033508,134.973984 136.069290,134.947311 135.940598,134.420456 
	C135.640335,134.238998 135.340088,134.057526 134.983032,133.151993 
	C128.944534,122.778168 122.906029,112.404335 116.960693,101.476219 
	C116.659233,101.282364 116.357780,101.088501 116.031509,100.979675 
	C116.031509,100.979675 116.104919,100.930115 115.991325,100.261948 
	C115.352272,99.156128 114.713226,98.050308 113.999115,96.978485 
	C113.999115,96.978485 114.070839,96.931694 114.057938,96.271484 
	C113.391365,95.493591 112.724800,94.715698 112.007889,94.004311 
	C112.007889,94.004311 112.069962,93.946983 112.021393,93.290726 
	C111.373497,92.503738 110.725609,91.716751 109.998764,90.969269 
	C109.998764,90.969269 110.086227,90.958984 110.025108,90.334587 
	C109.706764,89.869026 109.388420,89.403473 109.006355,88.994278 
	C109.006355,88.994278 109.073570,88.934586 109.038551,88.277115 
	C108.381050,87.499321 107.723557,86.721519 107.013031,86.000458 
	C107.013031,86.000458 107.052475,85.935036 106.691460,85.208160 
	C100.054955,85.038635 93.417542,84.782921 86.783531,84.851921 
	C86.209969,84.857887 84.860031,87.475891 85.220268,88.093735 
	C88.960732,94.509109 92.978172,100.763000 96.996361,107.046616 
	C96.996361,107.046616 96.920769,107.080032 96.937958,107.787331 
	C98.279503,109.554634 99.621048,111.321930 101.006851,113.874855 
	C101.066666,116.030602 101.994408,118.729172 101.042068,120.251900 
	C95.800293,128.633133 89.711365,136.501541 84.750183,145.032700 
	C82.825005,148.343201 78.154358,150.834579 79.290192,156.310257 
	C80.501228,156.870087 81.689377,157.844177 82.927567,157.912598 
	C86.742500,158.123398 90.576561,157.987640 94.403191,157.987457 
	C102.007057,157.987106 103.410881,156.911179 106.004539,148.998398 
	C106.004539,148.998398 106.053291,149.059418 106.677048,148.777466 
	C107.912849,146.811493 109.148651,144.845520 110.763260,142.724152 
	C110.763260,142.724152 110.917595,142.344925 111.354729,142.153397 
	C111.534439,141.768524 111.714149,141.383652 112.145935,140.391846 
	C112.463470,139.617355 112.781006,138.842880 113.023224,138.010315 
	C113.023224,138.010315 113.062073,138.097122 113.678284,138.072876 
	C114.088821,138.083664 114.499359,138.094452 114.997360,138.009995 
	C114.997360,138.009995 114.894478,138.088120 114.935379,138.821045 
	C118.343857,144.686127 121.752335,150.551193 125.291275,156.719620 
	C125.291275,156.719620 125.606598,156.817688 126.065506,157.438904 
	C132.482391,157.617828 138.899353,157.919922 145.316101,157.915405 
	C147.904160,157.913589 148.767090,156.274170 147.400986,153.941818 
	C146.764847,152.855774 145.841141,151.938187 145.006210,150.999908 
	C145.006210,150.999908 145.070053,150.972488 145.015747,150.346909 
	C144.697815,149.880356 144.379898,149.413818 143.999390,148.991211 
	C143.999390,148.991211 144.062515,148.954681 143.944763,148.430191 
z"/>
<path fill="#38ABBF" opacity="1.000000" stroke="none" 
	d="
M215.430893,86.139145 
	C216.857605,100.614754 218.068588,115.201241 218.858963,129.810471 
	C219.045837,133.264618 217.818924,136.795273 217.048981,140.652267 
	C216.600861,139.261368 215.895020,137.436386 216.163269,135.768036 
	C218.167023,123.306274 216.670837,111.071571 214.578369,98.771751 
	C213.893265,94.744553 214.853561,90.437439 215.430893,86.139145 
z"/>
<path fill="#30A9C2" opacity="1.000000" stroke="none" 
	d="
M123.777603,37.788929 
	C122.839073,38.405354 121.638138,39.034637 120.454468,39.003693 
	C113.520554,38.822449 106.590660,38.486851 99.316490,38.032204 
	C101.455620,37.242195 103.951485,36.057995 106.416939,36.118248 
	C112.126846,36.257782 117.822029,36.999329 123.777603,37.788929 
z"/>
<path fill="#23B4D2" opacity="1.000000" stroke="none" 
	d="
M79.902390,155.890778 
	C78.154358,150.834579 82.825005,148.343201 84.750183,145.032700 
	C89.711365,136.501541 95.800293,128.633133 101.042068,120.251900 
	C101.994408,118.729172 101.066666,116.030602 100.998314,113.078163 
	C101.343185,109.210152 100.319778,107.215889 96.920769,107.080032 
	C96.920769,107.080032 96.996361,107.046616 96.981232,106.674248 
	C94.672539,101.596077 92.343742,96.906944 90.105270,92.175072 
	C89.361870,90.603607 88.850510,88.922379 88.233063,87.291328 
	C90.039963,86.855247 91.833794,86.122162 93.656364,86.041924 
	C98.114655,85.845642 102.586243,85.951050 107.052475,85.935036 
	C107.052475,85.935036 107.013031,86.000458 107.023148,86.329712 
	C107.713356,87.417511 108.393463,88.176048 109.073570,88.934586 
	C109.073570,88.934586 109.006355,88.994278 109.040993,89.271774 
	C109.412498,90.019165 109.749367,90.489075 110.086227,90.958984 
	C110.086227,90.958984 109.998764,90.969269 110.020889,91.308182 
	C110.718658,92.413719 111.394310,93.180351 112.069962,93.946983 
	C112.069962,93.946983 112.007889,94.004311 112.020042,94.329849 
	C112.711739,95.414154 113.391289,96.172928 114.070839,96.931694 
	C114.070839,96.931694 113.999115,96.978485 114.012115,97.342278 
	C114.718391,98.780754 115.411652,99.855431 116.104919,100.930115 
	C116.104919,100.930115 116.031509,100.979675 116.116447,101.165939 
	C116.361427,101.639198 116.583473,101.865295 116.867538,102.030502 
	C122.906029,112.404335 128.944534,122.778168 135.108490,133.755341 
	C135.512405,134.554916 135.790848,134.751114 136.069290,134.947311 
	C136.069290,134.947311 136.033508,134.973984 136.057693,135.261978 
	C136.416214,136.019592 136.750549,136.489227 137.084885,136.958847 
	C137.084885,136.958847 136.997971,136.978226 137.038025,137.262711 
	C137.413437,138.019562 137.748795,138.491928 138.084167,138.964294 
	C138.084167,138.964294 138.005692,138.992554 138.020004,139.343048 
	C139.711792,142.444519 141.389252,145.195526 143.066711,147.946533 
	C143.066711,147.946533 143.017868,148.004044 143.129303,148.200287 
	C143.514664,148.582565 143.788589,148.768631 144.062515,148.954681 
	C144.062515,148.954681 143.999390,148.991211 144.032623,149.274506 
	C144.400604,150.029373 144.735336,150.500931 145.070053,150.972488 
	C145.070053,150.972488 145.006210,150.999908 145.007141,151.405594 
	C145.423599,155.045853 144.005264,156.095627 140.783798,156.082428 
	C135.725830,156.061691 130.665771,156.546783 125.606598,156.817688 
	C125.606598,156.817688 125.291275,156.719620 125.437469,156.233093 
	C123.121506,150.943329 120.748848,146.090591 118.138695,141.369141 
	C117.422462,140.073593 115.995369,139.171021 114.894478,138.088120 
	C114.894478,138.088120 114.997360,138.009995 114.939789,137.757812 
	C114.490738,137.181854 114.099243,136.858093 113.707748,136.534317 
	C113.492523,137.055252 113.277298,137.576187 113.062073,138.097122 
	C113.062073,138.097122 113.023224,138.010315 112.715553,138.052826 
	C111.615471,139.062119 110.823051,140.028915 110.205055,141.364136 
	C110.558838,141.936661 110.738213,142.140793 110.917595,142.344925 
	C110.917595,142.344925 110.763260,142.724152 110.260071,142.595734 
	C108.522346,144.664673 107.287819,146.862045 106.053284,149.059418 
	C106.053291,149.059418 106.004539,148.998398 105.691261,149.059753 
	C101.176125,156.225296 94.537315,156.843964 87.277954,156.045227 
	C84.843246,155.777328 82.362236,155.930222 79.902390,155.890778 
z"/>
<path fill="#2EACBF" opacity="1.000000" stroke="none" 
	d="
M106.871964,85.571594 
	C102.586243,85.951050 98.114655,85.845642 93.656364,86.041924 
	C91.833794,86.122162 90.039963,86.855247 88.233063,87.291328 
	C88.850510,88.922379 89.361870,90.603607 90.105270,92.175072 
	C92.343742,96.906944 94.672539,101.596077 96.942398,106.681808 
	C92.978172,100.763000 88.960732,94.509109 85.220268,88.093735 
	C84.860031,87.475891 86.209969,84.857887 86.783531,84.851921 
	C93.417542,84.782921 100.054955,85.038635 106.871964,85.571594 
z"/>
<path fill="#30A9C1" opacity="1.000000" stroke="none" 
	d="
M79.596291,156.100510 
	C82.362236,155.930222 84.843246,155.777328 87.277954,156.045227 
	C94.537315,156.843964 101.176125,156.225296 105.722412,149.083588 
	C103.410881,156.911179 102.007057,157.987106 94.403191,157.987457 
	C90.576561,157.987640 86.742500,158.123398 82.927567,157.912598 
	C81.689377,157.844177 80.501228,156.870087 79.596291,156.100510 
z"/>
<path fill="#30A8C1" opacity="1.000000" stroke="none" 
	d="
M125.836052,157.128296 
	C130.665771,156.546783 135.725830,156.061691 140.783798,156.082428 
	C144.005264,156.095627 145.423599,155.045853 145.027924,151.377747 
	C145.841141,151.938187 146.764847,152.855774 147.400986,153.941818 
	C148.767090,156.274170 147.904160,157.913589 145.316101,157.915405 
	C138.899353,157.919922 132.482391,157.617828 125.836052,157.128296 
z"/>
<path fill="#30A8C1" opacity="1.000000" stroke="none" 
	d="
M114.914932,138.454590 
	C115.995369,139.171021 117.422462,140.073593 118.138695,141.369141 
	C120.748848,146.090591 123.121506,150.943329 125.372238,156.081421 
	C121.752335,150.551193 118.343857,144.686127 114.914932,138.454590 
z"/>
<path fill="#30A8C1" opacity="1.000000" stroke="none" 
	d="
M143.044083,147.579819 
	C141.389252,145.195526 139.711792,142.444519 138.049866,139.313934 
	C139.717438,141.693924 141.369446,144.453506 143.044083,147.579819 
z"/>
<path fill="#2EACBF" opacity="1.000000" stroke="none" 
	d="
M96.929367,107.433685 
	C100.319778,107.215889 101.343185,109.210152 100.976181,112.685349 
	C99.621048,111.321930 98.279503,109.554634 96.929367,107.433685 
z"/>
<path fill="#30A9C1" opacity="1.000000" stroke="none" 
	d="
M106.365166,148.918442 
	C107.287819,146.862045 108.522346,144.664673 110.070663,142.673431 
	C109.148651,144.845520 107.912849,146.811493 106.365166,148.918442 
z"/>
<path fill="#30A8C1" opacity="1.000000" stroke="none" 
	d="
M110.030640,140.995712 
	C110.823051,140.028915 111.615471,139.062119 112.753212,138.081848 
	C112.781006,138.842880 112.463470,139.617355 111.709091,140.694946 
	C110.858376,140.997284 110.444511,140.996506 110.030640,140.995712 
z"/>
<path fill="#2EACBF" opacity="1.000000" stroke="none" 
	d="
M116.048126,100.596031 
	C115.411652,99.855431 114.718391,98.780754 114.049652,97.325279 
	C114.713226,98.050308 115.352272,99.156128 116.048126,100.596031 
z"/>
<path fill="#2EACBF" opacity="1.000000" stroke="none" 
	d="
M114.064392,96.601593 
	C113.391289,96.172928 112.711739,95.414154 112.045212,94.296593 
	C112.724800,94.715698 113.391365,95.493591 114.064392,96.601593 
z"/>
<path fill="#2EACBF" opacity="1.000000" stroke="none" 
	d="
M112.045677,93.618851 
	C111.394310,93.180351 110.718658,92.413719 110.060364,91.288422 
	C110.725609,91.716751 111.373497,92.503738 112.045677,93.618851 
z"/>
<path fill="#2EACBF" opacity="1.000000" stroke="none" 
	d="
M109.056061,88.605850 
	C108.393463,88.176048 107.713356,87.417511 107.049652,86.301346 
	C107.723557,86.721519 108.381050,87.499321 109.056061,88.605850 
z"/>
<path fill="#30A8C1" opacity="1.000000" stroke="none" 
	d="
M113.370178,138.084991 
	C113.277298,137.576187 113.492523,137.055252 113.707748,136.534317 
	C114.099243,136.858093 114.490738,137.181854 114.896057,137.805435 
	C114.499359,138.094452 114.088821,138.083664 113.370178,138.084991 
z"/>
<path fill="#30A8C1" opacity="1.000000" stroke="none" 
	d="
M138.060867,138.649414 
	C137.748795,138.491928 137.413437,138.019562 137.076859,137.240585 
	C137.396286,137.400833 137.716919,137.867676 138.060867,138.649414 
z"/>
<path fill="#30A8C1" opacity="1.000000" stroke="none" 
	d="
M137.064285,136.644043 
	C136.750549,136.489227 136.416214,136.019592 136.080566,135.245056 
	C136.400726,135.403183 136.722198,135.866211 137.064285,136.644043 
z"/>
<path fill="#30A9C1" opacity="1.000000" stroke="none" 
	d="
M110.205055,141.364136 
	C110.444511,140.996506 110.858376,140.997284 111.583054,140.998428 
	C111.714149,141.383652 111.534439,141.768524 111.136162,142.249161 
	C110.738213,142.140793 110.558838,141.936661 110.205055,141.364136 
z"/>
<path fill="#2EACBF" opacity="1.000000" stroke="none" 
	d="
M110.055664,90.646790 
	C109.749367,90.489075 109.412498,90.019165 109.072853,89.243591 
	C109.388420,89.403473 109.706764,89.869026 110.055664,90.646790 
z"/>
<path fill="#30A8C1" opacity="1.000000" stroke="none" 
	d="
M145.042908,150.659698 
	C144.735336,150.500931 144.400604,150.029373 144.063919,149.252533 
	C144.379898,149.413818 144.697815,149.880356 145.042908,150.659698 
z"/>
<path fill="#30A8C1" opacity="1.000000" stroke="none" 
	d="
M136.004944,134.683884 
	C135.790848,134.751114 135.512405,134.554916 135.136902,134.117386 
	C135.340088,134.057526 135.640335,134.238998 136.004944,134.683884 
z"/>
<path fill="#2EACBF" opacity="1.000000" stroke="none" 
	d="
M116.914116,101.753357 
	C116.583473,101.865295 116.361427,101.639198 116.128853,101.123428 
	C116.357780,101.088501 116.659233,101.282364 116.914116,101.753357 
z"/>
<path fill="#30A8C1" opacity="1.000000" stroke="none" 
	d="
M144.003632,148.692444 
	C143.788589,148.768631 143.514664,148.582565 143.140137,148.164215 
	C143.341263,148.097992 143.643021,148.264099 144.003632,148.692444 
z"/>
</svg>