<svg version="1.1" id="Layer_1" xmlns="http://www.w3.org/2000/svg" xmlns:xlink="http://www.w3.org/1999/xlink" x="0px" y="0px"
	 width="100%" viewBox="0 0 225 225" enable-background="new 0 0 225 225" xml:space="preserve">
<path fill="#000000" opacity="1.000000" stroke="none" 
	d="
M107.000000,226.000000 
	C71.333336,226.000000 36.166672,226.000000 1.000005,226.000000 
	C1.000003,151.000000 1.000003,76.000015 1.000002,1.000015 
	C75.999992,1.000010 150.999985,1.000010 225.999969,1.000005 
	C225.999985,75.999985 225.999985,150.999969 226.000000,225.999969 
	C186.500000,226.000000 147.000000,226.000000 107.000000,226.000000 
M125.394089,173.077805 
	C125.083931,173.954819 124.773773,174.831833 124.416374,175.842422 
	C148.212143,175.842422 171.650513,175.842422 195.822311,175.932785 
	C196.572540,175.627686 197.313477,175.296967 198.074402,175.021393 
	C206.891251,171.828339 209.158722,164.836945 204.396622,156.765900 
	C195.624619,141.898682 187.112289,126.878487 178.446991,111.948013 
	C171.659851,100.253662 164.910446,88.535133 157.935745,76.952911 
	C154.480392,71.214920 146.588913,68.849525 141.216736,72.643585 
	C137.556122,75.228874 134.962845,79.500702 132.331451,83.320900 
	C129.454254,87.497948 127.082748,92.023331 124.309395,96.703079 
	C116.179085,83.266197 108.289635,70.921165 101.134621,58.164211 
	C96.169952,49.312515 82.849434,50.032879 77.970390,58.639999 
	C59.893787,90.528900 41.458809,122.216324 22.954229,153.860001 
	C16.895357,164.220932 19.704977,172.275787 30.801998,175.994781 
	C46.897091,175.942444 62.992180,175.890106 79.936646,175.950790 
	C91.611923,175.818649 102.048317,171.280273 108.575150,162.260193 
	C118.178368,148.988571 125.852097,134.316895 134.286102,120.204781 
	C138.504974,113.145607 142.587357,106.004868 147.049881,98.355194 
	C158.287399,117.656898 169.144501,136.305191 179.064697,154.994003 
	C166.142761,154.995880 153.220581,154.962845 140.299194,155.047882 
	C138.836594,155.057495 137.378357,155.732010 135.267899,156.320389 
	C132.208008,161.801483 129.148102,167.282562 125.394089,173.077805 
z"/>
<path fill="#08D983" opacity="1.000000" stroke="none" 
	d="
M29.847317,175.816223 
	C19.704977,172.275787 16.895357,164.220932 22.954229,153.860001 
	C41.458809,122.216324 59.893787,90.528900 77.970390,58.639999 
	C82.849434,50.032879 96.169952,49.312515 101.134621,58.164211 
	C108.289635,70.921165 116.179085,83.266197 124.309395,96.703079 
	C127.082748,92.023331 129.454254,87.497948 132.331451,83.320900 
	C134.962845,79.500702 137.556122,75.228874 141.216736,72.643585 
	C146.588913,68.849525 154.480392,71.214920 157.935745,76.952911 
	C164.910446,88.535133 171.659851,100.253662 178.446991,111.948013 
	C187.112289,126.878487 195.624619,141.898682 204.396622,156.765900 
	C209.158722,164.836945 206.891251,171.828339 198.074402,175.021393 
	C197.313477,175.296967 196.572540,175.627686 195.127533,175.616577 
	C192.623474,175.189178 190.814331,174.983307 189.004944,174.981384 
	C169.784012,174.960938 150.562592,175.030243 131.342819,174.879639 
	C129.585861,174.865891 127.839485,173.501068 126.088196,172.763641 
	C129.148102,167.282562 132.208008,161.801483 136.068405,156.213623 
	C149.762375,156.098801 162.656113,156.127197 175.548950,156.033142 
	C177.035706,156.022293 178.517502,155.329880 180.001587,154.953476 
	C169.144501,136.305191 158.287399,117.656898 147.049881,98.355194 
	C142.587357,106.004868 138.504974,113.145607 134.286102,120.204781 
	C125.852097,134.316895 118.178368,148.988571 108.575150,162.260193 
	C102.048317,171.280273 91.611923,175.818649 79.187103,175.619095 
	C62.827206,175.190018 47.216881,175.083603 31.606379,175.030334 
	C31.020926,175.028336 30.433712,175.542572 29.847317,175.816223 
M46.409264,153.404617 
	C44.608505,156.777573 47.371666,156.057159 48.929501,156.060349 
	C59.291500,156.081635 69.653671,156.015640 80.729263,155.781143 
	C87.799263,153.632462 94.014771,150.290161 97.786194,143.545670 
	C100.644676,138.433838 103.036545,132.984467 106.453842,128.279251 
	C111.907028,120.770836 114.221664,113.705605 106.701447,106.251572 
	C106.263161,105.817123 106.137215,105.082291 105.806641,104.522240 
	C100.799553,96.039375 95.782532,87.562370 90.499565,78.630424 
	C83.432091,90.805565 76.755058,102.384415 70.003120,113.919426 
	C62.354401,126.986526 54.638527,140.014313 46.409264,153.404617 
z"/>
<path fill="#59CE9C" opacity="1.000000" stroke="none" 
	d="
M125.741135,172.920715 
	C127.839485,173.501068 129.585861,174.865891 131.342819,174.879639 
	C150.562592,175.030243 169.784012,174.960938 189.004944,174.981384 
	C190.814331,174.983307 192.623474,175.189178 194.760803,175.571381 
	C171.650513,175.842422 148.212143,175.842422 124.416374,175.842422 
	C124.773773,174.831833 125.083931,173.954819 125.741135,172.920715 
z"/>
<path fill="#5ACF9D" opacity="1.000000" stroke="none" 
	d="
M30.324657,175.905502 
	C30.433712,175.542572 31.020926,175.028336 31.606379,175.030334 
	C47.216881,175.083603 62.827206,175.190018 78.762421,175.562576 
	C62.992180,175.890106 46.897091,175.942444 30.324657,175.905502 
z"/>
<path fill="#B6FFEB" opacity="1.000000" stroke="none" 
	d="
M179.533142,154.973740 
	C178.517502,155.329880 177.035706,156.022293 175.548950,156.033142 
	C162.656113,156.127197 149.762375,156.098801 136.393509,156.102524 
	C137.378357,155.732010 138.836594,155.057495 140.299194,155.047882 
	C153.220581,154.962845 166.142761,154.995880 179.533142,154.973740 
z"/>
<path fill="#000000" opacity="1.000000" stroke="none" 
	d="
M46.951847,153.059204 
	C54.638527,140.014313 62.354401,126.986526 70.003120,113.919426 
	C76.755058,102.384415 83.432091,90.805565 90.499565,78.630424 
	C95.782532,87.562370 100.799553,96.039375 105.806641,104.522240 
	C106.137215,105.082291 106.263161,105.817123 106.701447,106.251572 
	C114.221664,113.705605 111.907028,120.770836 106.453842,128.279251 
	C103.036545,132.984467 100.644676,138.433838 97.786194,143.545670 
	C94.014771,150.290161 87.799263,153.632462 80.177383,155.487427 
	C70.069984,155.128265 60.512718,155.137634 50.960976,154.912445 
	C49.610786,154.880600 48.287556,153.705276 46.951847,153.059204 
z"/>
<path fill="#AFFEE8" opacity="1.000000" stroke="none" 
	d="
M46.680557,153.231903 
	C48.287556,153.705276 49.610786,154.880600 50.960976,154.912445 
	C60.512718,155.137634 70.069984,155.128265 79.820648,155.585861 
	C69.653671,156.015640 59.291500,156.081635 48.929501,156.060349 
	C47.371666,156.057159 44.608505,156.777573 46.680557,153.231903 
z"/>
</svg>