<svg version="1.1" id="Layer_1" xmlns="http://www.w3.org/2000/svg" xmlns:xlink="http://www.w3.org/1999/xlink" x="0px" y="0px"
	 width="100%" viewBox="0 0 188 177" enable-background="new 0 0 188 177" xml:space="preserve">
<path fill="#ffffff" opacity="1.000000" stroke="none" 
	d="
M107.000000,178.000000 
	C72.500000,178.000000 38.499813,177.951569 4.500336,178.084442 
	C1.516417,178.096100 0.911286,177.482559 0.917194,174.499832 
	C1.029443,117.833397 1.029441,61.166622 0.917199,4.500181 
	C0.911291,1.517517 1.517472,0.911897 4.500134,0.917352 
	C64.833260,1.027686 125.166695,1.027681 185.499817,0.917363 
	C188.482346,0.911909 189.088730,1.517341 189.082825,4.500136 
	C188.970566,61.166576 188.970551,117.833351 189.082779,174.499786 
	C189.088684,177.482376 188.484726,178.102570 185.499557,178.085556 
	C159.500381,177.937363 133.500015,178.000000 107.000000,178.000000 
z"/>
<path fill="#FBE26C" opacity="1.000000" stroke="none" 
	d="
M63.842323,83.032730 
	C63.881950,82.196182 64.048744,81.677567 64.458405,81.022385 
	C68.428726,76.311623 71.489227,71.272942 75.448463,66.814407 
	C83.260803,58.016842 96.075836,54.111107 107.391167,57.981201 
	C108.845993,58.478783 110.330978,58.410606 112.141724,58.856186 
	C114.697639,60.446636 116.372589,62.661331 119.362938,63.587486 
	C120.429390,63.944859 121.021202,64.380486 121.728043,65.254875 
	C122.208145,68.858131 123.809410,71.324989 126.498680,73.217453 
	C128.123535,74.360870 129.272980,75.969765 130.266693,78.116516 
	C133.727386,82.503471 134.356583,87.540627 135.420532,92.712509 
	C133.373245,94.580368 132.005325,93.618484 130.789307,92.040443 
	C130.189117,91.261574 129.638443,90.393509 128.439621,90.781960 
	C127.048698,91.232643 126.989288,92.429024 127.025337,93.579643 
	C127.110435,96.295418 126.374725,98.719597 124.382721,101.061363 
	C123.676025,101.494995 123.221779,101.604279 122.402519,101.500580 
	C120.862839,100.471809 120.806877,99.192749 120.967812,97.839828 
	C121.390732,94.284554 120.389534,91.451462 117.029366,89.679626 
	C113.589241,87.865616 111.978348,90.726852 109.894951,92.365097 
	C109.239471,92.880531 108.588531,93.345306 107.442528,93.602913 
	C103.684586,92.171524 105.175659,89.651939 105.873238,87.439827 
	C106.580170,85.198029 107.519707,83.050621 104.677383,81.159927 
	C99.813881,76.159584 99.815620,75.321724 104.412209,69.360100 
	C99.353554,74.781815 99.353554,74.781815 92.387932,69.333160 
	C98.081154,73.544083 95.604172,78.163437 93.248734,83.111900 
	C91.152573,87.330376 90.530304,91.597885 89.383301,96.059113 
	C88.685822,96.548447 88.215187,96.659523 87.366638,96.540924 
	C86.138733,95.852776 85.775757,94.966728 85.558098,93.985252 
	C84.168739,87.720268 81.206779,86.213989 75.548981,88.900146 
	C74.953018,89.183105 74.337555,89.380516 73.343674,89.517395 
	C69.682693,87.737679 71.313690,85.628128 72.581184,83.546104 
	C69.713646,84.168388 66.816772,84.889709 63.842323,83.032730 
z"/>
<path fill="#F5CB4F" opacity="1.000000" stroke="none" 
	d="
M133.470184,137.207993 
	C130.057861,143.726990 124.590019,147.378204 117.401367,149.150238 
	C116.865685,148.902390 116.714012,148.726547 116.480148,148.213089 
	C118.594460,143.949661 122.683548,141.219025 123.561775,136.444260 
	C123.735153,135.501648 124.418938,134.643951 123.752274,133.292206 
	C119.784409,126.832840 119.908775,125.585976 125.041084,120.400642 
	C126.523521,118.902901 127.857414,117.225868 130.138245,116.026428 
	C133.603653,115.430344 135.676010,116.787064 137.156189,119.886887 
	C137.645569,123.384850 136.463867,126.305771 136.306381,129.764008 
	C136.156616,130.193771 136.127365,130.095001 136.172592,130.119644 
	C134.467911,130.925079 134.823624,132.861404 133.737701,134.351273 
	C132.821869,135.117599 131.788895,134.130127 131.250687,135.101944 
	C131.520660,135.235794 131.798126,135.352356 132.355682,135.625412 
	C132.924484,136.128128 133.153656,136.498550 133.470184,137.207993 
z"/>
<path fill="#51A256" opacity="1.000000" stroke="none" 
	d="
M118.030266,43.718811 
	C118.599174,43.750736 118.757149,43.944736 119.056107,44.486534 
	C121.201614,45.366028 123.213303,44.171036 125.586975,44.998604 
	C129.196991,46.168179 130.380539,48.629513 131.048721,51.769203 
	C132.248734,57.407990 132.406021,63.218498 134.104950,69.184456 
	C134.462341,71.368332 134.081680,72.934692 132.280060,74.330917 
	C131.405533,74.693298 130.878510,74.737915 129.979370,74.540718 
	C129.405396,74.294266 129.193634,74.166290 128.714752,73.791580 
	C127.552521,72.536720 127.517700,70.931252 125.889732,70.033417 
	C125.462234,69.655022 125.302307,69.489388 124.941040,69.041321 
	C122.801720,64.563774 118.132179,62.859997 115.724792,58.630501 
	C115.033516,55.300835 115.907066,52.461113 116.409691,49.172745 
	C116.523521,47.627850 116.453087,46.484970 116.876587,44.960434 
	C117.238113,44.329838 117.428726,44.105366 118.030266,43.718811 
z"/>
<path fill="#F6D96C" opacity="1.000000" stroke="none" 
	d="
M86.866783,96.160538 
	C87.560944,96.004395 87.969254,96.001968 88.683792,95.998672 
	C91.250412,95.806190 93.315674,97.111633 95.643608,96.745224 
	C97.424500,96.464912 98.146957,97.829132 98.548157,99.690987 
	C98.041565,102.328362 95.978882,102.042038 94.273560,102.741013 
	C95.464355,104.530243 97.005592,104.756577 98.839096,103.901375 
	C100.147644,103.291023 101.524734,102.810684 103.217239,103.816399 
	C104.235229,105.679344 103.727814,106.911682 102.348450,107.940155 
	C98.398911,110.884979 91.226570,110.391464 87.982193,106.616676 
	C86.540558,104.939354 85.450089,104.803017 83.842690,106.024284 
	C82.785629,106.827431 81.712265,107.619545 80.111420,108.251144 
	C78.205986,108.783485 76.644188,108.788857 74.685852,108.487595 
	C67.688797,105.737968 67.172508,105.391678 67.756760,98.733833 
	C68.124573,94.542458 64.659935,93.692635 62.519676,91.152145 
	C61.958008,90.449486 61.724903,89.991455 61.368431,89.161713 
	C61.188576,88.818756 61.147812,88.393799 61.299625,88.243744 
	C63.432281,87.136848 62.695297,84.937561 63.629181,83.097092 
	C63.694290,82.721840 63.709137,82.716187 63.712147,82.715500 
	C68.266991,83.119873 72.680138,81.421654 77.906654,81.106964 
	C76.277618,84.472603 70.753891,83.957512 72.832642,88.769508 
	C75.519646,91.612854 72.728409,94.854561 74.122871,97.951538 
	C74.067810,99.992676 72.845238,102.034065 75.158485,103.058258 
	C76.862831,103.812851 78.678505,103.913986 80.162643,101.778603 
	C81.907074,100.670692 83.101044,99.316971 85.083435,98.643799 
	C85.807693,98.634216 86.070778,98.868568 86.242615,99.225365 
	C86.211952,98.638283 85.965919,98.075851 86.131615,97.165405 
	C86.340790,96.674309 86.460861,96.494293 86.866783,96.160538 
z"/>
<path fill="#74DB85" opacity="1.000000" stroke="none" 
	d="
M92.319901,38.226112 
	C92.269661,33.142963 95.450089,29.498392 97.598259,25.118767 
	C100.169968,23.968882 101.158218,21.764425 102.671349,20.048935 
	C104.651726,17.803709 106.556076,16.912413 109.247620,19.652111 
	C111.574799,22.020918 113.831726,24.337795 115.542786,27.610456 
	C115.840866,31.405674 117.683197,34.646137 116.633293,38.554111 
	C114.605492,40.248165 113.527763,39.122501 112.306366,37.419098 
	C108.454979,33.208847 103.372841,34.391197 98.919334,33.575218 
	C97.362495,33.289970 96.651825,35.617989 95.672028,37.335930 
	C94.634888,38.335915 93.736282,38.731335 92.319901,38.226112 
z"/>
<path fill="#62D473" opacity="1.000000" stroke="none" 
	d="
M91.854889,38.197563 
	C92.804779,37.753860 93.608437,37.505615 94.701263,37.122658 
	C96.645432,35.272530 98.760117,35.026310 100.909760,35.411804 
	C104.651199,36.082748 108.409698,35.948887 112.591110,35.952904 
	C114.116302,36.668358 113.873337,38.465919 115.672318,38.954552 
	C117.858719,40.364491 117.369980,42.403954 117.685966,44.573105 
	C117.886330,45.994781 117.943375,47.089600 117.988831,48.595634 
	C117.156891,49.758488 115.979218,50.124210 115.252518,49.434521 
	C109.845100,44.302509 102.657013,46.264450 96.385551,44.635880 
	C94.594688,44.170830 92.782333,44.173592 91.531815,42.059940 
	C91.420441,41.155094 91.511208,40.635536 91.605202,39.735374 
	C91.494446,39.007965 91.551292,38.691467 91.854889,38.197563 
z"/>
<path fill="#E1E37D" opacity="1.000000" stroke="none" 
	d="
M112.975693,59.407887 
	C108.122124,60.804985 104.053864,57.896355 99.312233,57.842510 
	C89.668640,57.733013 82.860504,62.283672 76.183899,68.657356 
	C72.218613,72.442734 70.227180,77.849907 65.033356,80.785965 
	C65.573387,76.104965 69.605667,73.067711 71.386192,68.413086 
	C71.445175,67.801773 71.496460,67.561172 71.723358,66.996254 
	C77.524910,60.643543 83.981056,56.015018 92.687042,54.546181 
	C94.524734,54.506069 96.006905,54.565125 97.757034,53.818550 
	C99.141014,53.483082 100.170227,53.504265 101.589256,53.665146 
	C105.698387,55.341530 110.461723,54.616684 112.975693,59.407887 
z"/>
<path fill="#E8C65B" opacity="1.000000" stroke="none" 
	d="
M116.774323,147.643402 
	C117.014023,148.118179 117.016739,148.310165 117.018402,148.790192 
	C114.205582,151.211487 110.760002,151.314728 107.540161,151.545914 
	C95.859665,152.384644 84.174408,152.973053 73.343758,146.970383 
	C70.693947,145.501770 68.300224,143.841461 66.120285,141.339661 
	C65.623550,140.620560 65.470741,140.143539 65.657700,139.224243 
	C68.286057,137.313583 70.218277,138.767792 72.078934,140.163956 
	C73.532799,141.254913 74.743881,142.657166 76.629349,143.846527 
	C78.873604,145.783295 81.089790,146.691299 83.697090,146.496185 
	C87.012054,146.248093 90.230644,146.844223 93.819931,147.653915 
	C97.757050,149.066177 101.414062,147.535004 105.361176,148.148651 
	C107.332184,148.538620 108.929115,148.757538 110.762733,147.767273 
	C111.244843,147.436371 111.448242,147.316055 111.981964,147.054611 
	C112.545380,146.848038 112.778488,146.782593 113.374229,146.667130 
	C114.744194,146.586853 115.694679,146.770660 116.774323,147.643402 
z"/>
<path fill="#D4C272" opacity="1.000000" stroke="none" 
	d="
M134.761780,93.347374 
	C132.987457,88.682175 132.706223,83.580490 129.296661,79.411743 
	C129.418686,78.638794 129.636185,78.117561 130.192078,77.487549 
	C130.752701,77.137581 131.110596,77.088509 131.306152,77.396423 
	C138.605942,92.219604 141.050552,107.664650 138.576752,124.224472 
	C136.661484,123.846840 137.194321,122.220703 136.757416,120.548706 
	C135.767807,117.785637 135.966507,115.335236 136.100830,112.493019 
	C136.510361,110.047279 136.768600,108.002495 135.886383,105.617859 
	C135.175186,103.084221 135.249939,100.820045 134.781494,98.259796 
	C134.577774,97.180992 134.500458,96.450836 134.195801,95.393860 
	C134.174728,94.535042 134.295959,94.066261 134.761780,93.347374 
z"/>
<path fill="#89D597" opacity="1.000000" stroke="none" 
	d="
M115.133286,26.700386 
	C112.207886,25.657639 109.931755,23.352642 108.353424,21.339178 
	C105.510376,17.712349 104.713814,20.322718 103.089363,21.851562 
	C101.705498,23.153976 101.692886,26.389717 98.194138,25.067890 
	C98.898575,22.016190 101.037254,19.864769 103.168022,17.296741 
	C106.148659,14.856295 108.819458,14.839098 111.658569,17.653065 
	C113.603661,19.780064 114.109917,22.113802 114.971939,24.644814 
	C115.393135,25.401825 115.530083,25.875292 115.133286,26.700386 
z"/>
<path fill="#57C367" opacity="1.000000" stroke="none" 
	d="
M67.697845,36.224369 
	C67.894463,35.568165 67.955154,35.109715 68.155884,34.333164 
	C73.106949,30.682884 77.332840,31.791098 81.369537,37.814659 
	C80.530525,40.878151 77.839462,40.779907 75.527618,41.901627 
	C72.879585,42.622540 70.794090,40.250145 68.116341,41.382324 
	C66.984825,40.519714 67.057175,39.449600 66.557579,38.198986 
	C66.415825,37.687881 66.434242,37.520012 66.633911,37.175186 
	C67.136429,36.899975 67.385353,36.707935 67.697845,36.224369 
z"/>
<path fill="#62A96A" opacity="1.000000" stroke="none" 
	d="
M81.147919,38.334831 
	C77.723061,34.365398 73.902596,32.259777 68.561272,33.873287 
	C69.816269,30.338947 72.830727,31.660915 75.313042,32.175285 
	C80.467697,33.243397 84.730995,36.197311 88.858231,39.320347 
	C89.525688,39.825409 90.036423,41.251297 91.304573,39.528881 
	C91.695419,39.919052 91.852715,40.495586 92.072510,41.515175 
	C92.258568,42.465008 92.137680,42.912010 91.493935,43.507095 
	C88.716209,44.451160 87.020638,42.773571 84.784462,41.615501 
	C83.115425,40.852909 81.892090,40.111340 81.147919,38.334831 
z"/>
<path fill="#5E9B63" opacity="1.000000" stroke="none" 
	d="
M66.255028,38.246513 
	C67.449829,38.317749 67.874168,39.181301 67.964264,40.655083 
	C71.216187,44.170105 69.359261,48.269348 70.194458,52.290554 
	C71.085472,55.884949 71.224792,59.211220 72.766052,62.219822 
	C73.653221,63.951588 73.256088,65.755287 72.184097,67.805908 
	C71.946098,68.157104 71.618500,68.350555 71.506195,68.196457 
	C66.995773,62.614861 67.021133,55.879856 66.148354,49.486294 
	C65.663506,45.934513 66.094452,42.257725 66.255028,38.246513 
z"/>
<path fill="#67B46F" opacity="1.000000" stroke="none" 
	d="
M140.203430,62.713997 
	C139.936218,63.037884 139.906647,63.225780 139.787781,63.684658 
	C139.545380,64.105515 139.392242,64.255386 139.139893,64.710953 
	C138.846466,65.560089 138.652252,66.103531 138.222168,66.819923 
	C137.583328,67.371391 137.106430,67.537460 136.192566,67.339569 
	C134.112823,64.305489 135.947784,61.671303 136.497253,58.570305 
	C136.911209,56.708782 137.726089,55.421238 138.467529,53.696060 
	C140.233185,50.284283 138.414612,46.023800 142.392105,43.554268 
	C145.642990,44.305965 144.084625,46.647198 144.242111,48.705521 
	C144.355011,53.498543 140.621445,56.858444 140.692902,61.648617 
	C140.510452,62.219604 140.475754,62.398804 140.203430,62.713997 
z"/>
<path fill="#DFC26E" opacity="1.000000" stroke="none" 
	d="
M64.829086,139.597198 
	C60.756187,134.921173 58.799309,129.596512 58.007080,123.384109 
	C57.669914,122.615257 57.498138,122.196159 57.582176,121.365417 
	C57.559772,120.533875 57.457657,120.045807 57.467331,119.194534 
	C57.668114,118.332634 57.950672,117.981194 58.757698,117.781845 
	C59.729630,118.232277 60.114494,118.833069 60.567795,119.815025 
	C60.861397,120.579300 60.997814,121.023293 61.210281,121.799675 
	C61.718918,124.066093 62.172329,125.995117 62.968796,128.168701 
	C63.211155,128.891327 63.316475,129.312775 63.454521,130.058350 
	C63.723419,131.276443 64.386505,131.876236 65.162292,132.831207 
	C66.313873,134.733841 66.685654,136.406784 65.713272,138.548279 
	C65.426308,139.147156 65.327583,139.396881 64.829086,139.597198 
z"/>
<path fill="#7AC484" opacity="1.000000" stroke="none" 
	d="
M114.900322,27.416756 
	C114.880234,26.537966 114.902893,26.098545 114.961884,25.331039 
	C116.776299,28.876591 117.854988,32.929714 118.102585,37.534592 
	C118.403923,38.367832 118.525459,38.902779 118.324326,39.889603 
	C118.310684,41.166573 118.416779,42.037781 118.482040,43.232864 
	C118.323235,43.773502 118.205269,43.990269 117.958298,44.553501 
	C117.249283,43.177555 116.669273,41.455139 116.038193,39.380714 
	C115.639107,35.304512 115.291084,31.580318 114.900322,27.416756 
z"/>
<path fill="#62A96A" opacity="1.000000" stroke="none" 
	d="
M144.192291,48.744263 
	C143.641769,47.433292 144.696457,45.387226 142.325226,44.098854 
	C140.651657,44.984337 139.177734,44.583118 137.377823,44.495052 
	C135.790741,44.497616 134.652054,44.116928 133.167969,43.640327 
	C131.842072,43.534336 130.869522,43.489346 129.475052,42.497337 
	C132.889908,40.005627 137.082108,40.755215 141.048355,41.329948 
	C144.982010,41.899960 144.770645,45.319351 144.192291,48.744263 
z"/>
<path fill="#E1E37D" opacity="1.000000" stroke="none" 
	d="
M61.017391,89.110107 
	C61.617847,89.031731 62.047115,89.244705 62.729164,89.716248 
	C63.121822,90.130630 63.261703,90.286453 63.422058,90.756866 
	C63.317051,91.904739 62.703716,92.574875 62.652218,93.755356 
	C62.509090,95.847176 62.040623,97.547981 61.468784,99.564049 
	C60.984337,100.885918 60.433468,101.844948 60.497238,103.306274 
	C60.525394,104.076714 60.497501,104.516068 60.348076,105.277679 
	C60.185059,105.808083 60.099411,106.013695 59.825851,106.494675 
	C59.468983,106.912766 59.300014,107.055496 58.820461,107.309265 
	C58.292297,107.396179 58.074722,107.372055 57.661400,107.084297 
	C57.453217,106.421860 57.440773,106.023056 57.539742,105.345596 
	C57.405277,104.510628 57.504147,103.952423 57.802288,103.157249 
	C58.036732,98.224945 59.688362,93.865868 61.017391,89.110107 
z"/>
<path fill="#7AC484" opacity="1.000000" stroke="none" 
	d="
M111.931381,17.788212 
	C109.421967,16.998594 106.860588,16.688965 103.815575,17.067177 
	C107.788025,12.766388 108.371941,12.799598 111.931381,17.788212 
z"/>
<path fill="#5E9B63" opacity="1.000000" stroke="none" 
	d="
M125.414177,46.096687 
	C123.184616,45.775566 121.217514,46.564064 119.358597,45.067314 
	C122.264648,44.124092 124.921310,42.121056 128.568756,41.981644 
	C128.967010,41.981056 129.068939,42.003342 129.107727,42.038227 
	C130.289764,45.273235 128.123260,45.780655 125.414177,46.096687 
z"/>
<path fill="#5E9B63" opacity="1.000000" stroke="none" 
	d="
M135.689331,67.019569 
	C136.458160,66.997856 136.894760,66.995430 137.658844,66.992935 
	C137.175095,70.239052 135.450562,72.976585 133.027008,75.701324 
	C131.643951,76.235291 131.075974,75.633728 130.877075,74.323219 
	C132.379684,73.341850 132.993332,72.217300 133.002625,70.376587 
	C133.479660,68.789383 133.860123,67.476776 135.689331,67.019569 
z"/>
<path fill="#F6D96C" opacity="1.000000" stroke="none" 
	d="
M58.012810,107.113365 
	C58.228607,106.975533 58.610466,106.984291 59.135246,107.257439 
	C60.830723,109.010895 60.234352,110.857658 60.747215,112.917809 
	C60.855843,114.853264 60.575516,116.264992 59.291553,117.759140 
	C58.577644,118.194328 58.213928,118.363403 57.714668,118.681900 
	C56.791191,115.569427 57.192947,112.268585 57.320709,108.532265 
	C57.349537,107.722237 57.477882,107.439613 58.012810,107.113365 
z"/>
<path fill="#F6D96C" opacity="1.000000" stroke="none" 
	d="
M136.817810,119.705643 
	C138.138489,121.043762 137.909927,122.469688 138.247009,124.165878 
	C138.162979,125.027382 137.971863,125.493996 137.371918,126.265411 
	C136.941696,127.655830 136.920273,128.741425 136.527740,130.010406 
	C136.114319,127.112358 136.072021,124.030937 136.032547,120.492889 
	C136.200684,119.840927 136.365982,119.645584 136.817810,119.705643 
z"/>
<path fill="#F6D96C" opacity="1.000000" stroke="none" 
	d="
M132.628387,134.132095 
	C134.438690,133.167679 133.464279,130.636475 135.871292,130.171890 
	C135.641647,131.905258 135.065491,133.666214 134.299774,135.734161 
	C133.743103,136.248886 133.462677,136.540070 133.473892,137.147995 
	C133.678482,137.380966 133.681229,137.455811 133.652847,137.480713 
	C133.233719,137.197800 132.842972,136.889984 132.222275,136.288040 
	C131.538162,135.309326 131.859436,134.782135 132.628387,134.132095 
z"/>
<path fill="#6F9C41" opacity="1.000000" stroke="none" 
	d="
M130.710907,73.884338 
	C131.440048,74.555420 131.880585,75.110474 132.552307,75.803864 
	C132.453278,76.346794 132.123062,76.751373 131.459991,77.382538 
	C131.127151,77.609131 131.301224,77.948204 131.301224,77.948204 
	C131.301224,77.948204 131.059647,78.242386 130.930023,78.379257 
	C128.952988,77.606743 128.257568,76.043297 128.452118,73.722580 
	C129.224915,73.503944 129.823593,73.636131 130.710907,73.884338 
z"/>
<path fill="#E1E37D" opacity="1.000000" stroke="none" 
	d="
M63.432846,82.972961 
	C64.072121,84.664276 64.281250,86.557175 61.830154,87.936882 
	C62.024757,86.470490 62.598076,84.847282 63.432846,82.972961 
z"/>
<path fill="#5E9B63" opacity="1.000000" stroke="none" 
	d="
M118.314697,40.066177 
	C118.120407,39.759212 118.036224,39.223064 118.015686,38.282974 
	C118.194489,38.531689 118.309647,39.184338 118.314697,40.066177 
z"/>
<path fill="#DFC26E" opacity="1.000000" stroke="none" 
	d="
M65.791565,138.838028 
	C65.988770,139.464951 65.992691,139.911301 65.995926,140.692596 
	C65.576302,140.686707 65.157379,140.345886 64.583893,139.776428 
	C64.429329,139.547791 64.769615,139.210526 64.944946,139.047302 
	C65.279610,138.808533 65.438942,138.733002 65.791565,138.838028 
z"/>
<path fill="#D4C272" opacity="1.000000" stroke="none" 
	d="
M137.082397,126.529633 
	C136.963104,126.570229 136.954163,126.346443 137.017517,126.327591 
	C137.080856,126.308739 137.500458,126.110786 137.500458,126.110786 
	C137.500458,126.110786 137.201691,126.489029 137.082397,126.529633 
z"/>
<path fill="#5E9B63" opacity="1.000000" stroke="none" 
	d="
M139.258896,64.917236 
	C138.985657,64.748894 138.897583,64.481125 138.897644,64.213387 
	C138.897675,64.141739 139.166855,64.070160 139.505493,63.977097 
	C139.854492,64.302040 139.780701,64.589432 139.258896,64.917236 
z"/>
<path fill="#AB904F" opacity="1.000000" stroke="none" 
	d="
M57.593464,121.275238 
	C57.817127,121.503807 57.972366,121.985680 58.060246,122.721695 
	C57.836937,122.493401 57.680984,122.010963 57.593464,121.275238 
z"/>
<path fill="#AB904F" opacity="1.000000" stroke="none" 
	d="
M57.828636,103.168686 
	C57.985756,103.487671 58.008900,104.054848 57.841595,104.844482 
	C57.665653,104.516922 57.680157,103.966896 57.828636,103.168686 
z"/>
<path fill="#5E9B63" opacity="1.000000" stroke="none" 
	d="
M140.145844,62.784531 
	C140.000946,62.614841 140.100693,62.411358 140.405090,62.139977 
	C140.647141,62.323200 140.574066,62.549423 140.145844,62.784531 
z"/>
<path fill="#5E9B63" opacity="1.000000" stroke="none" 
	d="
M67.615082,36.135056 
	C67.655380,36.295517 67.476990,36.564415 67.056885,36.915771 
	C66.873589,36.642204 67.067329,36.390625 67.615082,36.135056 
z"/>
<path fill="#AB904F" opacity="1.000000" stroke="none" 
	d="
M58.046768,106.892960 
	C58.104614,107.271553 57.958923,107.556473 57.588226,107.958008 
	C57.326309,107.870438 57.267693,107.655174 57.337368,107.130295 
	C57.465656,106.820663 57.864933,106.810387 58.046768,106.892960 
z"/>
<path fill="#F5CB4F" opacity="1.000000" stroke="none" 
	d="
M133.883408,137.208954 
	C133.691605,137.048813 133.704727,136.716644 133.914047,136.212830 
	C134.102936,136.373077 134.095642,136.705002 133.883408,137.208954 
z"/>
<path fill="#FCDD5C" opacity="1.000000" stroke="none" 
	d="
M98.223785,100.289078 
	C96.946716,99.876442 97.515144,97.297539 95.284462,98.513145 
	C92.993652,99.761513 91.010902,98.250710 89.168442,96.296074 
	C88.125122,91.489738 88.983345,87.325813 91.729675,83.241226 
	C92.333099,82.662704 92.753273,82.464478 93.589615,82.499962 
	C95.180023,83.356720 95.376259,84.699745 95.726036,85.949425 
	C96.133148,87.403908 96.586082,89.014305 98.297325,89.173546 
	C100.219223,89.352386 101.044785,87.700867 101.830963,86.249229 
	C102.400970,85.196747 102.275520,84.021500 102.404755,82.535217 
	C102.784561,81.232063 103.442963,80.586960 104.680237,80.073021 
	C108.624123,80.789146 109.279083,82.831154 108.180565,86.233025 
	C107.521210,88.274918 105.245651,90.079567 107.003311,92.846527 
	C107.408119,93.277130 107.530693,93.493332 107.702164,94.079193 
	C107.422180,96.163589 107.502960,97.903534 107.394531,100.012329 
	C107.053123,102.061890 106.128159,103.182358 104.090805,103.665588 
	C103.255432,103.520622 102.800941,103.345642 102.026138,103.027969 
	C100.647255,102.067642 99.385017,101.524048 98.223785,100.289078 
z"/>
<path fill="#FCDD5C" opacity="1.000000" stroke="none" 
	d="
M134.629623,93.028168 
	C135.014023,93.479416 135.030457,93.890976 135.046814,94.612167 
	C135.035645,95.548332 135.209946,96.110420 135.861496,96.778870 
	C137.752090,99.179825 136.743973,101.749199 137.067474,104.565414 
	C136.967880,105.201195 136.863861,105.411308 136.508636,105.867203 
	C133.114212,108.670341 129.799591,108.309708 126.130905,106.498138 
	C124.627480,105.180519 125.908066,103.270714 124.211227,101.652206 
	C124.069870,97.928215 125.869987,95.059212 125.145561,91.590836 
	C124.520889,88.600021 127.950226,88.742874 129.598785,87.870293 
	C131.129639,87.059998 131.572586,89.143082 131.860352,90.343086 
	C132.195648,91.741280 132.567230,92.910454 134.629623,93.028168 
z"/>
<path fill="#F4D04D" opacity="1.000000" stroke="none" 
	d="
M104.854797,79.692421 
	C104.879478,80.855225 104.588547,81.615204 103.316933,81.940254 
	C100.135635,81.971573 97.319855,82.298676 94.312347,83.167236 
	C93.558502,83.008537 93.105400,83.002571 92.311874,82.994179 
	C91.975426,82.825417 91.951767,82.652893 91.987381,82.493629 
	C93.302071,76.616058 92.970169,74.542175 89.770386,69.092728 
	C89.148293,68.033249 88.576042,66.800064 89.556351,65.900681 
	C90.809021,64.751411 91.536903,66.319412 92.416779,66.913055 
	C92.552673,67.004738 92.651474,67.149475 92.779938,67.254356 
	C98.902130,72.252632 98.913513,72.263947 104.419571,66.894333 
	C105.229614,66.104362 105.801804,64.733047 107.156960,66.009750 
	C108.178726,66.972366 108.004845,68.137672 107.189667,69.148163 
	C106.461388,70.050957 105.700424,70.975311 104.787834,71.672935 
	C101.424591,74.243996 101.666443,76.782181 104.854797,79.692421 
z"/>
<path fill="#F5ECC3" opacity="1.000000" stroke="none" 
	d="
M87.100159,95.592987 
	C87.117767,96.171806 87.082901,96.336800 87.021729,96.753372 
	C86.528160,97.424606 86.510422,98.018578 86.121780,98.683304 
	C84.283440,99.551880 83.972122,101.976265 81.132980,101.702713 
	C80.076660,100.885811 79.918304,100.184090 79.995682,99.077942 
	C80.412849,97.428398 81.514313,96.464996 81.779755,95.166901 
	C82.355057,92.353470 81.680443,90.508179 77.929741,91.286736 
	C77.404961,91.406059 77.195213,91.438011 76.682007,91.488297 
	C76.005020,91.455544 75.875870,91.479782 75.981636,91.588531 
	C76.113304,91.723923 76.216919,91.795372 76.490639,92.038071 
	C76.955940,92.855408 77.046494,93.466347 77.016525,94.406677 
	C76.804825,95.736931 76.859520,96.782791 76.549255,98.110298 
	C76.171631,98.795021 75.850998,99.108871 75.154053,99.502396 
	C74.353065,99.687134 73.893013,99.622551 73.188408,99.211128 
	C71.853783,95.899437 72.016151,92.843239 73.043701,89.399010 
	C75.907478,86.073586 79.151054,85.152237 82.983368,86.897942 
	C86.616913,88.553116 87.167824,91.695274 87.100159,95.592987 
z"/>
<path fill="#F8F1C4" opacity="1.000000" stroke="none" 
	d="
M107.079742,94.324486 
	C107.111603,93.955452 107.191414,93.506989 107.238480,93.283951 
	C107.840309,92.464882 108.343369,91.808167 108.958984,91.283524 
	C111.337250,89.256691 113.046204,86.035515 117.249420,87.820335 
	C121.915565,89.801735 122.705772,93.462059 122.443237,97.805305 
	C122.394493,98.611839 122.074661,99.402000 121.833511,100.584930 
	C121.451752,101.368782 121.027489,101.612068 120.139206,101.680801 
	C119.292534,101.499077 118.873825,101.249130 118.321762,100.590912 
	C117.513779,98.925735 117.939354,97.423813 117.590210,96.055374 
	C117.172615,94.418564 116.897827,92.396225 114.017090,93.237198 
	C112.728401,94.254745 111.720451,95.095619 112.131973,96.931686 
	C112.672302,98.045067 113.285545,98.741974 113.652863,99.966354 
	C113.743416,100.809799 113.647888,101.283882 113.241287,102.044083 
	C112.173409,103.047287 111.196129,103.219818 109.768074,102.974716 
	C109.174110,102.742279 108.951317,102.615730 108.459167,102.217514 
	C106.937202,99.665695 106.925842,97.190109 107.079742,94.324486 
z"/>
<path fill="#E5BAAD" opacity="1.000000" stroke="none" 
	d="
M119.595901,101.124817 
	C120.357773,101.005592 120.768044,100.994347 121.482697,100.976631 
	C122.249809,101.010925 122.712540,101.051697 123.519531,101.105515 
	C123.863777,101.118553 123.883667,101.081299 123.896851,101.084953 
	C125.612450,102.180252 125.771507,103.802925 125.347885,106.006508 
	C123.142700,109.285149 120.194420,108.884186 116.836868,108.402176 
	C114.689117,107.340874 112.925598,106.424202 112.448349,103.860168 
	C112.604355,103.225746 112.727692,102.992805 113.160278,102.524330 
	C115.280136,101.311623 117.248596,101.197678 119.595901,101.124817 
z"/>
<path fill="#E1E37D" opacity="1.000000" stroke="none" 
	d="
M128.641144,73.314888 
	C129.286621,74.858192 129.947006,76.344627 130.703903,78.173592 
	C130.391800,78.695282 129.983200,78.874443 129.352112,79.085953 
	C128.054321,76.869331 126.746353,74.895683 124.449112,73.599594 
	C121.784164,72.096039 120.570831,69.685181 121.066666,66.146332 
	C123.478508,65.301994 124.175728,67.363365 125.532333,68.972130 
	C125.667412,69.292603 125.825294,69.159157 125.765717,69.243622 
	C127.389244,69.789650 127.822754,71.297920 128.614014,72.913620 
	C128.758255,73.199883 128.656067,73.258026 128.641144,73.314888 
z"/>
<path fill="#6F9C41" opacity="1.000000" stroke="none" 
	d="
M125.726730,68.920898 
	C123.860405,68.806641 122.985100,67.165443 121.381134,65.900330 
	C120.745117,65.426315 120.398392,65.120964 119.810577,64.820618 
	C117.625816,63.676704 115.515488,62.724934 114.491547,60.126362 
	C114.839424,58.932381 115.437119,58.536583 116.643906,58.749352 
	C119.808334,62.245953 124.528481,63.810074 125.726730,68.920898 
z"/>
<path fill="#E1E37D" opacity="1.000000" stroke="none" 
	d="
M114.737534,59.806973 
	C116.430298,61.432663 117.860939,62.812595 119.430534,64.509064 
	C116.666351,64.664253 114.561035,63.214783 112.958183,60.464874 
	C112.858238,60.137058 112.993156,59.990128 113.058456,59.914742 
	C113.537239,59.566525 113.987785,59.473808 114.737534,59.806973 
z"/>
<path fill="#FCDD5C" opacity="1.000000" stroke="none" 
	d="
M85.642319,84.408493 
	C83.656204,84.467384 82.913582,83.583099 83.455933,81.986771 
	C83.755356,81.105476 84.731934,80.927116 85.525299,81.229874 
	C87.376991,81.936516 86.944481,83.084274 85.642319,84.408493 
z"/>
<path fill="#FCD555" opacity="1.000000" stroke="none" 
	d="
M115.662521,106.931778 
	C118.741173,106.883293 121.538948,107.583519 124.526138,106.103661 
	C125.083939,105.746933 125.282990,105.561417 125.747803,105.685654 
	C128.992523,104.462341 132.498367,108.456833 135.653732,105.055664 
	C137.564957,106.895721 137.441040,109.198433 137.771652,111.755409 
	C138.073364,114.481834 138.076660,116.884262 137.147827,119.574661 
	C136.926086,119.974220 136.747833,119.987389 136.302460,120.018417 
	C134.556061,118.556541 133.276001,116.733208 130.425735,116.986389 
	C127.329178,116.957092 126.272377,119.347946 124.693390,120.869171 
	C119.336349,126.030228 117.710411,126.001221 112.938454,120.335411 
	C112.187775,119.444115 111.613838,118.468880 110.966232,117.123001 
	C107.414810,114.133614 103.259537,113.725342 99.229805,113.561874 
	C95.783043,113.422050 92.285126,114.049149 88.812469,114.327103 
	C83.833206,114.725639 80.596771,112.200134 79.772827,107.308395 
	C81.076057,106.064514 82.185875,105.117622 83.237328,104.109840 
	C86.132774,101.334663 88.185333,100.839958 89.330917,105.685883 
	C89.851822,107.889389 91.714653,109.001823 94.339890,108.167274 
	C97.329803,107.216805 101.398552,108.846886 102.967926,103.721596 
	C104.538147,102.862625 105.571564,102.179604 105.954613,100.318527 
	C107.615868,99.273369 107.375656,101.637695 108.877083,101.654938 
	C109.145866,101.754143 109.179337,101.792847 109.177681,101.818375 
	C111.572342,103.105049 112.090126,106.646950 115.662521,106.931778 
z"/>
<path fill="#FCC940" opacity="1.000000" stroke="none" 
	d="
M107.247360,149.750641 
	C102.871170,149.755051 98.719635,150.525650 94.306755,149.283447 
	C94.926483,147.180084 92.008125,147.217957 92.368027,145.314667 
	C94.350204,140.285339 97.077782,136.739517 102.920349,137.501221 
	C103.888992,137.627502 104.757484,136.906845 106.041176,136.572174 
	C109.735123,137.542191 111.380875,135.143967 113.298622,133.160126 
	C118.321548,127.964081 119.108917,127.959290 124.755600,132.862701 
	C125.568077,133.346619 126.506088,134.008820 126.481010,134.047546 
	C123.559677,138.560165 123.880623,145.317352 117.192719,147.640350 
	C115.942574,147.946655 114.873840,147.967148 113.404770,147.993820 
	C112.839371,147.870560 112.674316,147.741135 112.270271,147.816330 
	C112.031281,148.020966 112.002487,148.011215 112.010086,148.024841 
	C110.816551,149.451935 108.871979,148.603287 107.247360,149.750641 
z"/>
<path fill="#EBBC36" opacity="1.000000" stroke="none" 
	d="
M125.009247,132.628662 
	C124.439285,133.679276 123.500366,133.987701 122.938126,133.256775 
	C118.886848,127.990067 116.555534,131.991470 113.783897,134.743073 
	C112.066330,136.448212 110.995689,140.143570 107.144890,136.937347 
	C107.088432,134.896439 108.050552,134.007706 108.952232,133.064056 
	C114.433792,127.327332 114.429825,127.323540 110.114822,120.703247 
	C109.776558,118.983284 109.934570,117.748215 111.605103,116.936478 
	C112.337692,117.327118 112.700485,117.669289 113.006439,118.056381 
	C118.504860,125.013382 118.417358,124.924118 124.790031,118.860733 
	C126.072456,117.640541 126.744766,114.078667 129.988876,116.677689 
	C128.769089,118.428040 127.612411,120.036575 126.153214,121.294067 
	C122.275024,124.636169 120.765564,128.109985 125.009247,132.628662 
z"/>
<path fill="#F9C838" opacity="1.000000" stroke="none" 
	d="
M132.666901,133.759064 
	C132.686447,134.481125 132.454895,134.985077 132.107849,135.741486 
	C130.955185,135.619370 130.005753,137.857224 129.186020,136.351868 
	C128.627319,135.325836 128.615997,133.669922 129.634140,132.694046 
	C130.815887,131.561371 131.641098,132.721985 132.666901,133.759064 
z"/>
<path fill="#5CCD65" opacity="1.000000" stroke="none" 
	d="
M115.180634,59.819790 
	C114.582405,60.006302 114.165161,59.959873 113.435829,59.876404 
	C110.040962,57.275421 106.159752,56.711369 102.191925,55.399315 
	C100.884422,54.320301 103.144188,52.431789 100.984978,52.010811 
	C99.414658,51.704655 97.647217,51.478352 96.402863,52.808979 
	C95.244453,54.047691 93.986610,54.947910 91.971588,55.350128 
	C90.524559,55.580143 89.655067,55.218235 88.894127,53.895260 
	C88.653336,53.281971 88.588074,53.024128 88.453674,52.370819 
	C88.359741,51.437031 88.385689,50.901157 88.463165,49.962730 
	C88.239273,47.260853 88.710472,45.200447 90.779861,43.294464 
	C91.324699,42.792500 91.582756,42.581654 91.987915,42.164516 
	C95.754745,42.913052 99.532791,43.335285 103.175262,43.742344 
	C108.452255,44.332073 113.743767,43.892597 117.601654,48.983784 
	C117.648712,52.042641 117.320175,55.078426 116.986221,58.530312 
	C116.441078,59.159889 115.901344,59.373371 115.180634,59.819790 
z"/>
<path fill="#51B05B" opacity="1.000000" stroke="none" 
	d="
M136.071350,66.625183 
	C135.198639,67.910339 134.375748,68.820389 133.282089,69.881798 
	C129.611252,64.166748 130.574829,57.380768 129.144089,51.091003 
	C128.590103,48.655605 127.734024,47.261112 125.270554,46.271198 
	C126.527763,45.152599 128.404068,44.717735 129.056900,42.393738 
	C130.178223,42.070885 131.209946,42.068657 132.630005,42.084015 
	C136.091766,46.745010 135.016129,52.635605 137.814789,57.713245 
	C138.278305,60.960705 136.862961,63.528355 136.071350,66.625183 
z"/>
<path fill="#6F9C41" opacity="1.000000" stroke="none" 
	d="
M128.828033,72.819237 
	C126.868156,72.947784 126.599281,71.234291 125.773163,69.645386 
	C128.099091,69.001190 128.909851,70.297760 128.828033,72.819237 
z"/>
<path fill="#FDD44E" opacity="1.000000" stroke="none" 
	d="
M112.002884,116.594666 
	C110.973778,117.856911 111.003174,119.065544 111.018501,120.630920 
	C107.450966,124.354767 100.813026,125.138031 95.831329,122.334511 
	C93.174591,120.839386 90.433319,119.823868 87.165886,118.972733 
	C84.431633,118.756981 83.355042,120.481438 81.958778,121.938461 
	C79.371742,124.638077 76.516083,124.849197 73.631729,122.209274 
	C71.073967,119.868271 68.767685,117.192253 65.105103,115.595116 
	C62.698479,108.939163 65.820618,105.699066 73.628632,106.766495 
	C75.728836,106.989761 77.434769,107.004631 79.566788,107.029343 
	C81.912994,111.590187 85.201454,113.822006 90.132401,112.405838 
	C93.935425,111.313599 98.149567,113.298996 101.712036,110.687119 
	C101.969032,110.498695 102.871086,110.675690 103.030228,110.944771 
	C105.750603,115.544548 108.849304,113.942833 111.864639,111.174767 
	C113.158806,113.121391 111.561165,114.670250 112.002884,116.594666 
z"/>
<path fill="#FDD758" opacity="1.000000" stroke="none" 
	d="
M73.759720,106.730728 
	C67.597977,107.081512 65.342537,109.061516 65.714226,114.732437 
	C66.360550,115.442215 66.517624,115.969345 66.199478,116.944847 
	C65.222992,117.833435 64.397316,117.929146 63.144775,117.526581 
	C61.231693,115.831253 61.264931,113.945999 61.488510,111.645302 
	C61.459480,109.891777 61.440968,108.504715 60.166222,107.170807 
	C59.781418,106.776543 59.626999,106.619652 59.241585,106.226784 
	C59.030922,105.557198 59.051247,105.123589 59.087582,104.364777 
	C59.807243,102.995850 60.028988,101.823822 60.037022,100.288925 
	C60.382282,97.935097 60.712212,95.883156 61.053658,93.436935 
	C61.545326,92.466789 62.070683,91.931969 62.756851,91.163895 
	C62.938248,90.949341 62.954788,90.462143 62.968365,90.218475 
	C64.229584,90.767616 65.399910,91.740273 66.740608,92.316597 
	C69.731186,93.602142 70.620079,95.739632 69.584854,98.686691 
	C68.176414,102.696289 69.148636,105.412514 73.759720,106.730728 
z"/>
<path fill="#E5BAAD" opacity="1.000000" stroke="none" 
	d="
M72.686966,99.191315 
	C73.347763,98.990158 73.764595,99.014427 74.493706,99.053535 
	C76.859474,99.203407 78.421898,100.612206 80.578926,101.378731 
	C80.852577,101.568970 80.963722,101.765678 81.029984,101.857483 
	C79.829033,106.459167 76.325508,105.277466 73.542313,104.469238 
	C70.975410,103.723831 70.757652,101.560555 72.686966,99.191315 
z"/>
<path fill="#53390B" opacity="1.000000" stroke="none" 
	d="
M102.974213,102.734940 
	C103.056129,103.002022 102.822540,103.275253 102.822571,103.455116 
	C98.783966,105.731140 94.763168,107.552681 91.129631,102.526642 
	C94.433212,101.304771 97.880547,102.256462 101.608887,101.707382 
	C102.289497,102.053505 102.590897,102.260674 102.974213,102.734940 
z"/>
<path fill="#F2D980" opacity="1.000000" stroke="none" 
	d="
M101.892517,101.515106 
	C98.675369,103.618988 95.298912,103.318588 91.495491,102.166016 
	C92.380981,98.360146 95.664368,102.176453 97.760635,100.263794 
	C99.357330,100.140617 100.899162,99.605034 101.892517,101.515106 
z"/>
<path fill="#FBE26C" opacity="1.000000" stroke="none" 
	d="
M86.050369,98.938126 
	C86.079399,98.297188 86.303040,97.799644 86.761047,97.153534 
	C86.774773,97.707809 87.502899,98.753532 86.050369,98.938126 
z"/>
<path fill="#6AD97B" opacity="1.000000" stroke="none" 
	d="
M112.979767,35.555866 
	C110.185402,40.084991 106.156387,37.705807 102.720253,37.561707 
	C100.477249,37.467648 98.181107,37.020023 95.435730,36.991829 
	C95.761459,31.208927 96.744797,30.519613 101.961540,31.989357 
	C104.327797,32.656017 106.714043,33.165771 109.218468,33.028858 
	C110.838432,32.940300 112.646416,32.814232 112.979767,35.555866 
z"/>
<path fill="#58A154" opacity="1.000000" stroke="none" 
	d="
M89.694328,49.782169 
	C89.930031,50.468861 89.928688,50.901024 89.925964,51.657314 
	C89.813416,52.156353 89.702240,52.331264 89.766624,52.762741 
	C90.085594,53.911037 90.411072,54.659267 91.725571,54.916843 
	C92.196838,54.830826 92.350159,54.706520 92.788986,54.659325 
	C93.155067,54.916180 93.235649,55.095913 93.144043,55.515739 
	C84.935081,57.719345 78.442696,62.269279 72.275879,68.036926 
	C72.291023,65.572136 71.730446,63.277752 70.147514,61.127296 
	C68.559105,58.969406 69.050438,56.344276 69.009491,53.437531 
	C69.035469,50.630882 70.508545,49.790749 72.595871,49.823689 
	C75.213715,49.865002 76.301033,51.708698 77.179924,54.394829 
	C77.977417,51.421078 79.820480,49.782040 82.127808,48.655994 
	C84.725548,47.388218 87.251549,47.246685 89.694328,49.782169 
z"/>
<path fill="#52CD5E" opacity="1.000000" stroke="none" 
	d="
M93.258530,55.245510 
	C93.007637,55.033897 92.524239,55.003529 92.283875,54.979332 
	C94.663177,52.138214 96.895042,48.696335 101.714432,49.977573 
	C103.233284,50.381359 104.851799,50.688610 105.268333,52.232502 
	C105.930580,54.687088 103.089218,53.527508 102.120728,54.930489 
	C100.862183,55.216068 99.838669,55.230732 98.432739,55.195847 
	C96.512619,54.898232 95.051521,55.769424 93.258530,55.245510 
z"/>
<path fill="#5CCD65" opacity="1.000000" stroke="none" 
	d="
M92.995712,55.214233 
	C94.575935,55.313553 96.007744,53.925957 97.831650,54.901588 
	C96.728241,56.107807 95.198219,55.817860 93.348038,55.810463 
	C92.971848,55.755833 92.983788,55.394573 92.995712,55.214233 
z"/>
<path fill="#FDCA44" opacity="1.000000" stroke="none" 
	d="
M107.006927,137.003326 
	C105.801094,137.815979 105.163818,140.317184 103.718307,139.670380 
	C97.964363,137.095779 96.371521,141.902634 93.338852,144.923828 
	C89.123146,147.942535 84.772537,146.281784 80.622482,146.138397 
	C79.389534,146.095810 78.034210,145.778580 76.380096,145.225403 
	C71.838829,144.712708 70.942726,139.275452 66.343613,139.065857 
	C65.984840,139.018600 65.549973,138.960693 65.335121,138.922379 
	C64.936172,137.169144 65.194160,135.379883 64.105713,133.454102 
	C63.498547,132.507553 62.961052,131.975311 62.259872,131.209763 
	C62.033909,130.561905 61.997581,130.124435 61.941845,129.358307 
	C65.112114,126.032150 67.557259,128.782730 70.497833,130.290543 
	C71.412285,130.757111 72.260902,131.534119 72.557884,131.292847 
	C78.338249,126.596756 81.069939,131.681793 84.382706,134.897675 
	C84.683418,135.189590 84.849792,135.372803 84.924332,135.403198 
	C83.937164,134.410233 83.359360,133.260757 83.686005,131.465515 
	C84.880470,129.311646 86.182594,127.633339 88.523109,128.689209 
	C92.367188,130.423370 96.518951,130.478195 100.530739,131.293610 
	C103.482887,131.893661 106.427261,132.595673 107.085068,136.611816 
	C107.006187,137.003632 107.000595,137.000107 107.006927,137.003326 
z"/>
<path fill="#F9C838" opacity="1.000000" stroke="none" 
	d="
M76.187744,145.319092 
	C81.356331,143.606323 86.717537,145.778320 92.538246,145.000305 
	C93.159294,145.804642 93.403831,146.637253 94.305809,146.804611 
	C97.371307,147.373398 95.129730,147.989563 94.163437,148.815674 
	C88.204834,147.429459 81.669785,149.754593 76.187744,145.319092 
z"/>
<path fill="#F5CB4F" opacity="1.000000" stroke="none" 
	d="
M107.377274,149.986816 
	C107.551270,147.482086 109.572479,148.137772 111.626663,148.028366 
	C111.447189,150.529999 109.421577,149.857391 107.377274,149.986816 
z"/>
<path fill="#F5CB4F" opacity="1.000000" stroke="none" 
	d="
M112.274597,148.017319 
	C112.208244,147.644562 112.466331,147.547867 112.904976,147.865417 
	C113.004425,148.000000 112.517921,148.013672 112.274597,148.017319 
z"/>
<path fill="#F6D96C" opacity="1.000000" stroke="none" 
	d="
M138.001862,111.647255 
	C136.647293,110.177811 136.566940,107.899849 136.018127,105.381668 
	C136.180939,105.000198 136.358841,104.998871 136.804321,104.994316 
	C138.671127,106.873306 137.830933,109.128120 138.001862,111.647255 
z"/>
<path fill="#FBE26C" opacity="1.000000" stroke="none" 
	d="
M136.046539,96.676102 
	C135.173706,96.807617 134.082809,96.793457 134.847305,95.122070 
	C135.363220,95.408844 135.679688,95.895882 136.046539,96.676102 
z"/>
<path fill="#51B05B" opacity="1.000000" stroke="none" 
	d="
M89.954269,49.635693 
	C82.736145,48.030796 79.473984,50.445423 77.408127,58.183781 
	C74.205406,57.122818 77.150909,47.500996 69.285980,52.778606 
	C66.972000,49.477261 68.456100,45.619438 67.985634,41.490250 
	C70.084778,39.386326 72.202888,40.455795 74.656464,41.001266 
	C78.857620,43.989506 80.447624,43.895409 84.738808,40.245285 
	C86.796234,40.994843 88.588577,41.948063 90.723785,42.952312 
	C90.703484,45.080456 90.340324,47.157570 89.954269,49.635693 
z"/>
<path fill="#4EBA5B" opacity="1.000000" stroke="none" 
	d="
M84.717171,39.896408 
	C86.039368,46.495850 80.262192,44.403549 77.514175,45.519970 
	C75.331848,46.406578 75.102882,43.601528 74.998474,41.395569 
	C76.036507,38.447849 78.713562,39.448673 80.747116,38.246269 
	C82.146774,38.587475 83.288612,39.169334 84.717171,39.896408 
z"/>
<path fill="#4EBA5B" opacity="1.000000" stroke="none" 
	d="
M138.159393,57.719872 
	C136.050354,57.866451 134.745682,56.560497 134.603287,54.898895 
	C134.254776,50.832657 132.311066,46.985157 133.004730,42.450417 
	C134.107025,42.374275 135.195694,42.646950 136.620331,42.971687 
	C140.467758,45.690880 139.186005,49.892365 140.133148,53.671318 
	C139.994339,55.418652 139.034500,56.366951 138.159393,57.719872 
z"/>
<path fill="#57C367" opacity="1.000000" stroke="none" 
	d="
M140.244385,53.746178 
	C138.822021,50.610462 137.308273,47.305573 137.103287,43.319012 
	C138.445999,42.979439 139.935883,42.934093 141.633957,43.848885 
	C141.471207,47.166061 140.976166,50.327984 140.244385,53.746178 
z"/>
<path fill="#FCCF47" opacity="1.000000" stroke="none" 
	d="
M71.373993,131.968765 
	C67.663879,132.543610 66.275970,127.808746 62.328724,129.020569 
	C60.465740,127.199554 60.086060,125.037468 59.996437,122.401093 
	C59.835754,121.850418 59.676247,121.684265 59.292686,121.255104 
	C59.037167,120.250122 59.005695,119.508141 58.957794,118.395706 
	C58.967026,116.625687 58.992687,115.226128 59.028690,113.407333 
	C59.907650,111.625443 59.020477,108.605896 62.645885,109.761932 
	C62.988819,112.041771 62.992916,114.084694 62.997059,116.565392 
	C63.698425,117.700478 64.166489,118.497696 64.003586,119.866814 
	C63.912098,120.237930 63.845795,120.379868 63.735550,120.630600 
	C63.556984,121.036713 63.560307,121.567078 62.994762,121.706490 
	C63.426704,121.597298 63.627796,121.288216 63.895042,120.576180 
	C64.786621,119.525627 65.683105,119.132339 67.061325,118.859924 
	C69.933662,118.873253 71.763626,120.159119 73.362167,121.908958 
	C77.220001,126.131958 76.807854,128.773026 71.373993,131.968765 
z"/>
<path fill="#FCCF47" opacity="1.000000" stroke="none" 
	d="
M62.108925,131.309296 
	C62.954239,131.148407 63.673321,131.498825 63.912350,132.798248 
	C63.106342,132.908218 62.388824,132.549820 62.108925,131.309296 
z"/>
<path fill="#F4D154" opacity="1.000000" stroke="none" 
	d="
M59.177269,121.200554 
	C59.350296,121.141243 59.584660,121.344826 59.883499,121.809715 
	C59.707706,121.873703 59.471252,121.671181 59.177269,121.200554 
z"/>
<path fill="#F6D96C" opacity="1.000000" stroke="none" 
	d="
M59.798431,100.242439 
	C61.444572,101.397461 60.865463,102.579483 59.363754,103.862167 
	C59.038048,102.832550 58.841217,101.609169 59.798431,100.242439 
z"/>
<path fill="#F6D96C" opacity="1.000000" stroke="none" 
	d="
M62.635818,91.025658 
	C62.880032,91.834999 62.571350,92.556274 61.366005,92.964554 
	C61.118244,92.154175 61.430145,91.434853 62.635818,91.025658 
z"/>
<path fill="#F6D96C" opacity="1.000000" stroke="none" 
	d="
M59.003365,106.241211 
	C59.010593,105.990814 59.506687,105.998604 59.754761,105.999756 
	C60.190765,106.451324 60.076099,106.819382 59.372257,107.074158 
	C59.045200,107.032219 59.019058,107.013489 59.005695,107.003044 
	C58.993599,106.825600 58.994865,106.658607 59.003365,106.241211 
z"/>
<path fill="#F4D04D" opacity="1.000000" stroke="none" 
	d="
M59.039330,107.457001 
	C59.322781,106.870300 59.559776,106.662170 59.879517,106.204376 
	C62.295742,105.881248 63.137516,107.100067 62.985344,109.616974 
	C61.028114,109.732559 60.130970,110.932312 59.273491,112.749741 
	C59.037174,111.285988 59.035320,109.583893 59.039330,107.457001 
z"/>
<path fill="#FEDE66" opacity="1.000000" stroke="none" 
	d="
M94.008286,83.425888 
	C96.606705,81.054161 98.945663,77.613220 102.783020,81.768814 
	C105.907288,84.770004 103.916954,87.047020 102.148033,89.188286 
	C100.946190,90.643112 99.701385,92.683044 97.294510,91.440887 
	C94.206917,89.847435 93.698944,86.981117 94.008286,83.425888 
z"/>
<path fill="#FBE26C" opacity="1.000000" stroke="none" 
	d="
M109.125694,101.385155 
	C107.274223,103.163734 107.080925,101.324135 106.220352,100.171188 
	C106.157578,98.157425 105.595474,96.256042 106.831497,94.231026 
	C107.776237,96.309021 108.440880,98.662598 109.125694,101.385155 
z"/>
<path fill="#FBE26C" opacity="1.000000" stroke="none" 
	d="
M126.077042,105.676750 
	C125.825531,105.990753 125.637497,105.986092 125.167175,105.956940 
	C124.595238,104.552025 124.305580,103.171593 123.962982,101.439888 
	C127.764977,100.886253 128.283844,102.426765 126.077042,105.676750 
z"/>
<path fill="#191A18" opacity="1.000000" stroke="none" 
	d="
M76.122574,91.198837 
	C78.403625,88.972931 80.995651,88.128983 83.158768,91.219711 
	C85.156822,94.074585 84.258553,96.523155 81.215012,98.645821 
	C79.394302,100.308464 77.948647,100.010475 76.461304,98.136459 
	C76.494949,96.690414 74.718895,96.262634 75.709473,94.854324 
	C77.334900,93.746307 77.750076,92.708282 76.122574,91.198837 
z"/>
<path fill="#F8E8F0" opacity="1.000000" stroke="none" 
	d="
M76.037552,97.933487 
	C77.655861,98.070457 78.724648,99.325111 80.638168,98.920593 
	C80.971901,99.589615 80.952377,100.254555 80.892715,101.244232 
	C78.535553,102.233757 76.442734,102.214188 74.985626,99.387070 
	C75.124649,98.753609 75.443314,98.438843 76.037552,97.933487 
z"/>
<path fill="#F8E8F0" opacity="1.000000" stroke="none" 
	d="
M75.923653,90.921631 
	C77.235153,91.464035 79.491295,90.589638 79.681076,92.817696 
	C79.836075,94.637474 78.520195,95.318390 76.351486,94.714966 
	C75.970245,93.999374 75.970718,93.325264 75.972748,92.314331 
	C75.862465,91.799477 75.750633,91.621452 75.820129,91.185425 
	C76.001450,90.927414 75.947128,90.903458 75.923653,90.921631 
z"/>
<path fill="#191A18" opacity="1.000000" stroke="none" 
	d="
M75.910370,91.078079 
	C76.159004,91.106560 76.316551,91.285698 76.224197,91.721176 
	C75.827843,91.796165 75.681396,91.614830 75.534950,91.433487 
	C75.629738,91.365242 75.724518,91.296997 75.910370,91.078079 
z"/>
<path fill="#191A18" opacity="1.000000" stroke="none" 
	d="
M112.766136,92.352554 
	C114.459435,90.036690 115.961029,90.859512 117.692215,92.111687 
	C120.460129,94.113716 119.486923,96.559944 118.878693,99.400261 
	C117.450714,101.525024 115.720833,101.778687 113.357994,100.429153 
	C112.444038,99.600754 111.921539,99.052849 111.209167,98.293732 
	C109.168106,95.503204 113.819405,95.004494 112.766136,92.352554 
z"/>
<path fill="#FBE26C" opacity="1.000000" stroke="none" 
	d="
M115.854179,106.684326 
	C110.806061,110.036606 111.309402,104.280617 109.189240,102.203842 
	C110.102005,101.944954 111.027985,102.046013 112.610863,102.167542 
	C113.332443,102.381447 113.397125,102.574867 113.202118,102.929993 
	C113.118256,104.814606 114.916771,105.187782 115.854179,106.684326 
z"/>
<path fill="#C7C9C8" opacity="1.000000" stroke="none" 
	d="
M112.444038,92.077255 
	C114.046486,92.899071 115.852409,93.483009 114.875397,95.621025 
	C113.939201,97.669708 112.587708,96.451210 111.347839,96.000031 
	C111.232849,96.434860 111.117874,96.869698 111.011093,97.693527 
	C109.073441,95.675865 110.048653,93.801666 112.444038,92.077255 
z"/>
<path fill="#F8E8F0" opacity="1.000000" stroke="none" 
	d="
M112.957993,100.495552 
	C114.664772,100.043571 116.362991,99.938492 118.483681,99.800774 
	C119.105568,100.074852 119.304993,100.381577 119.725952,100.852554 
	C118.629257,102.692650 116.848816,103.159668 114.449623,102.957428 
	C113.790817,102.779167 113.519058,102.596230 113.031937,102.307228 
	C112.799995,102.225792 112.726135,102.230240 112.691383,102.214493 
	C112.754234,101.746651 112.851837,101.294556 112.957993,100.495552 
z"/>
<path fill="#F8F1C4" opacity="1.000000" stroke="none" 
	d="
M112.813858,102.445847 
	C113.110291,102.340706 113.420586,102.455620 113.905014,102.754005 
	C113.890213,102.965714 113.701279,102.993958 113.227386,103.056946 
	C112.942429,103.091705 112.827728,102.665909 112.813858,102.445847 
z"/>
<path fill="#FED04A" opacity="1.000000" stroke="none" 
	d="
M107.266861,136.801056 
	C103.818771,131.444244 97.850151,133.568436 93.199440,132.071976 
	C91.844505,131.636002 89.892715,132.418671 88.995865,131.123138 
	C86.805611,127.959198 85.995087,131.146973 84.321640,131.926971 
	C79.592224,130.714355 78.079193,126.881340 80.710678,123.264656 
	C82.138573,121.302170 84.015800,119.680977 85.672592,117.351089 
	C89.778473,117.672523 93.325241,118.408707 96.823357,120.829002 
	C100.666016,123.487694 105.682785,122.268356 110.610527,121.061745 
	C116.782410,125.070702 117.121834,127.438644 112.530991,131.950668 
	C110.908112,133.545670 109.197884,135.051804 107.266861,136.801056 
z"/>
<path fill="#52CD5E" opacity="1.000000" stroke="none" 
	d="
M92.488037,50.478504 
	C92.517807,50.464806 92.458260,50.492203 92.488037,50.478504 
z"/>
<path fill="#51B05B" opacity="1.000000" stroke="none" 
	d="
M89.951111,52.759613 
	C89.603989,52.809593 89.515854,52.536655 89.801178,52.090973 
	C89.936394,52.154270 89.948212,52.327099 89.951111,52.759613 
z"/>
<path fill="#EBBC36" opacity="1.000000" stroke="none" 
	d="
M85.602127,117.088028 
	C86.136322,118.939629 85.568840,120.327728 84.033173,121.723557 
	C79.894691,125.485229 79.908691,127.279510 83.723839,131.776520 
	C85.217468,133.563461 86.407677,135.148926 87.659256,136.684387 
	C88.324730,137.500809 89.012749,138.305008 87.907112,139.187515 
	C86.902710,139.989197 86.106293,139.409409 85.389709,138.584457 
	C83.659035,136.592102 81.899574,134.624741 80.149689,132.649078 
	C78.275307,130.532883 76.500931,129.090820 74.501549,132.644897 
	C73.648277,134.161652 72.336098,133.885498 71.134636,132.273514 
	C75.896820,126.182686 75.198036,123.572182 67.426620,120.018745 
	C66.269569,119.394852 65.631821,118.721077 65.802101,117.316635 
	C65.953117,116.546753 65.957329,116.102455 65.954353,115.324814 
	C69.140236,114.643288 70.596909,117.187500 72.436577,118.988098 
	C77.607674,124.049385 77.554977,124.059875 82.457214,119.091377 
	C83.244362,118.293594 84.322266,117.782684 85.602127,117.088028 
z"/>
<path fill="#FDD44E" opacity="1.000000" stroke="none" 
	d="
M65.580582,116.993240 
	C66.287857,117.772667 66.626816,118.554283 67.021774,119.650047 
	C66.269470,120.283295 65.461166,120.602394 64.330292,120.960899 
	C63.841232,121.203789 63.674740,121.407280 63.256470,121.307213 
	C63.001888,119.936806 62.999084,118.869942 62.996689,117.403130 
	C63.735485,117.000587 64.473869,116.998009 65.580582,116.993240 
z"/>
<path fill="#FDD758" opacity="1.000000" stroke="none" 
	d="
M63.029182,121.223663 
	C63.171829,121.002647 63.338966,121.001640 63.756912,121.000465 
	C63.842075,121.371048 63.676430,121.741783 63.510780,122.112526 
	C63.358414,121.889572 63.206043,121.666618 63.029182,121.223663 
z"/>
</svg>