<svg version="1.1" id="Layer_1" xmlns="http://www.w3.org/2000/svg" xmlns:xlink="http://www.w3.org/1999/xlink" x="0px" y="0px"
	 width="100%" viewBox="0 0 225 225" enable-background="new 0 0 225 225" xml:space="preserve">
<path fill="#FD6C39" opacity="1.000000" stroke="none" 
	d="
M1.000000,134.000000 
	C1.000000,120.645775 1.000000,107.291542 1.321384,93.805344 
	C2.085031,93.019974 2.794293,92.417862 2.931092,91.705780 
	C8.524520,62.589859 23.613312,39.892971 47.642872,22.412033 
	C61.224689,12.531585 76.091988,6.730474 92.099945,2.941856 
	C92.844772,2.765579 93.371628,1.668324 94.000000,0.999998 
	C106.354225,1.000000 118.708458,1.000000 131.203491,1.320435 
	C132.157013,2.110375 132.917374,2.740697 133.790421,3.024721 
	C143.434677,6.162235 153.465729,8.419214 162.670227,12.530590 
	C177.945908,19.353783 190.296036,30.260851 200.806351,43.296703 
	C212.568359,57.885021 220.933792,73.998009 224.059601,92.636909 
	C224.151398,93.184349 225.328781,93.549728 226.000000,94.000000 
	C226.000000,107.020897 226.000000,120.041786 225.683182,133.188477 
	C224.929779,133.795761 224.251221,134.209152 224.093643,134.769150 
	C222.333405,141.024658 221.052994,147.445053 218.879257,153.548950 
	C211.557953,174.107254 198.497208,190.700134 181.340134,203.748184 
	C167.777786,214.062408 152.448914,221.257614 135.366837,224.085892 
	C134.820557,224.176331 134.451614,225.337814 134.000000,226.000000 
	C120.645775,226.000000 107.291542,226.000000 93.808167,225.680634 
	C93.028305,224.917511 92.425331,224.189468 91.720001,224.071045 
	C65.749855,219.711243 44.834518,206.166656 27.796658,186.939209 
	C14.834037,172.310745 6.324520,154.922058 2.927880,135.357437 
	C2.832819,134.809906 1.666693,134.448303 1.000000,134.000000 
M155.377213,92.612587 
	C155.572098,92.048309 155.766983,91.484024 155.973358,90.991211 
	C155.973358,90.991211 155.901566,91.000450 156.423645,90.549667 
	C156.605392,89.666542 156.787140,88.783409 157.004272,87.500519 
	C157.004272,87.500519 156.902603,87.112297 157.276825,86.700539 
	C156.841690,85.758453 156.406570,84.816368 156.025452,83.107132 
	C156.176926,80.493996 156.328415,77.880859 156.426056,76.196526 
	C161.644379,76.433586 166.794891,76.667572 172.361908,77.298225 
	C173.563904,76.262207 174.765900,75.226189 176.688889,74.021202 
	C179.095840,70.079193 181.915863,66.321457 183.782074,62.138218 
	C185.340408,58.645142 181.641586,51.714123 178.054535,49.281109 
	C177.334930,48.213875 176.615326,47.146641 175.125641,45.945988 
	C169.152557,42.771061 163.042282,42.764259 157.427261,46.332336 
	C151.721481,49.958084 149.133621,55.625210 150.052124,62.391556 
	C150.496017,65.661598 151.867722,68.805695 152.350769,72.209084 
	C151.540298,72.122894 150.729843,72.036705 149.646103,71.226120 
	C146.463409,70.834671 143.280701,70.443222 139.687256,69.646484 
	C138.799423,70.124969 137.911575,70.603462 137.006882,71.015854 
	C137.006882,71.015854 137.067184,71.047737 136.458740,71.083290 
	C135.974960,71.416321 135.491196,71.749352 135.004166,72.016518 
	C135.004166,72.016518 135.067581,72.034584 134.357758,72.046341 
	C133.574158,72.747047 132.790558,73.447754 131.852737,74.557739 
	C131.678131,74.818184 131.434875,74.964516 130.497025,75.047638 
	C130.002640,75.393372 129.508240,75.739105 129.006989,76.017731 
	C129.006989,76.017731 129.065201,76.051796 128.329727,76.046387 
	C127.221931,77.079704 126.114143,78.113022 124.782997,79.644020 
	C124.227547,80.093819 123.672089,80.543617 122.463928,81.097481 
	C121.995163,81.755821 121.526390,82.414154 121.006592,82.998741 
	C121.006592,82.998741 121.070564,83.062370 120.453438,83.099617 
	C119.975616,83.451881 119.497795,83.804146 118.765755,84.698318 
	C117.864769,85.467453 116.963776,86.236580 115.612038,87.267586 
	C115.411118,87.546967 115.210197,87.826355 114.872147,88.547150 
	C114.692131,88.830353 114.434586,88.981163 113.631851,89.225349 
	C113.423164,89.495903 113.214485,89.766464 112.995445,89.997658 
	C112.995445,89.997658 113.031807,90.015945 112.298302,89.996819 
	C110.536545,91.719658 108.774788,93.442505 106.764893,95.702477 
	C105.885727,96.475975 105.006569,97.249474 103.661140,98.289673 
	C103.451416,98.575562 103.241684,98.861450 102.754730,99.731140 
	C100.870216,101.488708 98.985710,103.246284 96.379341,105.017838 
	C95.268738,106.615425 94.158142,108.213013 92.335892,109.960922 
	C88.961685,113.435143 85.587471,116.909370 81.898735,120.707451 
	C87.126770,120.054199 91.502480,119.507454 96.467995,118.942345 
	C96.994774,118.703667 97.521553,118.464981 98.452934,118.087006 
	C98.452934,118.087006 98.867950,117.982773 99.518837,117.845284 
	C100.397408,116.899078 101.275978,115.952873 102.556160,115.044518 
	C102.556160,115.044518 102.937248,115.176788 103.081741,115.817780 
	C103.013763,116.864693 103.351570,118.244263 102.810959,118.903709 
	C99.660088,122.747215 96.303123,126.421761 92.738647,130.706879 
	C91.525787,131.807938 90.312935,132.909012 88.360039,134.037125 
	C87.578140,135.053543 86.796242,136.069977 85.770653,137.665009 
	C84.538322,138.775879 83.306000,139.886734 81.620499,141.242920 
	C81.416733,141.515030 81.212967,141.787125 80.997925,142.002548 
	C80.997925,142.002548 81.052155,142.022491 80.316498,142.031967 
	C79.544754,143.052979 78.773010,144.073975 77.867149,145.541992 
	C77.685417,145.827408 77.425690,145.980530 76.453110,146.119843 
	C75.981087,146.761383 75.509056,147.402924 74.784752,148.661499 
	C72.212173,151.106003 69.639587,153.550522 66.611229,156.256897 
	C66.408691,156.538467 66.206146,156.820038 65.874519,157.541641 
	C65.698227,157.823105 65.444489,157.976288 64.365990,158.025177 
	C63.580627,159.051910 62.795261,160.078644 61.821758,161.627884 
	C61.261940,162.093750 60.702122,162.559616 59.714615,163.031815 
	C59.514908,163.371475 59.315201,163.711151 58.993542,164.754486 
	C55.197678,168.442932 51.401814,172.131393 47.605949,175.819855 
	C47.804317,176.339142 48.002689,176.858444 48.201057,177.377747 
	C54.916519,177.052048 61.629929,176.671173 68.348206,176.421158 
	C72.449486,176.268539 72.577858,176.301575 70.742180,172.303345 
	C68.854416,168.191650 68.735489,164.906952 73.725784,163.063416 
	C74.764244,162.679779 75.565514,161.691238 76.584663,161.212723 
	C97.611916,151.339996 115.873268,137.683609 131.752319,120.803879 
	C137.874863,114.295486 143.805893,107.606956 150.521194,100.863342 
	C150.998306,99.889267 151.475418,98.915192 151.989670,97.993912 
	C151.989670,97.993912 151.925156,97.992218 152.434235,97.611649 
	C152.624893,97.018021 152.815552,96.424385 153.157761,95.414978 
	C153.339752,95.151756 153.590622,95.013977 154.399689,94.630692 
	C154.585190,94.059448 154.770706,93.488197 154.973618,92.985413 
	C154.973618,92.985413 154.903687,92.995407 155.377213,92.612587 
z"/>
<path fill="#ffffff" opacity="1.000000" stroke="none" 
	d="
M226.000000,93.531342 
	C225.328781,93.549728 224.151398,93.184349 224.059601,92.636909 
	C220.933792,73.998009 212.568359,57.885021 200.806351,43.296703 
	C190.296036,30.260851 177.945908,19.353783 162.670227,12.530590 
	C153.465729,8.419214 143.434677,6.162235 133.790421,3.024721 
	C132.917374,2.740697 132.157013,2.110375 131.672150,1.320435 
	C163.259857,1.000000 194.519730,1.000000 226.000000,1.000000 
	C226.000000,31.687210 226.000000,62.374947 226.000000,93.531342 
z"/>
<path fill="#ffffff" opacity="1.000000" stroke="none" 
	d="
M93.531342,0.999998 
	C93.371628,1.668324 92.844772,2.765579 92.099945,2.941856 
	C76.091988,6.730474 61.224689,12.531585 47.642872,22.412033 
	C23.613312,39.892971 8.524520,62.589859 2.931092,91.705780 
	C2.794293,92.417862 2.085031,93.019974 1.321384,93.336685 
	C1.000000,62.406017 1.000000,31.812035 1.000000,1.000000 
	C31.687218,1.000000 62.374950,1.000000 93.531342,0.999998 
z"/>
<path fill="#ffffff" opacity="1.000000" stroke="none" 
	d="
M1.000000,134.468658 
	C1.666693,134.448303 2.832819,134.809906 2.927880,135.357437 
	C6.324520,154.922058 14.834037,172.310745 27.796658,186.939209 
	C44.834518,206.166656 65.749855,219.711243 91.720001,224.071045 
	C92.425331,224.189468 93.028305,224.917511 93.339508,225.680634 
	C62.406414,226.000000 31.812832,226.000000 1.000000,226.000000 
	C1.000000,195.646118 1.000000,165.291718 1.000000,134.468658 
z"/>
<path fill="#ffffff" opacity="1.000000" stroke="none" 
	d="
M134.468658,226.000000 
	C134.451614,225.337814 134.820557,224.176331 135.366837,224.085892 
	C152.448914,221.257614 167.777786,214.062408 181.340134,203.748184 
	C198.497208,190.700134 211.557953,174.107254 218.879257,153.548950 
	C221.052994,147.445053 222.333405,141.024658 224.093643,134.769150 
	C224.251221,134.209152 224.929779,133.795761 225.683182,133.657135 
	C226.000000,164.593582 226.000000,195.187164 226.000000,226.000000 
	C195.646118,226.000000 165.291718,226.000000 134.468658,226.000000 
z"/>
<path fill="#ffffff" opacity="1.000000" stroke="none" 
	d="
M65.113297,158.001205 
	C65.444489,157.976288 65.698227,157.823105 66.200623,157.231049 
	C66.706810,156.611969 66.886902,156.303497 67.067001,155.995026 
	C69.639587,153.550522 72.212173,151.106003 75.193977,148.253281 
	C76.098122,147.230484 76.593048,146.615921 77.087967,146.001343 
	C77.425690,145.980530 77.685417,145.827408 78.232834,145.205231 
	C79.416397,143.919800 80.234276,142.971146 81.052155,142.022491 
	C81.052155,142.022491 80.997925,142.002548 81.265320,141.954422 
	C81.713028,141.603394 81.893349,141.300507 82.073669,140.997604 
	C83.306000,139.886734 84.538322,138.775879 86.190796,137.262009 
	C87.440659,135.909363 88.270370,134.959717 89.100082,134.010071 
	C90.312935,132.909012 91.525787,131.807938 93.294907,130.382324 
	C100.298470,128.442291 106.745758,126.826828 113.193054,125.211357 
	C113.150612,124.714653 113.108170,124.217949 113.065727,123.721245 
	C112.249840,123.424736 111.150429,123.364838 110.669609,122.788704 
	C109.027924,120.821518 104.754318,120.186913 107.342529,115.951241 
	C120.081390,103.379837 132.457611,90.891800 145.016251,78.589996 
	C146.732574,76.908775 149.458450,76.302055 151.510757,74.896774 
	C152.256790,74.385941 152.400696,72.995781 152.819336,72.006821 
	C151.867722,68.805695 150.496017,65.661598 150.052124,62.391556 
	C149.133621,55.625210 151.721481,49.958084 157.427261,46.332336 
	C163.042282,42.764259 169.152557,42.771061 175.533997,46.358223 
	C172.459625,50.507915 168.906250,54.183079 165.529190,58.013683 
	C164.191315,59.531250 163.245132,61.394135 162.161102,63.421814 
	C165.234009,66.767601 168.394547,69.678810 171.214752,72.889000 
	C171.984055,73.764641 171.729874,75.539413 171.945404,76.901550 
	C166.794891,76.667572 161.644379,76.433586 156.426056,76.196526 
	C156.328415,77.880859 156.176926,80.493996 155.647446,83.542763 
	C149.462830,88.968399 143.656204,93.958412 137.553406,99.094200 
	C129.355026,106.411774 121.452835,113.583565 113.550644,120.755356 
	C114.059959,121.345894 114.569275,121.936440 115.078590,122.526985 
	C117.725952,120.365601 120.442604,118.282990 123.007034,116.027321 
	C129.400726,110.403465 135.725189,104.700912 142.385788,98.901138 
	C147.430283,94.885651 152.166443,90.998970 156.902603,87.112289 
	C156.902603,87.112297 157.004272,87.500519 156.670334,87.861679 
	C156.191452,89.148712 156.046509,90.074577 155.901550,91.000450 
	C155.901566,91.000450 155.973358,90.991211 155.663879,91.068825 
	C155.204147,91.762756 155.053909,92.379082 154.903687,92.995407 
	C154.903687,92.995407 154.973618,92.985413 154.669403,93.076759 
	C154.213577,93.779289 154.061981,94.390465 153.910385,95.001648 
	C153.590622,95.013977 153.339752,95.151756 152.763214,95.744339 
	C152.220825,96.713203 152.072983,97.352707 151.925156,97.992218 
	C151.925156,97.992218 151.989670,97.993912 151.663452,98.098450 
	C150.832901,99.135483 150.328552,100.067993 149.824188,101.000504 
	C143.805893,107.606956 137.874863,114.295486 131.752319,120.803879 
	C115.873268,137.683609 97.611916,151.339996 76.584663,161.212723 
	C75.565514,161.691238 74.764244,162.679779 73.725784,163.063416 
	C68.735489,164.906952 68.854416,168.191650 70.742180,172.303345 
	C72.577858,176.301575 72.449486,176.268539 68.348206,176.421158 
	C61.629929,176.671173 54.916519,177.052048 48.201057,177.377747 
	C48.002689,176.858444 47.804317,176.339142 47.605949,175.819855 
	C51.401814,172.131393 55.197678,168.442932 59.302422,164.324585 
	C59.788303,163.604950 59.965305,163.315216 60.142307,163.025497 
	C60.702122,162.559616 61.261940,162.093750 62.214226,161.246689 
	C63.442230,159.910736 64.277763,158.955963 65.113297,158.001205 
z"/>
<path fill="#ffffff" opacity="1.000000" stroke="none" 
	d="
M131.122971,74.996742 
	C131.434875,74.964516 131.678131,74.818184 132.268677,74.326096 
	C133.478943,73.407829 134.273254,72.721207 135.067581,72.034584 
	C135.067581,72.034584 135.004166,72.016518 135.323303,72.017273 
	C136.117355,71.694595 136.592270,71.371170 137.067184,71.047737 
	C137.067184,71.047737 137.006882,71.015854 137.364807,71.026611 
	C138.514496,70.708839 139.306259,70.380302 140.098007,70.051765 
	C143.280701,70.443222 146.463409,70.834671 149.424835,71.610115 
	C147.933640,72.691574 146.414642,73.140182 145.431519,74.124191 
	C132.564880,87.002525 119.773979,99.956558 106.655853,113.030563 
	C105.210838,113.838631 104.074043,114.507706 102.937248,115.176788 
	C102.937248,115.176788 102.556160,115.044518 102.204369,114.712860 
	C100.499008,113.015793 98.757713,111.853104 97.906494,110.225037 
	C97.134262,108.748055 97.331421,106.764221 97.101196,105.003853 
	C98.985710,103.246284 100.870216,101.488708 103.153473,99.338478 
	C103.743942,98.638199 103.935677,98.330589 104.127411,98.022980 
	C105.006569,97.249474 105.885727,96.475975 107.238358,95.383926 
	C109.485153,93.382233 111.258484,91.699089 113.031807,90.015945 
	C113.031807,90.015945 112.995445,89.997658 113.263565,89.947113 
	C113.720970,89.597572 113.910248,89.298569 114.099518,88.999565 
	C114.434586,88.981163 114.692131,88.830353 115.200996,88.236847 
	C115.707497,87.619606 115.885147,87.312660 116.062790,87.005707 
	C116.963776,86.236580 117.864769,85.467453 119.213287,84.383141 
	C120.130737,83.732765 120.600647,83.397568 121.070564,83.062370 
	C121.070564,83.062370 121.006592,82.998741 121.321663,82.940712 
	C122.130035,82.252922 122.623329,81.623161 123.116623,80.993408 
	C123.672089,80.543617 124.227547,80.093819 125.234337,79.350571 
	C126.812180,78.055344 127.938690,77.053566 129.065201,76.051788 
	C129.065201,76.051796 129.006989,76.017731 129.342072,76.033066 
	C130.159088,75.697838 130.641037,75.347290 131.122971,74.996742 
z"/>
<path fill="#ffffff" opacity="1.000000" stroke="none" 
	d="
M178.094803,50.017128 
	C181.641586,51.714123 185.340408,58.645142 183.782074,62.138218 
	C181.915863,66.321457 179.095840,70.079193 176.026367,73.950348 
	C173.631073,72.152649 171.707855,70.573997 170.217407,68.658585 
	C168.626572,66.614197 167.444458,64.251755 166.387421,61.893661 
	C170.492203,57.845161 174.293503,53.931145 178.094803,50.017128 
M177.470993,62.543427 
	C177.648010,61.566856 177.825027,60.590282 178.002045,59.613712 
	C177.766937,59.580276 177.531815,59.546841 177.296707,59.513405 
	C177.213577,60.344444 177.130463,61.175480 177.470993,62.543427 
z"/>
<path fill="#D56E43" opacity="1.000000" stroke="none" 
	d="
M106.964066,112.891586 
	C119.773979,99.956558 132.564880,87.002525 145.431519,74.124191 
	C146.414642,73.140182 147.933640,72.691574 149.561462,71.972305 
	C150.729843,72.036705 151.540298,72.122894 152.585052,72.107956 
	C152.400696,72.995781 152.256790,74.385941 151.510757,74.896774 
	C149.458450,76.302055 146.732574,76.908775 145.016251,78.589996 
	C132.457611,90.891800 120.081390,103.379837 107.329956,115.551193 
	C106.996216,114.492706 106.980141,113.692146 106.964066,112.891586 
z"/>
<path fill="#DD724A" opacity="1.000000" stroke="none" 
	d="
M106.655853,113.030563 
	C106.980141,113.692146 106.996216,114.492706 107.024864,115.693321 
	C104.754318,120.186913 109.027924,120.821518 110.669609,122.788704 
	C111.150429,123.364838 112.249840,123.424736 113.065727,123.721245 
	C113.108170,124.217949 113.150612,124.714653 113.193054,125.211357 
	C106.745758,126.826828 100.298470,128.442291 93.433472,130.105576 
	C96.303123,126.421761 99.660088,122.747215 102.810959,118.903709 
	C103.351570,118.244263 103.013763,116.864693 103.009491,115.497284 
	C104.074043,114.507706 105.210838,113.838631 106.655853,113.030563 
z"/>
<path fill="#ffffff" opacity="1.000000" stroke="none" 
	d="
M98.867950,117.982773 
	C98.867950,117.982773 98.452934,118.087006 97.934021,118.073975 
	C96.902802,118.360863 96.390495,118.660782 95.878189,118.960701 
	C91.502480,119.507454 87.126770,120.054199 81.898735,120.707451 
	C85.587471,116.909370 88.961685,113.435143 92.984436,110.048126 
	C94.877129,111.379761 96.318344,112.487770 97.303757,113.911308 
	C98.107796,115.072815 98.367119,116.611382 98.867950,117.982773 
z"/>
<path fill="#D77852" opacity="1.000000" stroke="none" 
	d="
M178.074677,49.649117 
	C174.293503,53.931145 170.492203,57.845161 166.038742,61.892426 
	C164.297913,62.383713 163.209259,62.741756 162.120605,63.099792 
	C163.245132,61.394135 164.191315,59.531250 165.529190,58.013683 
	C168.906250,54.183079 172.459625,50.507915 175.919022,46.424934 
	C176.615326,47.146641 177.334930,48.213875 178.074677,49.649117 
z"/>
<path fill="#DA7350" opacity="1.000000" stroke="none" 
	d="
M157.089722,86.906418 
	C152.166443,90.998970 147.430283,94.885651 141.963013,98.893188 
	C140.104446,98.992172 138.977020,98.970291 137.849594,98.948418 
	C143.656204,93.958412 149.462830,88.968399 155.620453,83.926338 
	C156.406570,84.816368 156.841690,85.758453 157.089722,86.906418 
z"/>
<path fill="#DD7348" opacity="1.000000" stroke="none" 
	d="
M162.161102,63.421814 
	C163.209259,62.741756 164.297913,62.383713 165.735229,62.026913 
	C167.444458,64.251755 168.626572,66.614197 170.217407,68.658585 
	C171.707855,70.573997 173.631073,72.152649 175.665863,74.034828 
	C174.765900,75.226189 173.563904,76.262207 172.153656,77.099884 
	C171.729874,75.539413 171.984055,73.764641 171.214752,72.889000 
	C168.394547,69.678810 165.234009,66.767601 162.161102,63.421814 
z"/>
<path fill="#DB714A" opacity="1.000000" stroke="none" 
	d="
M99.193390,117.914032 
	C98.367119,116.611382 98.107796,115.072815 97.303757,113.911308 
	C96.318344,112.487770 94.877129,111.379761 93.340263,109.972961 
	C94.158142,108.213013 95.268738,106.615425 96.740265,105.010849 
	C97.331421,106.764221 97.134262,108.748055 97.906494,110.225037 
	C98.757713,111.853104 100.499008,113.015793 102.003571,114.693939 
	C101.275978,115.952873 100.397408,116.899078 99.193390,117.914032 
z"/>
<path fill="#DB714A" opacity="1.000000" stroke="none" 
	d="
M112.665054,90.006378 
	C111.258484,91.699089 109.485153,93.382233 107.362427,95.115364 
	C108.774788,93.442505 110.536545,91.719658 112.665054,90.006378 
z"/>
<path fill="#DB714A" opacity="1.000000" stroke="none" 
	d="
M128.697464,76.049088 
	C127.938690,77.053566 126.812180,78.055344 125.346016,79.101730 
	C126.114143,78.113022 127.221931,77.079704 128.697464,76.049088 
z"/>
<path fill="#DD724A" opacity="1.000000" stroke="none" 
	d="
M64.739639,158.013184 
	C64.277763,158.955963 63.442230,159.910736 62.308296,160.985443 
	C62.795261,160.078644 63.580627,159.051910 64.739639,158.013184 
z"/>
<path fill="#DD724A" opacity="1.000000" stroke="none" 
	d="
M80.684326,142.027222 
	C80.234276,142.971146 79.416397,143.919800 78.299896,144.981720 
	C78.773010,144.073975 79.544754,143.052979 80.684326,142.027222 
z"/>
<path fill="#DD724A" opacity="1.000000" stroke="none" 
	d="
M88.730057,134.023590 
	C88.270370,134.959717 87.440659,135.909363 86.312637,136.972702 
	C86.796242,136.069977 87.578140,135.053543 88.730057,134.023590 
z"/>
<path fill="#DA7350" opacity="1.000000" stroke="none" 
	d="
M150.172699,100.931923 
	C150.328552,100.067993 150.832901,99.135483 151.644897,98.072044 
	C151.475418,98.915192 150.998306,99.889267 150.172699,100.931923 
z"/>
<path fill="#DB714A" opacity="1.000000" stroke="none" 
	d="
M139.892639,69.849121 
	C139.306259,70.380302 138.514496,70.708839 137.373245,71.059662 
	C137.911575,70.603462 138.799423,70.124969 139.892639,69.849121 
z"/>
<path fill="#DB714A" opacity="1.000000" stroke="none" 
	d="
M134.712677,72.040466 
	C134.273254,72.721207 133.478943,73.407829 132.345795,74.121460 
	C132.790558,73.447754 133.574158,72.747047 134.712677,72.040466 
z"/>
<path fill="#DA7350" opacity="1.000000" stroke="none" 
	d="
M156.162598,90.775055 
	C156.046509,90.074577 156.191452,89.148712 156.652649,88.061562 
	C156.787140,88.783409 156.605392,89.666542 156.162598,90.775055 
z"/>
<path fill="#DB714A" opacity="1.000000" stroke="none" 
	d="
M122.790276,81.045441 
	C122.623329,81.623161 122.130035,82.252922 121.347176,82.977585 
	C121.526390,82.414154 121.995163,81.755821 122.790276,81.045441 
z"/>
<path fill="#DD724A" opacity="1.000000" stroke="none" 
	d="
M76.770538,146.060593 
	C76.593048,146.615921 76.098122,147.230484 75.320114,147.944763 
	C75.509056,147.402924 75.981087,146.761383 76.770538,146.060593 
z"/>
<path fill="#DA7350" opacity="1.000000" stroke="none" 
	d="
M152.179688,97.801933 
	C152.072983,97.352707 152.220825,96.713203 152.687424,95.952225 
	C152.815552,96.424385 152.624893,97.018021 152.179688,97.801933 
z"/>
<path fill="#DA7350" opacity="1.000000" stroke="none" 
	d="
M154.155029,94.816170 
	C154.061981,94.390465 154.213577,93.779289 154.660690,93.042526 
	C154.770706,93.488197 154.585190,94.059448 154.155029,94.816170 
z"/>
<path fill="#DA7350" opacity="1.000000" stroke="none" 
	d="
M155.140442,92.804001 
	C155.053909,92.379082 155.204147,91.762756 155.658127,91.033096 
	C155.766983,91.484024 155.572098,92.048309 155.140442,92.804001 
z"/>
<path fill="#DB714A" opacity="1.000000" stroke="none" 
	d="
M96.173096,118.951523 
	C96.390495,118.660782 96.902802,118.360863 97.731720,118.143616 
	C97.521553,118.464981 96.994774,118.703667 96.173096,118.951523 
z"/>
<path fill="#DB714A" opacity="1.000000" stroke="none" 
	d="
M120.762001,83.080994 
	C120.600647,83.397568 120.130737,83.732765 119.340393,84.112183 
	C119.497795,83.804146 119.975616,83.451881 120.762001,83.080994 
z"/>
<path fill="#DB714A" opacity="1.000000" stroke="none" 
	d="
M130.809998,75.022186 
	C130.641037,75.347290 130.159088,75.697838 129.345490,76.066612 
	C129.508240,75.739105 130.002640,75.393372 130.809998,75.022186 
z"/>
<path fill="#DD724A" opacity="1.000000" stroke="none" 
	d="
M59.928463,163.028656 
	C59.965305,163.315216 59.788303,163.604950 59.363396,163.972748 
	C59.315201,163.711151 59.514908,163.371475 59.928463,163.028656 
z"/>
<path fill="#DB714A" opacity="1.000000" stroke="none" 
	d="
M136.762970,71.065514 
	C136.592270,71.371170 136.117355,71.694595 135.324921,72.050201 
	C135.491196,71.749352 135.974960,71.416321 136.762970,71.065514 
z"/>
<path fill="#DB714A" opacity="1.000000" stroke="none" 
	d="
M103.894272,98.156326 
	C103.935677,98.330589 103.743942,98.638199 103.292084,99.046577 
	C103.241684,98.861450 103.451416,98.575562 103.894272,98.156326 
z"/>
<path fill="#DB714A" opacity="1.000000" stroke="none" 
	d="
M113.865685,89.112457 
	C113.910248,89.298569 113.720970,89.597572 113.268753,89.966797 
	C113.214485,89.766464 113.423164,89.495903 113.865685,89.112457 
z"/>
<path fill="#DB714A" opacity="1.000000" stroke="none" 
	d="
M115.837418,87.136650 
	C115.885147,87.312660 115.707497,87.619606 115.269562,88.016144 
	C115.210197,87.826355 115.411118,87.546967 115.837418,87.136650 
z"/>
<path fill="#DD724A" opacity="1.000000" stroke="none" 
	d="
M81.847084,141.120270 
	C81.893349,141.300507 81.713028,141.603394 81.270958,141.982758 
	C81.212967,141.787125 81.416733,141.515030 81.847084,141.120270 
z"/>
<path fill="#DD724A" opacity="1.000000" stroke="none" 
	d="
M66.839111,156.125961 
	C66.886902,156.303497 66.706810,156.611969 66.265167,157.011032 
	C66.206146,156.820038 66.408691,156.538467 66.839111,156.125961 
z"/>
<path fill="#D8734E" opacity="1.000000" stroke="none" 
	d="
M137.553406,99.094200 
	C138.977020,98.970291 140.104446,98.992172 141.654663,99.022003 
	C135.725189,104.700912 129.400726,110.403465 123.007034,116.027321 
	C120.442604,118.282990 117.725952,120.365601 115.078590,122.526985 
	C114.569275,121.936440 114.059959,121.345894 113.550644,120.755356 
	C121.452835,113.583565 129.355026,106.411774 137.553406,99.094200 
z"/>
<path fill="#FCB790" opacity="1.000000" stroke="none" 
	d="
M177.259171,62.274971 
	C177.130463,61.175480 177.213577,60.344444 177.296707,59.513405 
	C177.531815,59.546841 177.766937,59.580276 178.002045,59.613712 
	C177.825027,60.590282 177.648010,61.566856 177.259171,62.274971 
z"/>
</svg>