<svg version="1.1" id="Layer_1" xmlns="http://www.w3.org/2000/svg" xmlns:xlink="http://www.w3.org/1999/xlink" x="0px" y="0px"
	 width="100%" viewBox="0 0 225 225" enable-background="new 0 0 225 225" xml:space="preserve">
<path fill="#000000" opacity="1.000000" stroke="none" 
	d="
M226.000000,84.000000 
	C226.000000,131.666672 226.000000,178.833328 226.000000,226.000000 
	C151.000000,226.000000 76.000000,226.000000 1.000000,226.000000 
	C1.000000,151.000000 1.000000,76.000000 1.000000,1.000000 
	C76.000000,1.000000 151.000000,1.000000 226.000000,1.000000 
	C226.000000,28.500000 226.000000,56.000000 226.000000,84.000000 
M100.884270,120.460381 
	C100.706718,120.169189 100.448448,120.005188 99.991158,119.242874 
	C96.009178,112.487801 92.027191,105.732735 87.985703,98.307816 
	C87.639053,97.794960 87.292404,97.282097 86.952034,96.167122 
	C86.327324,95.437431 85.702614,94.707733 84.960152,93.252968 
	C82.333641,88.830177 79.707138,84.407394 76.959923,79.433601 
	C76.920586,79.249748 76.881248,79.065887 76.928459,78.476944 
	C76.813019,78.186546 76.599091,78.041550 76.006348,77.446548 
	C75.955765,77.233101 75.905182,77.019646 75.866432,76.345116 
	C75.679688,76.049530 75.412453,75.922028 75.084396,75.915154 
	C75.084396,75.915154 75.034119,75.904572 74.981110,75.227577 
	C74.018845,73.815575 73.056580,72.403564 72.094215,70.904015 
	C72.094215,70.904015 72.006676,70.903648 71.945381,70.276932 
	C71.327812,69.507530 70.710243,68.738129 69.973434,67.249580 
	C68.313217,63.934341 66.653000,60.619106 65.911568,57.038242 
	C76.586212,57.031254 87.260849,57.024265 98.219490,57.664551 
	C103.125290,66.082634 108.031097,74.500717 113.593773,84.045975 
	C122.129646,69.010719 130.039093,55.078869 138.525757,40.838108 
	C138.706726,40.224548 138.887680,39.610989 138.999939,38.996754 
	C138.999939,38.996754 139.003235,39.065376 139.578461,38.790798 
	C139.741165,38.191742 139.903870,37.592690 140.004562,36.998699 
	C140.004562,36.998699 140.027969,37.056343 140.594193,36.772045 
	C140.758072,36.172085 140.921967,35.572124 140.985992,34.970474 
	C140.985992,34.970474 140.984192,35.070324 141.501526,34.887142 
	C141.689667,34.584068 141.877808,34.280994 141.999359,33.998219 
	C141.999359,33.998219 142.021637,34.064167 142.619064,33.771626 
	C143.452194,32.026031 144.285324,30.280439 144.937164,27.600454 
	C143.998611,27.401773 143.060196,27.029966 142.121506,27.029310 
	C100.528610,27.000196 58.935692,26.995207 17.342861,27.052692 
	C16.296947,27.054138 15.252045,27.787508 14.355834,28.817911 
	C15.597358,30.647425 16.838881,32.476936 18.197741,34.633572 
	C18.342224,34.832916 18.536339,34.949951 18.909781,35.672169 
	C19.285194,36.204521 19.660608,36.736874 20.050211,37.556343 
	C20.050211,37.556343 20.160664,37.821751 20.137880,38.512508 
	C21.079556,39.703938 22.021229,40.895363 22.990429,42.008709 
	C22.990429,42.008709 22.911423,41.983948 22.944895,42.633076 
	C23.281145,43.110035 23.617395,43.586998 23.991936,44.007816 
	C23.991936,44.007816 23.924019,44.010132 23.915148,44.667431 
	C24.261423,45.136959 24.607698,45.606491 24.990458,46.014034 
	C24.990458,46.014034 24.919275,46.024265 24.988503,46.682060 
	C25.645035,47.483398 26.301569,48.284737 26.991302,49.010063 
	C26.991302,49.010063 26.914217,48.979427 26.942915,49.674240 
	C27.306072,50.210793 27.669230,50.747345 28.029852,51.813313 
	C28.299994,52.211277 28.570135,52.609241 28.971539,53.659012 
	C29.631899,54.463150 30.292259,55.267288 30.988190,56.011784 
	C30.988190,56.011784 30.920891,55.994667 30.919088,56.656002 
	C31.267120,57.129597 31.615152,57.603191 31.983950,58.008926 
	C31.983950,58.008926 31.914993,58.025692 31.989994,58.741280 
	C33.308079,60.852100 34.626163,62.962925 35.987942,65.013062 
	C35.987942,65.013062 35.913857,65.023132 35.987492,65.679970 
	C36.648228,66.476410 37.308964,67.272842 37.991913,68.001511 
	C37.991913,68.001511 37.923359,67.981873 37.965969,68.663506 
	C38.326370,69.184067 38.686771,69.704620 39.068962,70.540733 
	C39.068962,70.540733 39.185932,70.834618 39.177296,71.534576 
	C40.125122,72.793022 41.072945,74.051460 42.016441,76.008171 
	C44.656754,80.346519 47.297066,84.684868 49.955605,89.018242 
	C49.955605,89.018242 49.963253,89.032852 49.981503,89.654984 
	C50.299515,90.113014 50.617523,90.571037 50.937977,91.050903 
	C50.937977,91.050903 50.951603,91.068169 50.960522,91.781967 
	C52.287189,93.850037 53.613853,95.918098 54.931881,98.086823 
	C54.931881,98.086823 55.032497,98.095825 55.054161,98.808586 
	C59.969231,107.211494 64.884300,115.614395 69.929947,124.740669 
	C73.935738,131.540161 77.941528,138.339661 82.196289,145.681671 
	C82.767487,146.441574 83.338684,147.201477 83.896042,148.096481 
	C83.896042,148.096481 84.031075,148.110794 84.021896,148.769104 
	C84.768715,149.970749 85.515533,151.172379 86.390205,152.694733 
	C86.390205,152.694733 86.722000,152.790222 86.947212,153.403595 
	C90.544518,159.940445 94.141815,166.477280 98.142464,173.610703 
	C103.108017,182.353699 108.073578,191.096695 113.284561,200.271820 
	C114.216324,198.902328 114.807220,198.138885 115.288101,197.311493 
	C123.702431,182.833893 132.143936,168.371841 140.496185,153.858459 
	C149.741226,137.793671 158.874420,121.664513 168.108139,105.593163 
	C175.539032,92.659668 183.109344,79.806015 190.497162,66.848160 
	C194.795090,59.309811 198.855255,51.635902 203.565033,43.761208 
	C203.725830,43.189945 203.886627,42.618687 204.663712,41.729301 
	C207.041901,37.362320 209.420090,32.995335 211.900284,27.674017 
	C201.133698,27.531542 190.367126,27.387320 179.600098,27.294504 
	C179.544662,27.294027 179.482956,28.019447 179.074280,28.995356 
	C178.071411,30.292294 176.905121,31.494682 176.091446,32.901073 
	C169.391251,44.482143 162.663040,56.048805 156.132111,67.725426 
	C151.085785,76.747704 146.413544,85.978897 141.387726,95.013031 
	C136.356308,104.057228 131.092484,112.972145 125.314484,122.251579 
	C122.796944,126.487053 120.279404,130.722519 117.182281,135.301498 
	C116.014900,137.121399 114.847511,138.941299 113.372307,141.241089 
	C109.786980,135.535187 106.471298,130.258408 102.977829,124.436768 
	C102.941216,124.249260 102.904610,124.061745 102.953201,123.469498 
	C102.842674,123.177834 102.631508,123.030075 102.001213,122.480537 
	C101.930199,122.282249 101.859184,122.083969 101.813202,121.445335 
	C101.654335,121.159302 101.411247,121.012932 101.084061,120.921974 
	C101.084061,120.921974 100.999802,120.921448 100.884270,120.460381 
z"/>
<path fill="#08D178" opacity="1.000000" stroke="none" 
	d="
M39.185932,70.834618 
	C39.185932,70.834618 39.068962,70.540733 38.994629,70.065727 
	C38.587982,69.054436 38.255672,68.518158 37.923359,67.981873 
	C37.923359,67.981873 37.991913,68.001511 37.949745,67.704987 
	C37.243004,66.613358 36.578430,65.818245 35.913857,65.023132 
	C35.913857,65.023132 35.987942,65.013062 35.991974,64.662918 
	C34.635666,62.217079 33.275330,60.121387 31.914993,58.025692 
	C31.914993,58.025692 31.983950,58.008926 31.929253,57.745762 
	C31.556665,56.986622 31.238779,56.490643 30.920891,55.994667 
	C30.920891,55.994667 30.988190,56.011784 30.946901,55.706909 
	C30.217167,54.603756 29.528721,53.805481 28.840275,53.007206 
	C28.570135,52.609241 28.299994,52.211277 27.960543,51.227638 
	C27.565561,50.087784 27.239889,49.533607 26.914217,48.979427 
	C26.914217,48.979427 26.991302,49.010063 26.942787,48.718292 
	C26.235939,47.625767 25.577606,46.825016 24.919273,46.024265 
	C24.919275,46.024265 24.990458,46.014034 24.941414,45.745827 
	C24.569588,44.988453 24.246803,44.499294 23.924019,44.010132 
	C23.924019,44.010132 23.991936,44.007816 23.917757,43.743034 
	C23.532860,42.980152 23.222141,42.482052 22.911423,41.983948 
	C22.911423,41.983948 22.990429,42.008709 22.926277,41.714836 
	C21.961639,40.221226 21.061152,39.021488 20.160664,37.821751 
	C20.160664,37.821751 20.050211,37.556343 19.961943,37.086960 
	C19.509144,36.073280 19.144613,35.528984 18.780083,34.984684 
	C18.536339,34.949951 18.342224,34.832916 18.162304,34.038559 
	C17.741476,29.658155 20.069914,29.024961 23.110191,29.036261 
	C42.403831,29.107967 61.697605,29.143890 80.974182,29.557579 
	C79.683022,32.730961 78.621483,35.660625 77.091019,38.320473 
	C73.855255,43.943977 70.374489,49.426510 66.662064,54.973984 
	C65.886719,54.983852 65.443535,54.986610 64.786911,54.923615 
	C64.097572,55.324947 63.621685,55.792030 63.173752,56.230736 
	C63.201714,56.202362 63.256840,56.259888 62.970066,56.338329 
	C62.121769,56.611710 61.560246,56.806648 60.932590,56.836205 
	C60.594425,56.536232 60.322395,56.401638 60.050362,56.267048 
	C60.367439,56.510933 60.684517,56.754818 61.086250,57.369400 
	C61.028793,59.967155 61.737293,62.895798 60.586571,64.290970 
	C56.999191,68.640404 52.632481,72.338478 48.758270,76.467674 
	C48.044804,77.228088 48.221085,78.823318 47.652405,79.954132 
	C45.606098,77.897743 43.894073,75.920441 42.007652,73.680466 
	C40.950809,72.556732 40.068371,71.695679 39.185932,70.834618 
M46.151302,71.306725 
	C45.501827,70.502808 44.852352,69.698883 44.202881,68.894966 
	C43.855049,69.326454 43.507217,69.757942 43.159386,70.189430 
	C44.127525,70.710129 45.095665,71.230820 46.151302,71.306725 
z"/>
<path fill="#0BB466" opacity="1.000000" stroke="none" 
	d="
M125.930534,121.943726 
	C131.092484,112.972145 136.356308,104.057228 141.387726,95.013031 
	C146.413544,85.978897 151.085785,76.747704 156.132111,67.725426 
	C162.663040,56.048805 169.391251,44.482143 176.091446,32.901073 
	C176.905121,31.494682 178.071411,30.292294 179.590103,28.596966 
	C181.158630,28.251621 182.210938,28.340982 183.264084,28.352043 
	C192.775391,28.451948 202.286865,28.538141 211.798279,28.628353 
	C209.420090,32.995335 207.041901,37.362320 204.329697,41.870079 
	C203.995682,42.010860 203.941528,41.977962 203.951447,41.576767 
	C204.731186,39.054050 205.223877,36.772858 206.333420,34.847076 
	C208.165375,31.667425 207.389709,30.651302 203.867706,29.942867 
	C195.415726,28.242783 191.494537,33.940674 187.604263,39.493160 
	C181.601913,48.060207 176.086044,56.970081 170.022659,65.491791 
	C164.259598,73.591400 157.949783,81.299919 152.084076,89.329208 
	C147.220917,95.986160 142.658905,102.862946 137.951355,109.633904 
	C137.206375,110.705437 136.087112,111.623024 135.672333,112.799194 
	C134.003784,117.530632 130.825668,120.572121 126.048706,122.034683 
	C126.009315,122.004372 125.930534,121.943726 125.930534,121.943726 
z"/>
<path fill="#08BE6B" opacity="1.000000" stroke="none" 
	d="
M101.788170,121.885696 
	C101.859184,122.083969 101.930199,122.282249 102.218811,122.910812 
	C102.550751,123.542671 102.694618,123.720390 102.868004,123.874237 
	C102.904610,124.061745 102.941216,124.249260 103.043243,125.081108 
	C102.370506,128.827927 102.419556,132.468048 100.739861,134.927490 
	C96.480583,141.164017 91.446068,146.871109 86.722000,152.790222 
	C86.722000,152.790222 86.390205,152.694733 86.398849,152.200531 
	C85.615349,150.507812 84.823212,149.309296 84.031082,148.110794 
	C84.031075,148.110794 83.896042,148.096481 83.909851,147.729828 
	C83.264877,146.621826 82.606102,145.880493 81.947327,145.139160 
	C77.941528,138.339661 73.935738,131.540161 70.010658,124.057571 
	C72.241982,121.215134 74.415298,119.077721 76.532196,116.885818 
	C77.397842,115.989510 78.267952,115.053612 78.919029,114.001434 
	C82.002174,109.018936 85.010330,103.990028 88.045212,98.977661 
	C92.027191,105.732735 96.009178,112.487801 100.180191,119.778679 
	C100.559738,120.537254 100.769928,120.739571 100.999802,120.921448 
	C100.999802,120.921448 101.084061,120.921974 101.183434,121.124893 
	C101.430328,121.532730 101.598785,121.718697 101.788170,121.885696 
z"/>
<path fill="#0AAC61" opacity="1.000000" stroke="none" 
	d="
M203.022385,44.022987 
	C198.855255,51.635902 194.795090,59.309811 190.497162,66.848160 
	C183.109344,79.806015 175.539032,92.659668 168.108139,105.593163 
	C158.874420,121.664513 149.741226,137.793671 140.496185,153.858459 
	C132.143936,168.371841 123.702431,182.833893 115.288101,197.311493 
	C114.807220,198.138885 114.216324,198.902328 113.284561,200.271820 
	C108.073578,191.096695 103.108017,182.353699 98.039566,172.974716 
	C98.029877,171.878174 98.123085,171.417633 98.510666,171.098877 
	C102.993195,176.171021 109.507545,179.529022 108.683952,188.109161 
	C112.674164,185.828201 114.796417,181.041336 119.364815,185.250992 
	C117.379700,175.161179 120.118073,170.428116 128.635086,169.485214 
	C123.961746,166.640869 125.576958,164.756409 128.452515,161.821716 
	C131.323532,158.891647 132.869308,154.663025 134.998032,151.001831 
	C135.000000,151.000000 135.003662,150.996048 135.352890,150.913803 
	C142.482727,148.490036 143.624969,142.054413 146.032410,136.555771 
	C147.683609,132.784393 148.289398,126.913513 151.048904,125.642509 
	C155.521301,123.582558 155.838760,121.954681 154.390533,119.626846 
	C159.013123,113.593903 163.235779,108.296684 167.161179,102.787643 
	C167.991577,101.622246 167.506027,99.601288 168.030914,98.117477 
	C168.886917,95.697624 169.714508,93.129272 171.207001,91.104973 
	C173.533646,87.949295 176.952896,85.525597 178.948914,82.213104 
	C185.778137,70.879639 192.134827,59.262367 198.821045,47.840755 
	C199.756012,46.243629 201.525131,45.134830 202.942215,43.852898 
	C202.976318,43.905807 203.022385,44.022984 203.022385,44.022987 
z"/>
<path fill="#09CB74" opacity="1.000000" stroke="none" 
	d="
M60.998722,57.001587 
	C61.560246,56.806648 62.121769,56.611710 63.161858,56.506367 
	C64.091209,56.831932 64.542000,57.067902 64.992783,57.303867 
	C66.653000,60.619106 68.313217,63.934341 69.959480,67.860062 
	C70.632576,69.281570 71.319626,70.092613 72.006676,70.903648 
	C72.006676,70.903648 72.094215,70.904015 72.095825,71.311668 
	C73.076324,73.114403 74.055222,74.509491 75.034119,75.904572 
	C75.034119,75.904572 75.084396,75.915154 75.190903,76.095047 
	C75.461288,76.474930 75.647018,76.652016 75.854591,76.806190 
	C75.905182,77.019646 75.955765,77.233101 76.208191,77.899567 
	C76.525627,78.552177 76.669586,78.728653 76.841904,78.882019 
	C76.881248,79.065887 76.920586,79.249748 76.949844,80.064972 
	C74.207756,89.885094 64.230415,94.255898 61.684258,103.583153 
	C61.646484,103.721527 61.089832,103.718254 61.276722,103.680908 
	C59.037651,101.678192 57.035076,99.887009 55.032501,98.095825 
	C55.032497,98.095825 54.931881,98.086823 54.945686,97.655609 
	C53.623531,95.172318 52.287567,93.120239 50.951603,91.068169 
	C50.951603,91.068169 50.937977,91.050903 50.873886,90.765244 
	C50.527611,89.997345 50.245430,89.515099 49.963249,89.032852 
	C49.963253,89.032852 49.955605,89.018242 49.884430,88.644264 
	C49.204395,85.524597 48.595543,82.778908 47.986687,80.033218 
	C48.221085,78.823318 48.044804,77.228088 48.758270,76.467674 
	C52.632481,72.338478 56.999191,68.640404 60.586571,64.290970 
	C61.737293,62.895798 61.028793,59.967155 61.085457,57.370049 
	C61.000000,57.000000 60.998722,57.001587 60.998722,57.001587 
z"/>
<path fill="#0AC471" opacity="1.000000" stroke="none" 
	d="
M55.043331,98.452209 
	C57.035076,99.887009 59.037651,101.678192 61.276722,103.680908 
	C61.089832,103.718254 61.646484,103.721527 61.684258,103.583153 
	C64.230415,94.255898 74.207756,89.885094 77.010201,80.340469 
	C79.707138,84.407394 82.333641,88.830177 85.055908,93.921127 
	C85.749702,95.315941 86.347733,96.042587 86.945755,96.769241 
	C87.292404,97.282097 87.639053,97.794960 88.015457,98.642738 
	C85.010330,103.990028 82.002174,109.018936 78.919029,114.001434 
	C78.267952,115.053612 77.397842,115.989510 76.532196,116.885818 
	C74.415298,119.077721 72.241982,121.215134 69.945374,123.695892 
	C64.884300,115.614395 59.969231,107.211494 55.043331,98.452209 
z"/>
<path fill="#0DBE6E" opacity="1.000000" stroke="none" 
	d="
M137.948532,41.147018 
	C130.039093,55.078869 122.129646,69.010719 113.593773,84.045975 
	C108.031097,74.500717 103.125290,66.082634 97.817215,57.010139 
	C87.959000,56.154400 78.503059,55.953072 69.429550,55.612152 
	C79.539825,55.306324 89.267654,55.140091 99.158142,55.271198 
	C100.697266,57.422512 102.478989,59.101479 103.370117,61.165039 
	C105.572174,66.264252 109.065735,67.560188 113.535400,65.360657 
	C114.618042,62.897163 116.143639,60.901539 117.601990,58.857933 
	C118.321381,57.849842 118.989624,56.790386 119.551834,55.688274 
	C120.543739,53.743824 121.234428,51.618484 122.407677,49.798687 
	C126.526222,43.410587 132.947556,38.014259 131.417343,29.086758 
	C133.502319,29.045412 135.135834,29.114565 136.754654,28.991213 
	C140.456375,28.709145 142.275269,30.286631 142.021637,34.064167 
	C142.021637,34.064167 141.999359,33.998219 141.841339,34.159294 
	C141.450272,34.570358 141.217239,34.820343 140.984192,35.070324 
	C140.984192,35.070324 140.985992,34.970474 140.833908,35.190292 
	C140.463882,35.958855 140.245926,36.507603 140.027985,37.056343 
	C140.027969,37.056343 140.004562,36.998699 139.812744,37.196404 
	C139.415039,37.951199 139.209137,38.508289 139.003235,39.065376 
	C139.003235,39.065376 138.999939,38.996754 138.808212,39.087009 
	C138.393845,39.833851 138.171188,40.490433 137.948532,41.147018 
z"/>
<path fill="#09B666" opacity="1.000000" stroke="none" 
	d="
M98.216301,170.957077 
	C98.123085,171.417633 98.029877,171.878174 97.837891,172.676422 
	C94.141815,166.477280 90.544518,159.940445 86.834610,153.096909 
	C91.446068,146.871109 96.480583,141.164017 100.739861,134.927490 
	C102.419556,132.468048 102.370506,128.827927 103.132133,125.353546 
	C106.471298,130.258408 109.786980,135.535187 113.372307,141.241089 
	C114.847511,138.941299 116.014900,137.121399 117.589531,135.405975 
	C118.067131,135.697754 118.137474,135.885071 118.283142,136.383118 
	C119.631332,140.499207 116.149780,141.597366 114.526245,143.907883 
	C109.196808,151.492416 104.280991,159.370102 99.310814,167.201523 
	C98.639694,168.258987 98.566414,169.695877 98.216301,170.957077 
z"/>
<path fill="#2DB57A" opacity="1.000000" stroke="none" 
	d="
M142.320343,33.917896 
	C142.275269,30.286631 140.456375,28.709145 136.754654,28.991213 
	C135.135834,29.114565 133.502319,29.045412 130.953796,29.063768 
	C124.011169,29.105637 117.990242,29.147413 111.503174,29.165306 
	C101.021805,29.158154 91.006569,29.174883 80.991333,29.191612 
	C61.697605,29.143890 42.403831,29.107967 23.110191,29.036261 
	C20.069914,29.024961 17.741476,29.658155 18.103634,33.875000 
	C16.838881,32.476936 15.597358,30.647425 14.732634,28.460011 
	C55.648243,28.057508 96.187050,28.001547 136.725861,27.993065 
	C139.523361,27.992481 142.320908,28.345999 145.118439,28.534845 
	C144.285324,30.280439 143.452194,32.026031 142.320343,33.917896 
z"/>
<path fill="#B4FFE5" opacity="1.000000" stroke="none" 
	d="
M145.027802,28.067650 
	C142.320908,28.345999 139.523361,27.992481 136.725861,27.993065 
	C96.187050,28.001547 55.648243,28.057508 14.658052,28.140814 
	C15.252045,27.787508 16.296947,27.054138 17.342861,27.052692 
	C58.935692,26.995207 100.528610,27.000196 142.121506,27.029310 
	C143.060196,27.029966 143.998611,27.401773 145.027802,28.067650 
z"/>
<path fill="#0BB466" opacity="1.000000" stroke="none" 
	d="
M118.207825,136.072372 
	C118.137474,135.885071 118.067131,135.697754 117.879318,135.234222 
	C120.279404,130.722519 122.796944,126.487053 125.622513,122.097656 
	C125.930534,121.943726 126.009315,122.004372 126.067902,122.385742 
	C126.515930,128.354767 123.454796,133.498215 118.207825,136.072372 
z"/>
<path fill="#BAFFE0" opacity="1.000000" stroke="none" 
	d="
M211.849274,28.151184 
	C202.286865,28.538141 192.775391,28.451948 183.264084,28.352043 
	C182.210938,28.340982 181.158630,28.251621 179.765045,28.302225 
	C179.482956,28.019447 179.544662,27.294027 179.600098,27.294504 
	C190.367126,27.387320 201.133698,27.531542 211.849274,28.151184 
z"/>
<path fill="#75EDB6" opacity="1.000000" stroke="none" 
	d="
M69.047112,55.751740 
	C78.503059,55.953072 87.959000,56.154400 97.675217,56.686508 
	C87.260849,57.024265 76.586212,57.031254 65.452179,57.171055 
	C64.542000,57.067902 64.091209,56.831932 63.448631,56.427925 
	C63.256840,56.259888 63.201714,56.202362 63.492317,56.197090 
	C64.193329,56.078079 64.603737,55.964340 65.350220,55.874130 
	C66.133385,55.853428 66.580460,55.809196 67.363708,55.811028 
	C68.148949,55.821976 68.598030,55.786854 69.047112,55.751740 
z"/>
<path fill="#13CA79" opacity="1.000000" stroke="none" 
	d="
M47.652405,79.954132 
	C48.595543,82.778908 49.204395,85.524597 49.875313,88.646751 
	C47.297066,84.684868 44.656754,80.346519 42.057014,75.316277 
	C42.125740,74.397301 42.153893,74.170219 42.182049,73.943138 
	C43.894073,75.920441 45.606098,77.897743 47.652405,79.954132 
z"/>
<path fill="#13CA79" opacity="1.000000" stroke="none" 
	d="
M50.956062,91.425064 
	C52.287567,93.120239 53.623531,95.172318 54.950005,97.605278 
	C53.613853,95.918098 52.287189,93.850037 50.956062,91.425064 
z"/>
<path fill="#2DB57A" opacity="1.000000" stroke="none" 
	d="
M31.952494,58.383484 
	C33.275330,60.121387 34.635666,62.217079 35.970123,64.693260 
	C34.626163,62.962925 33.308079,60.852100 31.952494,58.383484 
z"/>
<path fill="#0AC471" opacity="1.000000" stroke="none" 
	d="
M75.007614,75.566071 
	C74.055222,74.509491 73.076324,73.114403 72.095871,71.355438 
	C73.056580,72.403564 74.018845,73.815575 75.007614,75.566071 
z"/>
<path fill="#09B666" opacity="1.000000" stroke="none" 
	d="
M84.026489,148.439941 
	C84.823212,149.309296 85.615349,150.507812 86.334915,152.040176 
	C85.515533,151.172379 84.768715,149.970749 84.026489,148.439941 
z"/>
<path fill="#09B666" opacity="1.000000" stroke="none" 
	d="
M82.071808,145.410416 
	C82.606102,145.880493 83.264877,146.621826 83.916771,147.662277 
	C83.338684,147.201477 82.767487,146.441574 82.071808,145.410416 
z"/>
<path fill="#2DB57A" opacity="1.000000" stroke="none" 
	d="
M20.149273,38.167130 
	C21.061152,39.021488 21.961639,40.221226 22.912516,41.753876 
	C22.021229,40.895363 21.079556,39.703938 20.149273,38.167130 
z"/>
<path fill="#0AC471" opacity="1.000000" stroke="none" 
	d="
M71.976028,70.590286 
	C71.319626,70.092613 70.632576,69.281570 70.019104,68.219635 
	C70.710243,68.738129 71.327812,69.507530 71.976028,70.590286 
z"/>
<path fill="#2DB57A" opacity="1.000000" stroke="none" 
	d="
M42.007652,73.680466 
	C42.153893,74.170219 42.125740,74.397301 42.059177,74.967148 
	C41.072945,74.051460 40.125122,72.793022 39.181614,71.184601 
	C40.068371,71.695679 40.950809,72.556732 42.007652,73.680466 
z"/>
<path fill="#2DB57A" opacity="1.000000" stroke="none" 
	d="
M28.905907,53.333107 
	C29.528721,53.805481 30.217167,54.603756 30.929115,55.736729 
	C30.292259,55.267288 29.631899,54.463150 28.905907,53.333107 
z"/>
<path fill="#2DB57A" opacity="1.000000" stroke="none" 
	d="
M24.953888,46.353165 
	C25.577606,46.825016 26.235939,47.625767 26.926186,48.756294 
	C26.301569,48.284737 25.645035,47.483398 24.953888,46.353165 
z"/>
<path fill="#2DB57A" opacity="1.000000" stroke="none" 
	d="
M35.950676,65.351547 
	C36.578430,65.818245 37.243004,66.613358 37.938637,67.738876 
	C37.308964,67.272842 36.648228,66.476410 35.950676,65.351547 
z"/>
<path fill="#08BE6B" opacity="1.000000" stroke="none" 
	d="
M86.948898,96.468185 
	C86.347733,96.042587 85.749702,95.315941 85.114792,94.283661 
	C85.702614,94.707733 86.327324,95.437431 86.948898,96.468185 
z"/>
<path fill="#2DB57A" opacity="1.000000" stroke="none" 
	d="
M138.237152,40.992561 
	C138.171188,40.490433 138.393845,39.833851 138.842560,39.087349 
	C138.887680,39.610989 138.706726,40.224548 138.237152,40.992561 
z"/>
<path fill="#2DB57A" opacity="1.000000" stroke="none" 
	d="
M140.311096,36.914196 
	C140.245926,36.507603 140.463882,35.958855 140.883850,35.191139 
	C140.921967,35.572124 140.758072,36.172085 140.311096,36.914196 
z"/>
<path fill="#2DB57A" opacity="1.000000" stroke="none" 
	d="
M18.844933,35.328426 
	C19.144613,35.528984 19.509144,36.073280 19.954849,36.943405 
	C19.660608,36.736874 19.285194,36.204521 18.844933,35.328426 
z"/>
<path fill="#2DB57A" opacity="1.000000" stroke="none" 
	d="
M139.290848,38.928085 
	C139.209137,38.508289 139.415039,37.951199 139.843750,37.193871 
	C139.903870,37.592690 139.741165,38.191742 139.290848,38.928085 
z"/>
<path fill="#13CA79" opacity="1.000000" stroke="none" 
	d="
M49.972374,89.343918 
	C50.245430,89.515099 50.527611,89.997345 50.872662,90.754333 
	C50.617523,90.571037 50.299515,90.113014 49.972374,89.343918 
z"/>
<path fill="#2DB57A" opacity="1.000000" stroke="none" 
	d="
M22.928158,42.308510 
	C23.222141,42.482052 23.532860,42.980152 23.898613,43.771111 
	C23.617395,43.586998 23.281145,43.110035 22.928158,42.308510 
z"/>
<path fill="#0BB466" opacity="1.000000" stroke="none" 
	d="
M204.021545,42.029144 
	C203.886627,42.618687 203.725830,43.189945 203.293701,43.892097 
	C203.022385,44.022984 202.976318,43.905807 203.039932,43.609348 
	C203.382874,42.867912 203.662201,42.422935 203.941528,41.977959 
	C203.941528,41.977962 203.995682,42.010860 204.021545,42.029144 
z"/>
<path fill="#2DB57A" opacity="1.000000" stroke="none" 
	d="
M23.919582,44.338783 
	C24.246803,44.499294 24.569588,44.988453 24.923172,45.776817 
	C24.607698,45.606491 24.261423,45.136959 23.919582,44.338783 
z"/>
<path fill="#2DB57A" opacity="1.000000" stroke="none" 
	d="
M37.944664,68.322693 
	C38.255672,68.518158 38.587982,69.054436 38.983734,69.907951 
	C38.686771,69.704620 38.326370,69.184067 37.944664,68.322693 
z"/>
<path fill="#2DB57A" opacity="1.000000" stroke="none" 
	d="
M26.928566,49.326836 
	C27.239889,49.533607 27.565561,50.087784 27.961811,50.962929 
	C27.669230,50.747345 27.306072,50.210793 26.928566,49.326836 
z"/>
<path fill="#2DB57A" opacity="1.000000" stroke="none" 
	d="
M30.919991,56.325333 
	C31.238779,56.490643 31.556665,56.986622 31.918869,57.779694 
	C31.615152,57.603191 31.267120,57.129597 30.919991,56.325333 
z"/>
<path fill="#2DB57A" opacity="1.000000" stroke="none" 
	d="
M141.242859,34.978733 
	C141.217239,34.820343 141.450272,34.570358 141.874634,34.149147 
	C141.877808,34.280994 141.689667,34.584068 141.242859,34.978733 
z"/>
<path fill="#09B666" opacity="1.000000" stroke="none" 
	d="
M102.910599,123.671867 
	C102.694618,123.720390 102.550751,123.542671 102.378052,123.183662 
	C102.631508,123.030075 102.842674,123.177834 102.910599,123.671867 
z"/>
<path fill="#09B666" opacity="1.000000" stroke="none" 
	d="
M101.800690,121.665512 
	C101.598785,121.718697 101.430328,121.532730 101.183365,121.167023 
	C101.411247,121.012932 101.654335,121.159302 101.800690,121.665512 
z"/>
<path fill="#09B666" opacity="1.000000" stroke="none" 
	d="
M100.942032,120.690918 
	C100.769928,120.739571 100.559738,120.537254 100.239342,120.141434 
	C100.448448,120.005188 100.706718,120.169189 100.942032,120.690918 
z"/>
<path fill="#0AC471" opacity="1.000000" stroke="none" 
	d="
M76.885178,78.679482 
	C76.669586,78.728653 76.525627,78.552177 76.348351,78.197266 
	C76.599091,78.041550 76.813019,78.186546 76.885178,78.679482 
z"/>
<path fill="#0AC471" opacity="1.000000" stroke="none" 
	d="
M75.860512,76.575653 
	C75.647018,76.652016 75.461288,76.474930 75.181068,76.118774 
	C75.412453,75.922028 75.679688,76.049530 75.860512,76.575653 
z"/>
<path fill="#06CB73" opacity="1.000000" stroke="none" 
	d="
M69.429550,55.612148 
	C68.598030,55.786854 68.148949,55.821976 67.354965,55.611626 
	C67.010063,55.366161 66.994225,54.966869 66.994225,54.966869 
	C70.374489,49.426510 73.855255,43.943977 77.091019,38.320473 
	C78.621483,35.660625 79.683022,32.730961 80.974182,29.557579 
	C91.006569,29.174883 101.021805,29.158154 111.459213,29.505665 
	C108.591484,35.364029 105.135155,40.767891 102.084915,46.391998 
	C100.652016,49.034000 100.000893,52.100002 98.995491,54.973858 
	C89.267654,55.140091 79.539825,55.306324 69.429550,55.612148 
z"/>
<path fill="#09CB74" opacity="1.000000" stroke="none" 
	d="
M46.107552,71.529121 
	C45.095665,71.230820 44.127525,70.710129 43.159386,70.189430 
	C43.507217,69.757942 43.855049,69.326454 44.202881,68.894966 
	C44.852352,69.698883 45.501827,70.502808 46.107552,71.529121 
z"/>
<path fill="#09CB74" opacity="1.000000" stroke="none" 
	d="
M61.000793,56.999352 
	C60.684517,56.754818 60.367439,56.510933 60.050362,56.267048 
	C60.322395,56.401638 60.594425,56.536232 60.932590,56.836205 
	C60.998722,57.001587 61.000000,57.000000 61.000793,56.999352 
z"/>
<path fill="#06CB73" opacity="1.000000" stroke="none" 
	d="
M65.014137,55.850601 
	C64.603737,55.964340 64.193329,56.078079 63.464359,56.225464 
	C63.621685,55.792030 64.097572,55.324947 64.789192,55.139053 
	C65.004921,55.420250 65.014137,55.850601 65.014137,55.850601 
z"/>
<path fill="#0DBE6E" opacity="1.000000" stroke="none" 
	d="
M65.350220,55.874130 
	C65.014137,55.850601 65.004921,55.420250 65.002640,55.204811 
	C65.443535,54.986610 65.886719,54.983852 66.662064,54.973984 
	C66.994225,54.966869 67.010063,55.366161 67.018799,55.565559 
	C66.580460,55.809196 66.133385,55.853428 65.350220,55.874130 
z"/>
<path fill="#04B262" opacity="1.000000" stroke="none" 
	d="
M203.951447,41.576767 
	C203.662201,42.422935 203.382874,42.867912 203.005829,43.556442 
	C201.525131,45.134830 199.756012,46.243629 198.821045,47.840755 
	C192.134827,59.262367 185.778137,70.879639 178.948914,82.213104 
	C176.952896,85.525597 173.533646,87.949295 171.207001,91.104973 
	C169.714508,93.129272 168.886917,95.697624 168.030914,98.117477 
	C167.506027,99.601288 167.991577,101.622246 167.161179,102.787643 
	C163.235779,108.296684 159.013123,113.593903 154.390533,119.626846 
	C155.838760,121.954681 155.521301,123.582558 151.048904,125.642509 
	C148.289398,126.913513 147.683609,132.784393 146.032410,136.555771 
	C143.624969,142.054413 142.482727,148.490036 135.297531,150.625381 
	C134.378189,149.850082 133.863419,149.280960 133.348663,148.711838 
	C133.100281,148.998611 132.851898,149.285385 132.603516,149.572144 
	C133.401031,150.049316 134.198547,150.526505 134.996063,151.003677 
	C132.869308,154.663025 131.323532,158.891647 128.452515,161.821716 
	C125.576958,164.756409 123.961746,166.640869 128.635086,169.485214 
	C120.118073,170.428116 117.379700,175.161179 119.364815,185.250992 
	C114.796417,181.041336 112.674164,185.828201 108.683952,188.109161 
	C109.507545,179.529022 102.993195,176.171021 98.510681,171.098877 
	C98.566414,169.695877 98.639694,168.258987 99.310814,167.201523 
	C104.280991,159.370102 109.196808,151.492416 114.526245,143.907883 
	C116.149780,141.597366 119.631332,140.499207 118.283142,136.383118 
	C123.454796,133.498215 126.515930,128.354767 126.107300,122.416061 
	C130.825668,120.572121 134.003784,117.530632 135.672333,112.799194 
	C136.087112,111.623024 137.206375,110.705437 137.951355,109.633904 
	C142.658905,102.862946 147.220917,95.986160 152.084076,89.329208 
	C157.949783,81.299919 164.259598,73.591400 170.022659,65.491791 
	C176.086044,56.970081 181.601913,48.060207 187.604263,39.493160 
	C191.494537,33.940674 195.415726,28.242783 203.867706,29.942867 
	C207.389709,30.651302 208.165375,31.667425 206.333420,34.847076 
	C205.223877,36.772858 204.731186,39.054050 203.951447,41.576767 
z"/>
<path fill="#07C570" opacity="1.000000" stroke="none" 
	d="
M99.158142,55.271198 
	C100.000893,52.100002 100.652016,49.034000 102.084915,46.391998 
	C105.135155,40.767891 108.591484,35.364029 111.925339,29.529547 
	C117.990242,29.147413 124.011169,29.105637 130.495651,29.086847 
	C132.947556,38.014259 126.526222,43.410587 122.407677,49.798687 
	C121.234428,51.618484 120.543739,53.743824 119.551834,55.688274 
	C118.989624,56.790386 118.321381,57.849842 117.601990,58.857933 
	C116.143639,60.901539 114.618042,62.897163 113.535400,65.360657 
	C109.065735,67.560188 105.572174,66.264252 103.370117,61.165039 
	C102.478989,59.101479 100.697266,57.422512 99.158142,55.271198 
z"/>
<path fill="#0AAC61" opacity="1.000000" stroke="none" 
	d="
M134.998016,151.001831 
	C134.198547,150.526505 133.401031,150.049316 132.603516,149.572144 
	C132.851898,149.285385 133.100281,148.998611 133.348663,148.711838 
	C133.863419,149.280960 134.378189,149.850082 134.948303,150.707626 
	C135.003662,150.996048 135.000000,151.000000 134.998016,151.001831 
z"/>
</svg>